G04*
G04 #@! TF.GenerationSoftware,Altium Limited,Altium Designer,19.1.6 (110)*
G04*
G04 Layer_Color=2752767*
%FSAX25Y25*%
%MOIN*%
G70*
G01*
G75*
%ADD10C,0.00787*%
%ADD92C,0.00200*%
%ADD93C,0.00267*%
D10*
X-0000000Y0236221D02*
G03*
X-0007874Y0244094I-0007874J0000000D01*
G01*
X-0007874Y0000000D02*
G03*
X0000000Y0007874I0000000J0007874D01*
G01*
X-0195276Y0244094D02*
G03*
X-0203150Y0236221I0000000J-0007874D01*
G01*
Y0007874D02*
G03*
X-0195276Y0000000I0007874J0000000D01*
G01*
Y0244094D02*
X-0007874D01*
X-0195276Y0000000D02*
X-0007874D01*
X0000000Y0007874D02*
Y0236221D01*
X-0203150Y0007874D02*
Y0236221D01*
X-0000000D02*
X0000000D01*
X-0009843Y0244094D02*
X-0007874Y0244094D01*
X-0177165D02*
X-0177165Y0244094D01*
D92*
X-0010800Y0235834D02*
Y0237434D01*
X-0009200D01*
Y0235834D01*
X-0010800D01*
Y0195834D02*
Y0197434D01*
X-0009200D01*
Y0195834D01*
X-0010800D01*
Y0205834D02*
Y0207434D01*
X-0009200D01*
Y0205834D01*
X-0010800D01*
Y0215834D02*
Y0217434D01*
X-0009200D01*
Y0215834D01*
X-0010800D01*
Y0225834D02*
Y0227434D01*
X-0009200D01*
Y0225834D01*
X-0010800D01*
X-0049821Y0237192D02*
X-0050621Y0238792D01*
X-0049021D01*
X-0049821Y0237192D01*
X-0022163D02*
X-0022963Y0238792D01*
X-0021363D01*
X-0022163Y0237192D01*
X-0010800Y0165834D02*
Y0167434D01*
X-0009200D01*
Y0165834D01*
X-0010800D01*
Y0155834D02*
Y0157434D01*
X-0009200D01*
Y0155834D01*
X-0010800D01*
Y0145834D02*
Y0147434D01*
X-0009200D01*
Y0145834D01*
X-0010800D01*
Y0135834D02*
Y0137434D01*
X-0009200D01*
Y0135834D01*
X-0010800D01*
Y0125834D02*
Y0127434D01*
X-0009200D01*
Y0125834D01*
X-0010800D01*
Y0115834D02*
Y0117434D01*
X-0009200D01*
Y0115834D01*
X-0010800D01*
Y0175834D02*
Y0177434D01*
X-0009200D01*
Y0175834D01*
X-0010800D01*
X-0182226Y0234330D02*
X-0181826Y0234730D01*
X-0181426D01*
X-0181826Y0235130D01*
X-0181426Y0235530D01*
X-0181826D01*
X-0182226Y0235930D01*
X-0182626Y0235530D01*
X-0183026D01*
X-0182626Y0235130D01*
X-0183026Y0234730D01*
X-0182626D01*
X-0182226Y0234330D01*
Y0206771D02*
X-0181826Y0207171D01*
X-0181426D01*
X-0181826Y0207571D01*
X-0181426Y0207971D01*
X-0181826D01*
X-0182226Y0208371D01*
X-0182626Y0207971D01*
X-0183026D01*
X-0182626Y0207571D01*
X-0183026Y0207171D01*
X-0182626D01*
X-0182226Y0206771D01*
X-0173726Y0221752D02*
X-0173326Y0222552D01*
X-0173726Y0223352D01*
X-0172926Y0222952D01*
X-0172126Y0223352D01*
X-0172526Y0222552D01*
X-0172126Y0221752D01*
X-0172926Y0222152D01*
X-0173726Y0221752D01*
Y0141240D02*
X-0173326Y0142040D01*
X-0173726Y0142840D01*
X-0172926Y0142440D01*
X-0172126Y0142840D01*
X-0172526Y0142040D01*
X-0172126Y0141240D01*
X-0172926Y0141640D01*
X-0173726Y0141240D01*
X-0092425Y0188155D02*
Y0187755D01*
X-0091625D01*
Y0188155D01*
X-0091225D01*
Y0188955D01*
X-0091625D01*
Y0189355D01*
X-0092425D01*
Y0188955D01*
X-0092825D01*
Y0188155D01*
X-0092425D01*
X-0113786Y0188970D02*
Y0188570D01*
X-0112986D01*
Y0188970D01*
X-0112586D01*
Y0189770D01*
X-0112986D01*
Y0190170D01*
X-0113786D01*
Y0189770D01*
X-0114186D01*
Y0188970D01*
X-0113786D01*
X-0114573Y0183458D02*
Y0183058D01*
X-0113773D01*
Y0183458D01*
X-0113373D01*
Y0184258D01*
X-0113773D01*
Y0184658D01*
X-0114573D01*
Y0184258D01*
X-0114973D01*
Y0183458D01*
X-0114573D01*
X-0097221Y0108034D02*
Y0107634D01*
X-0096421D01*
Y0108034D01*
X-0096021D01*
Y0108834D01*
X-0096421D01*
Y0109234D01*
X-0097221D01*
Y0108834D01*
X-0097621D01*
Y0108034D01*
X-0097221D01*
X-0112773Y0147800D02*
Y0147400D01*
X-0111973D01*
Y0147800D01*
X-0111573D01*
Y0148600D01*
X-0111973D01*
Y0149000D01*
X-0112773D01*
Y0148600D01*
X-0113173D01*
Y0147800D01*
X-0112773D01*
X-0062576Y0237683D02*
Y0237283D01*
X-0061776D01*
Y0237683D01*
X-0061376D01*
Y0238483D01*
X-0061776D01*
Y0238883D01*
X-0062576D01*
Y0238483D01*
X-0062976D01*
Y0237683D01*
X-0062576D01*
X-0057256Y0237592D02*
Y0237192D01*
X-0056456D01*
Y0237592D01*
X-0056056D01*
Y0238392D01*
X-0056456D01*
Y0238792D01*
X-0057256D01*
Y0238392D01*
X-0057656D01*
Y0237592D01*
X-0057256D01*
X-0151556Y0241182D02*
Y0240782D01*
X-0150756D01*
Y0241182D01*
X-0150356D01*
Y0241982D01*
X-0150756D01*
Y0242382D01*
X-0151556D01*
Y0241982D01*
X-0151955D01*
Y0241182D01*
X-0151556D01*
X-0091345Y0235200D02*
Y0234800D01*
X-0090545D01*
Y0235200D01*
X-0090145D01*
Y0236000D01*
X-0090545D01*
Y0236400D01*
X-0091345D01*
Y0236000D01*
X-0091745D01*
Y0235200D01*
X-0091345D01*
X-0088195Y0229340D02*
Y0228940D01*
X-0087395D01*
Y0229340D01*
X-0086995D01*
Y0230140D01*
X-0087395D01*
Y0230540D01*
X-0088195D01*
Y0230140D01*
X-0088595D01*
Y0229340D01*
X-0088195D01*
X-0070139Y0238356D02*
Y0237956D01*
X-0069339D01*
Y0238356D01*
X-0068939D01*
Y0239156D01*
X-0069339D01*
Y0239556D01*
X-0070139D01*
Y0239156D01*
X-0070539D01*
Y0238356D01*
X-0070139D01*
X-0075291Y0234683D02*
Y0234283D01*
X-0074491D01*
Y0234683D01*
X-0074091D01*
Y0235483D01*
X-0074491D01*
Y0235883D01*
X-0075291D01*
Y0235483D01*
X-0075691D01*
Y0234683D01*
X-0075291D01*
X-0061700Y0216695D02*
Y0216295D01*
X-0060900D01*
Y0216695D01*
X-0060500D01*
Y0217495D01*
X-0060900D01*
Y0217895D01*
X-0061700D01*
Y0217495D01*
X-0062100D01*
Y0216695D01*
X-0061700D01*
X-0054100Y0187300D02*
Y0186900D01*
X-0053300D01*
Y0187300D01*
X-0052900D01*
Y0188100D01*
X-0053300D01*
Y0188500D01*
X-0054100D01*
Y0188100D01*
X-0054500D01*
Y0187300D01*
X-0054100D01*
X-0062300Y0190800D02*
Y0190400D01*
X-0061500D01*
Y0190800D01*
X-0061100D01*
Y0191600D01*
X-0061500D01*
Y0192000D01*
X-0062300D01*
Y0191600D01*
X-0062700D01*
Y0190800D01*
X-0062300D01*
X-0136229Y0236176D02*
Y0235776D01*
X-0135429D01*
Y0236176D01*
X-0135029D01*
Y0236976D01*
X-0135429D01*
Y0237376D01*
X-0136229D01*
Y0236976D01*
X-0136628D01*
Y0236176D01*
X-0136229D01*
X-0127200Y0230000D02*
Y0229600D01*
X-0126400D01*
Y0230000D01*
X-0126000D01*
Y0230800D01*
X-0126400D01*
Y0231200D01*
X-0127200D01*
Y0230800D01*
X-0127600D01*
Y0230000D01*
X-0127200D01*
X-0137900Y0219574D02*
Y0219174D01*
X-0137100D01*
Y0219574D01*
X-0136700D01*
Y0220374D01*
X-0137100D01*
Y0220774D01*
X-0137900D01*
Y0220374D01*
X-0138300D01*
Y0219574D01*
X-0137900D01*
X-0110500Y0213100D02*
Y0212700D01*
X-0109700D01*
Y0213100D01*
X-0109300D01*
Y0213900D01*
X-0109700D01*
Y0214300D01*
X-0110500D01*
Y0213900D01*
X-0110900D01*
Y0213100D01*
X-0110500D01*
X-0130100Y0170300D02*
Y0169900D01*
X-0129300D01*
Y0170300D01*
X-0128900D01*
Y0171100D01*
X-0129300D01*
Y0171500D01*
X-0130100D01*
Y0171100D01*
X-0130500D01*
Y0170300D01*
X-0130100D01*
X-0125613Y0183163D02*
Y0182763D01*
X-0124813D01*
Y0183163D01*
X-0124413D01*
Y0183963D01*
X-0124813D01*
Y0184363D01*
X-0125613D01*
Y0183963D01*
X-0126013D01*
Y0183163D01*
X-0125613D01*
X-0144200Y0178400D02*
Y0178000D01*
X-0143400D01*
Y0178400D01*
X-0143000D01*
Y0179200D01*
X-0143400D01*
Y0179600D01*
X-0144200D01*
Y0179200D01*
X-0144600D01*
Y0178400D01*
X-0144200D01*
X-0137408Y0177749D02*
Y0177349D01*
X-0136608D01*
Y0177749D01*
X-0136208D01*
Y0178549D01*
X-0136608D01*
Y0178949D01*
X-0137408D01*
Y0178549D01*
X-0137808D01*
Y0177749D01*
X-0137408D01*
X-0129000Y0183200D02*
Y0182800D01*
X-0128200D01*
Y0183200D01*
X-0127800D01*
Y0184000D01*
X-0128200D01*
Y0184400D01*
X-0129000D01*
Y0184000D01*
X-0129400D01*
Y0183200D01*
X-0129000D01*
X-0046000Y0221618D02*
Y0221218D01*
X-0045200D01*
Y0221618D01*
X-0044800D01*
Y0222418D01*
X-0045200D01*
Y0222818D01*
X-0046000D01*
Y0222418D01*
X-0046400D01*
Y0221618D01*
X-0046000D01*
Y0216500D02*
Y0216100D01*
X-0045200D01*
Y0216500D01*
X-0044800D01*
Y0217300D01*
X-0045200D01*
Y0217700D01*
X-0046000D01*
Y0217300D01*
X-0046400D01*
Y0216500D01*
X-0046000D01*
X-0160884Y0125300D02*
Y0124900D01*
X-0160084D01*
Y0125300D01*
X-0159684D01*
Y0126100D01*
X-0160084D01*
Y0126500D01*
X-0160884D01*
Y0126100D01*
X-0161284D01*
Y0125300D01*
X-0160884D01*
X-0112257Y0108034D02*
Y0107634D01*
X-0111457D01*
Y0108034D01*
X-0111057D01*
Y0108834D01*
X-0111457D01*
Y0109234D01*
X-0112257D01*
Y0108834D01*
X-0112657D01*
Y0108034D01*
X-0112257D01*
X-0061900Y0010700D02*
Y0010300D01*
X-0061100D01*
Y0010700D01*
X-0060700D01*
Y0011500D01*
X-0061100D01*
Y0011900D01*
X-0061900D01*
Y0011500D01*
X-0062300D01*
Y0010700D01*
X-0061900D01*
X-0128800Y0004300D02*
Y0003900D01*
X-0128000D01*
Y0004300D01*
X-0127600D01*
Y0005100D01*
X-0128000D01*
Y0005500D01*
X-0128800D01*
Y0005100D01*
X-0129200D01*
Y0004300D01*
X-0128800D01*
X-0156159Y0050893D02*
Y0050493D01*
X-0155359D01*
Y0050893D01*
X-0154959D01*
Y0051693D01*
X-0155359D01*
Y0052093D01*
X-0156159D01*
Y0051693D01*
X-0156560D01*
Y0050893D01*
X-0156159D01*
X-0197621Y0004900D02*
Y0004500D01*
X-0196821D01*
Y0004900D01*
X-0196421D01*
Y0005700D01*
X-0196821D01*
Y0006100D01*
X-0197621D01*
Y0005700D01*
X-0198021D01*
Y0004900D01*
X-0197621D01*
X-0193300Y0096500D02*
Y0096100D01*
X-0192500D01*
Y0096500D01*
X-0192100D01*
Y0097300D01*
X-0192500D01*
Y0097700D01*
X-0193300D01*
Y0097300D01*
X-0193700D01*
Y0096500D01*
X-0193300D01*
X-0144316Y0100800D02*
Y0100400D01*
X-0143516D01*
Y0100800D01*
X-0143116D01*
Y0101600D01*
X-0143516D01*
Y0102000D01*
X-0144316D01*
Y0101600D01*
X-0144716D01*
Y0100800D01*
X-0144316D01*
X-0100794Y0092000D02*
Y0091600D01*
X-0099994D01*
Y0092000D01*
X-0099594D01*
Y0092800D01*
X-0099994D01*
Y0093200D01*
X-0100794D01*
Y0092800D01*
X-0101194D01*
Y0092000D01*
X-0100794D01*
X-0077700Y0051700D02*
Y0051300D01*
X-0076900D01*
Y0051700D01*
X-0076500D01*
Y0052500D01*
X-0076900D01*
Y0052900D01*
X-0077700D01*
Y0052500D01*
X-0078100D01*
Y0051700D01*
X-0077700D01*
X-0027600Y0036300D02*
Y0035900D01*
X-0026800D01*
Y0036300D01*
X-0026400D01*
Y0037100D01*
X-0026800D01*
Y0037500D01*
X-0027600D01*
Y0037100D01*
X-0028000D01*
Y0036300D01*
X-0027600D01*
X-0005100Y0008500D02*
Y0008100D01*
X-0004300D01*
Y0008500D01*
X-0003900D01*
Y0009300D01*
X-0004300D01*
Y0009700D01*
X-0005100D01*
Y0009300D01*
X-0005500D01*
Y0008500D01*
X-0005100D01*
X-0043900Y0086900D02*
Y0086500D01*
X-0043100D01*
Y0086900D01*
X-0042700D01*
Y0087700D01*
X-0043100D01*
Y0088100D01*
X-0043900D01*
Y0087700D01*
X-0044300D01*
Y0086900D01*
X-0043900D01*
X-0007000Y0097100D02*
Y0096700D01*
X-0006200D01*
Y0097100D01*
X-0005800D01*
Y0097900D01*
X-0006200D01*
Y0098300D01*
X-0007000D01*
Y0097900D01*
X-0007400D01*
Y0097100D01*
X-0007000D01*
X-0019400Y0117200D02*
Y0116800D01*
X-0018600D01*
Y0117200D01*
X-0018200D01*
Y0118000D01*
X-0018600D01*
Y0118400D01*
X-0019400D01*
Y0118000D01*
X-0019800D01*
Y0117200D01*
X-0019400D01*
X-0026700Y0138200D02*
Y0137800D01*
X-0025900D01*
Y0138200D01*
X-0025500D01*
Y0139000D01*
X-0025900D01*
Y0139400D01*
X-0026700D01*
Y0139000D01*
X-0027100D01*
Y0138200D01*
X-0026700D01*
Y0162500D02*
Y0162100D01*
X-0025900D01*
Y0162500D01*
X-0025500D01*
Y0163300D01*
X-0025900D01*
Y0163700D01*
X-0026700D01*
Y0163300D01*
X-0027100D01*
Y0162500D01*
X-0026700D01*
X-0080096Y0163466D02*
Y0163066D01*
X-0079296D01*
Y0163466D01*
X-0078896D01*
Y0164266D01*
X-0079296D01*
Y0164666D01*
X-0080096D01*
Y0164266D01*
X-0080496D01*
Y0163466D01*
X-0080096D01*
X-0053600Y0163800D02*
Y0163400D01*
X-0052800D01*
Y0163800D01*
X-0052400D01*
Y0164600D01*
X-0052800D01*
Y0165000D01*
X-0053600D01*
Y0164600D01*
X-0054000D01*
Y0163800D01*
X-0053600D01*
X-0198438Y0150300D02*
Y0149900D01*
X-0197638D01*
Y0150300D01*
X-0197238D01*
Y0151100D01*
X-0197638D01*
Y0151500D01*
X-0198438D01*
Y0151100D01*
X-0198838D01*
Y0150300D01*
X-0198438D01*
X-0199300Y0177749D02*
Y0177349D01*
X-0198500D01*
Y0177749D01*
X-0198100D01*
Y0178549D01*
X-0198500D01*
Y0178949D01*
X-0199300D01*
Y0178549D01*
X-0199700D01*
Y0177749D01*
X-0199300D01*
X-0188500Y0187000D02*
Y0186600D01*
X-0187700D01*
Y0187000D01*
X-0187300D01*
Y0187800D01*
X-0187700D01*
Y0188200D01*
X-0188500D01*
Y0187800D01*
X-0188900D01*
Y0187000D01*
X-0188500D01*
X-0179000Y0198500D02*
Y0198100D01*
X-0178200D01*
Y0198500D01*
X-0177800D01*
Y0199300D01*
X-0178200D01*
Y0199700D01*
X-0179000D01*
Y0199300D01*
X-0179400D01*
Y0198500D01*
X-0179000D01*
X-0197700Y0238466D02*
Y0238066D01*
X-0196900D01*
Y0238466D01*
X-0196500D01*
Y0239266D01*
X-0196900D01*
Y0239666D01*
X-0197700D01*
Y0239266D01*
X-0198100D01*
Y0238466D01*
X-0197700D01*
X-0161107Y0229580D02*
Y0229181D01*
X-0160307D01*
Y0229580D01*
X-0159907D01*
Y0230381D01*
X-0160307D01*
Y0230781D01*
X-0161107D01*
Y0230381D01*
X-0161507D01*
Y0229580D01*
X-0161107D01*
X-0141900Y0230893D02*
Y0230493D01*
X-0141100D01*
Y0230893D01*
X-0140700D01*
Y0231693D01*
X-0141100D01*
Y0232093D01*
X-0141900D01*
Y0231693D01*
X-0142300D01*
Y0230893D01*
X-0141900D01*
X-0030774Y0209700D02*
Y0209300D01*
X-0029974D01*
Y0209700D01*
X-0029574D01*
Y0210500D01*
X-0029974D01*
Y0210900D01*
X-0030774D01*
Y0210500D01*
X-0031174D01*
Y0209700D01*
X-0030774D01*
X-0042100Y0212469D02*
Y0212069D01*
X-0041300D01*
Y0212469D01*
X-0040900D01*
Y0213269D01*
X-0041300D01*
Y0213669D01*
X-0042100D01*
Y0213269D01*
X-0042500D01*
Y0212469D01*
X-0042100D01*
X-0018742Y0222881D02*
Y0222481D01*
X-0017942D01*
Y0222881D01*
X-0017542D01*
Y0223681D01*
X-0017942D01*
Y0224081D01*
X-0018742D01*
Y0223681D01*
X-0019142D01*
Y0222881D01*
X-0018742D01*
X-0004838Y0186671D02*
Y0186271D01*
X-0004038D01*
Y0186671D01*
X-0003638D01*
Y0187471D01*
X-0004038D01*
Y0187871D01*
X-0004838D01*
Y0187471D01*
X-0005238D01*
Y0186671D01*
X-0004838D01*
X-0027700Y0171154D02*
Y0170754D01*
X-0026900D01*
Y0171154D01*
X-0026500D01*
Y0171954D01*
X-0026900D01*
Y0172354D01*
X-0027700D01*
Y0171954D01*
X-0028100D01*
Y0171154D01*
X-0027700D01*
X-0054900Y0171500D02*
Y0171100D01*
X-0054100D01*
Y0171500D01*
X-0053700D01*
Y0172300D01*
X-0054100D01*
Y0172700D01*
X-0054900D01*
Y0172300D01*
X-0055300D01*
Y0171500D01*
X-0054900D01*
X-0078700Y0171400D02*
Y0171000D01*
X-0077900D01*
Y0171400D01*
X-0077500D01*
Y0172200D01*
X-0077900D01*
Y0172600D01*
X-0078700D01*
Y0172200D01*
X-0079100D01*
Y0171400D01*
X-0078700D01*
X-0020669Y0187000D02*
Y0186600D01*
X-0019869D01*
Y0187000D01*
X-0019469D01*
Y0187800D01*
X-0019869D01*
Y0188200D01*
X-0020669D01*
Y0187800D01*
X-0021069D01*
Y0187000D01*
X-0020669D01*
X-0038361Y0200300D02*
Y0199900D01*
X-0037561D01*
Y0200300D01*
X-0037161D01*
Y0201100D01*
X-0037561D01*
Y0201500D01*
X-0038361D01*
Y0201100D01*
X-0038761D01*
Y0200300D01*
X-0038361D01*
X-0078200Y0208900D02*
Y0208500D01*
X-0077400D01*
Y0208900D01*
X-0077000D01*
Y0209700D01*
X-0077400D01*
Y0210100D01*
X-0078200D01*
Y0209700D01*
X-0078600D01*
Y0208900D01*
X-0078200D01*
X-0175575Y0239858D02*
Y0239458D01*
X-0174775D01*
Y0239858D01*
X-0174375D01*
Y0240658D01*
X-0174775D01*
Y0241058D01*
X-0175575D01*
Y0240658D01*
X-0175975D01*
Y0239858D01*
X-0175575D01*
X-0122277Y0236356D02*
Y0235956D01*
X-0121477D01*
Y0236356D01*
X-0121077D01*
Y0237156D01*
X-0121477D01*
Y0237556D01*
X-0122277D01*
Y0237156D01*
X-0122677D01*
Y0236356D01*
X-0122277D01*
X-0121800Y0198900D02*
Y0198500D01*
X-0121000D01*
Y0198900D01*
X-0120600D01*
Y0199700D01*
X-0121000D01*
Y0200100D01*
X-0121800D01*
Y0199700D01*
X-0122200D01*
Y0198900D01*
X-0121800D01*
X-0135968Y0191267D02*
Y0190867D01*
X-0135168D01*
Y0191267D01*
X-0134768D01*
Y0192067D01*
X-0135168D01*
Y0192467D01*
X-0135968D01*
Y0192067D01*
X-0136368D01*
Y0191267D01*
X-0135968D01*
X-0134200Y0199207D02*
Y0198807D01*
X-0133400D01*
Y0199207D01*
X-0133000D01*
Y0200007D01*
X-0133400D01*
Y0200407D01*
X-0134200D01*
Y0200007D01*
X-0134600D01*
Y0199207D01*
X-0134200D01*
X-0119800Y0207844D02*
Y0207444D01*
X-0119000D01*
Y0207844D01*
X-0118600D01*
Y0208644D01*
X-0119000D01*
Y0209044D01*
X-0119800D01*
Y0208644D01*
X-0120200D01*
Y0207844D01*
X-0119800D01*
X-0096711Y0147800D02*
Y0147400D01*
X-0095911D01*
Y0147800D01*
X-0095511D01*
Y0148600D01*
X-0095911D01*
Y0149000D01*
X-0096711D01*
Y0148600D01*
X-0097111D01*
Y0147800D01*
X-0096711D01*
X-0099562Y0236792D02*
Y0236392D01*
X-0098761D01*
Y0236792D01*
X-0098361D01*
Y0237592D01*
X-0098761D01*
Y0237992D01*
X-0099562D01*
Y0237592D01*
X-0099962D01*
Y0236792D01*
X-0099562D01*
X-0070758Y0184139D02*
Y0183739D01*
X-0069958D01*
Y0184139D01*
X-0069558D01*
Y0184939D01*
X-0069958D01*
Y0185339D01*
X-0070758D01*
Y0184939D01*
X-0071158D01*
Y0184139D01*
X-0070758D01*
X-0120400Y0223575D02*
Y0223175D01*
X-0119600D01*
Y0223575D01*
X-0119200D01*
Y0224375D01*
X-0119600D01*
Y0224775D01*
X-0120400D01*
Y0224375D01*
X-0120800D01*
Y0223575D01*
X-0120400D01*
X-0134534Y0209900D02*
Y0209500D01*
X-0133734D01*
Y0209900D01*
X-0133334D01*
Y0210700D01*
X-0133734D01*
Y0211100D01*
X-0134534D01*
Y0210700D01*
X-0134934D01*
Y0209900D01*
X-0134534D01*
X-0143300Y0188242D02*
Y0187842D01*
X-0142500D01*
Y0188242D01*
X-0142100D01*
Y0189042D01*
X-0142500D01*
Y0189442D01*
X-0143300D01*
Y0189042D01*
X-0143700D01*
Y0188242D01*
X-0143300D01*
X-0144244Y0212074D02*
Y0211674D01*
X-0143444D01*
Y0212074D01*
X-0143044D01*
Y0212874D01*
X-0143444D01*
Y0213274D01*
X-0144244D01*
Y0212874D01*
X-0144644D01*
Y0212074D01*
X-0144244D01*
X-0136968Y0204500D02*
Y0204100D01*
X-0136168D01*
Y0204500D01*
X-0135768D01*
Y0205300D01*
X-0136168D01*
Y0205700D01*
X-0136968D01*
Y0205300D01*
X-0137368D01*
Y0204500D01*
X-0136968D01*
X-0090500Y0220000D02*
Y0219600D01*
X-0089700D01*
Y0220000D01*
X-0089300D01*
Y0220800D01*
X-0089700D01*
Y0221200D01*
X-0090500D01*
Y0220800D01*
X-0090900D01*
Y0220000D01*
X-0090500D01*
X-0087900Y0216400D02*
Y0216000D01*
X-0087100D01*
Y0216400D01*
X-0086700D01*
Y0217200D01*
X-0087100D01*
Y0217600D01*
X-0087900D01*
Y0217200D01*
X-0088300D01*
Y0216400D01*
X-0087900D01*
X-0096300Y0204400D02*
Y0204000D01*
X-0095500D01*
Y0204400D01*
X-0095100D01*
Y0205200D01*
X-0095500D01*
Y0205600D01*
X-0096300D01*
Y0205200D01*
X-0096700D01*
Y0204400D01*
X-0096300D01*
X-0074809Y0190544D02*
Y0190145D01*
X-0074009D01*
Y0190544D01*
X-0073609D01*
Y0191344D01*
X-0074009D01*
Y0191744D01*
X-0074809D01*
Y0191344D01*
X-0075209D01*
Y0190544D01*
X-0074809D01*
X-0079090Y0191282D02*
Y0190883D01*
X-0078290D01*
Y0191282D01*
X-0077890D01*
Y0192083D01*
X-0078290D01*
Y0192482D01*
X-0079090D01*
Y0192083D01*
X-0079490D01*
Y0191282D01*
X-0079090D01*
X-0136647Y0183852D02*
Y0183452D01*
X-0135847D01*
Y0183852D01*
X-0135447D01*
Y0184652D01*
X-0135847D01*
Y0185052D01*
X-0136647D01*
Y0184652D01*
X-0137047D01*
Y0183852D01*
X-0136647D01*
X-0165459Y0198320D02*
Y0197921D01*
X-0164659D01*
Y0198320D01*
X-0164259D01*
Y0199120D01*
X-0164659D01*
Y0199521D01*
X-0165459D01*
Y0199120D01*
X-0165859D01*
Y0198320D01*
X-0165459D01*
Y0192415D02*
Y0192015D01*
X-0164659D01*
Y0192415D01*
X-0164259D01*
Y0193215D01*
X-0164659D01*
Y0193615D01*
X-0165459D01*
Y0193215D01*
X-0165859D01*
Y0192415D01*
X-0165459D01*
X-0199711Y0214069D02*
Y0213668D01*
X-0198911D01*
Y0214069D01*
X-0198511D01*
Y0214868D01*
X-0198911D01*
Y0215268D01*
X-0199711D01*
Y0214868D01*
X-0200111D01*
Y0214069D01*
X-0199711D01*
Y0219974D02*
Y0219574D01*
X-0198911D01*
Y0219974D01*
X-0198511D01*
Y0220774D01*
X-0198911D01*
Y0221174D01*
X-0199711D01*
Y0220774D01*
X-0200111D01*
Y0219974D01*
X-0199711D01*
Y0198419D02*
Y0198019D01*
X-0198911D01*
Y0198419D01*
X-0198511D01*
Y0199219D01*
X-0198911D01*
Y0199619D01*
X-0199711D01*
Y0199219D01*
X-0200111D01*
Y0198419D01*
X-0199711D01*
Y0204029D02*
Y0203629D01*
X-0198911D01*
Y0204029D01*
X-0198511D01*
Y0204829D01*
X-0198911D01*
Y0205229D01*
X-0199711D01*
Y0204829D01*
X-0200111D01*
Y0204029D01*
X-0199711D01*
X-0199809Y0225781D02*
Y0225381D01*
X-0199009D01*
Y0225781D01*
X-0198609D01*
Y0226581D01*
X-0199009D01*
Y0226981D01*
X-0199809D01*
Y0226581D01*
X-0200209D01*
Y0225781D01*
X-0199809D01*
X-0199711Y0231785D02*
Y0231385D01*
X-0198911D01*
Y0231785D01*
X-0198511D01*
Y0232585D01*
X-0198911D01*
Y0232985D01*
X-0199711D01*
Y0232585D01*
X-0200111D01*
Y0231785D01*
X-0199711D01*
X-0175991Y0153537D02*
Y0153137D01*
X-0175191D01*
Y0153537D01*
X-0174791D01*
Y0154337D01*
X-0175191D01*
Y0154737D01*
X-0175991D01*
Y0154337D01*
X-0176391D01*
Y0153537D01*
X-0175991D01*
X-0185046D02*
Y0153137D01*
X-0184246D01*
Y0153537D01*
X-0183846D01*
Y0154337D01*
X-0184246D01*
Y0154737D01*
X-0185046D01*
Y0154337D01*
X-0185446D01*
Y0153537D01*
X-0185046D01*
X-0175991Y0180266D02*
Y0179866D01*
X-0175191D01*
Y0180266D01*
X-0174791D01*
Y0181066D01*
X-0175191D01*
Y0181466D01*
X-0175991D01*
Y0181066D01*
X-0176391D01*
Y0180266D01*
X-0175991D01*
X-0185046D02*
Y0179866D01*
X-0184246D01*
Y0180266D01*
X-0183846D01*
Y0181066D01*
X-0184246D01*
Y0181466D01*
X-0185046D01*
Y0181066D01*
X-0185446D01*
Y0180266D01*
X-0185046D01*
X-0097463Y0181490D02*
Y0181090D01*
X-0096663D01*
Y0181490D01*
X-0096263D01*
Y0182290D01*
X-0096663D01*
Y0182690D01*
X-0097463D01*
Y0182290D01*
X-0097863D01*
Y0181490D01*
X-0097463D01*
X-0103943Y0188183D02*
Y0187783D01*
X-0103143D01*
Y0188183D01*
X-0102743D01*
Y0188983D01*
X-0103143D01*
Y0189383D01*
X-0103943D01*
Y0188983D01*
X-0104343D01*
Y0188183D01*
X-0103943D01*
X-0097644D02*
Y0187783D01*
X-0096844D01*
Y0188183D01*
X-0096444D01*
Y0188983D01*
X-0096844D01*
Y0189383D01*
X-0097644D01*
Y0188983D01*
X-0098044D01*
Y0188183D01*
X-0097644D01*
X-0097463Y0196057D02*
Y0195657D01*
X-0096663D01*
Y0196057D01*
X-0096263D01*
Y0196857D01*
X-0096663D01*
Y0197257D01*
X-0097463D01*
Y0196857D01*
X-0097863D01*
Y0196057D01*
X-0097463D01*
X-0147644Y0161805D02*
Y0161405D01*
X-0146844D01*
Y0161805D01*
X-0146444D01*
Y0162605D01*
X-0146844D01*
Y0163005D01*
X-0147644D01*
Y0162605D01*
X-0148044D01*
Y0161805D01*
X-0147644D01*
X-0188200Y0224100D02*
Y0223700D01*
X-0187400D01*
Y0224100D01*
X-0187000D01*
Y0224900D01*
X-0187400D01*
Y0225300D01*
X-0188200D01*
Y0224900D01*
X-0188600D01*
Y0224100D01*
X-0188200D01*
X-0014081Y0179162D02*
Y0178762D01*
X-0013281D01*
Y0179162D01*
X-0012881D01*
Y0179962D01*
X-0013281D01*
Y0180362D01*
X-0014081D01*
Y0179962D01*
X-0014481D01*
Y0179162D01*
X-0014081D01*
X-0016542Y0160230D02*
Y0159830D01*
X-0015742D01*
Y0160230D01*
X-0015342D01*
Y0161030D01*
X-0015742D01*
Y0161430D01*
X-0016542D01*
Y0161030D01*
X-0016942D01*
Y0160230D01*
X-0016542D01*
X-0018904Y0162198D02*
Y0161798D01*
X-0018104D01*
Y0162198D01*
X-0017704D01*
Y0162998D01*
X-0018104D01*
Y0163398D01*
X-0018904D01*
Y0162998D01*
X-0019304D01*
Y0162198D01*
X-0018904D01*
X-0021660Y0164954D02*
Y0164554D01*
X-0020860D01*
Y0164954D01*
X-0020460D01*
Y0165754D01*
X-0020860D01*
Y0166154D01*
X-0021660D01*
Y0165754D01*
X-0022060D01*
Y0164954D01*
X-0021660D01*
X-0100849Y0166135D02*
Y0165735D01*
X-0100049D01*
Y0166135D01*
X-0099649D01*
Y0166935D01*
X-0100049D01*
Y0167335D01*
X-0100849D01*
Y0166935D01*
X-0101249D01*
Y0166135D01*
X-0100849D01*
X-0161817Y0196057D02*
Y0195657D01*
X-0161017D01*
Y0196057D01*
X-0160617D01*
Y0196857D01*
X-0161017D01*
Y0197257D01*
X-0161817D01*
Y0196857D01*
X-0162217D01*
Y0196057D01*
X-0161817D01*
X-0107487Y0225584D02*
Y0225184D01*
X-0106687D01*
Y0225584D01*
X-0106287D01*
Y0226384D01*
X-0106687D01*
Y0226784D01*
X-0107487D01*
Y0226384D01*
X-0107887D01*
Y0225584D01*
X-0107487D01*
X-0016542Y0209049D02*
Y0208649D01*
X-0015742D01*
Y0209049D01*
X-0015342D01*
Y0209849D01*
X-0015742D01*
Y0210249D01*
X-0016542D01*
Y0209849D01*
X-0016942D01*
Y0209049D01*
X-0016542D01*
X-0016148Y0201832D02*
Y0201432D01*
X-0015348D01*
Y0201832D01*
X-0014948D01*
Y0202632D01*
X-0015348D01*
Y0203032D01*
X-0016148D01*
Y0202632D01*
X-0016548D01*
Y0201832D01*
X-0016148D01*
X-0027172Y0196873D02*
Y0196473D01*
X-0026372D01*
Y0196873D01*
X-0025972D01*
Y0197673D01*
X-0026372D01*
Y0198073D01*
X-0027172D01*
Y0197673D01*
X-0027572D01*
Y0196873D01*
X-0027172D01*
X-0126384Y0192395D02*
Y0191995D01*
X-0125584D01*
Y0192395D01*
X-0125184D01*
Y0193195D01*
X-0125584D01*
Y0193595D01*
X-0126384D01*
Y0193195D01*
X-0126784D01*
Y0192395D01*
X-0126384D01*
X-0154337Y0202612D02*
Y0202212D01*
X-0153537D01*
Y0202612D01*
X-0153137D01*
Y0203412D01*
X-0153537D01*
Y0203812D01*
X-0154337D01*
Y0203412D01*
X-0154737D01*
Y0202612D01*
X-0154337D01*
X-0150085Y0196057D02*
Y0195657D01*
X-0149285D01*
Y0196057D01*
X-0148885D01*
Y0196857D01*
X-0149285D01*
Y0197257D01*
X-0150085D01*
Y0196857D01*
X-0150485D01*
Y0196057D01*
X-0150085D01*
X-0076778Y0197631D02*
Y0197231D01*
X-0075978D01*
Y0197631D01*
X-0075578D01*
Y0198431D01*
X-0075978D01*
Y0198831D01*
X-0076778D01*
Y0198431D01*
X-0077178D01*
Y0197631D01*
X-0076778D01*
X-0019987Y0179915D02*
Y0179515D01*
X-0019187D01*
Y0179915D01*
X-0018787D01*
Y0180715D01*
X-0019187D01*
Y0181115D01*
X-0019987D01*
Y0180715D01*
X-0020387D01*
Y0179915D01*
X-0019987D01*
X-0016935Y0178340D02*
Y0177939D01*
X-0016135D01*
Y0178340D01*
X-0015735D01*
Y0179139D01*
X-0016135D01*
Y0179540D01*
X-0016935D01*
Y0179139D01*
X-0017335D01*
Y0178340D01*
X-0016935D01*
X-0022053Y0173615D02*
Y0173215D01*
X-0021253D01*
Y0173615D01*
X-0020854D01*
Y0174415D01*
X-0021253D01*
Y0174815D01*
X-0022053D01*
Y0174415D01*
X-0022454D01*
Y0173615D01*
X-0022053D01*
X-0017723D02*
Y0173215D01*
X-0016923D01*
Y0173615D01*
X-0016523D01*
Y0174415D01*
X-0016923D01*
Y0174815D01*
X-0017723D01*
Y0174415D01*
X-0018123D01*
Y0173615D01*
X-0017723D01*
X-0022841Y0179521D02*
Y0179121D01*
X-0022041D01*
Y0179521D01*
X-0021641D01*
Y0180321D01*
X-0022041D01*
Y0180721D01*
X-0022841D01*
Y0180321D01*
X-0023241D01*
Y0179521D01*
X-0022841D01*
X-0082683Y0204987D02*
Y0204587D01*
X-0081884D01*
Y0204987D01*
X-0081484D01*
Y0205787D01*
X-0081884D01*
Y0206187D01*
X-0082683D01*
Y0205787D01*
X-0083083D01*
Y0204987D01*
X-0082683D01*
X-0106699Y0162198D02*
Y0161798D01*
X-0105899D01*
Y0162198D01*
X-0105499D01*
Y0162998D01*
X-0105899D01*
Y0163398D01*
X-0106699D01*
Y0162998D01*
X-0107099D01*
Y0162198D01*
X-0106699D01*
X-0105124Y0165348D02*
Y0164948D01*
X-0104324D01*
Y0165348D01*
X-0103924D01*
Y0166148D01*
X-0104324D01*
Y0166548D01*
X-0105124D01*
Y0166148D01*
X-0105524D01*
Y0165348D01*
X-0105124D01*
X-0110006Y0169132D02*
Y0168732D01*
X-0109206D01*
Y0169132D01*
X-0108806D01*
Y0169932D01*
X-0109206D01*
Y0170332D01*
X-0110006D01*
Y0169932D01*
X-0110406D01*
Y0169132D01*
X-0110006D01*
X-0092105Y0172068D02*
Y0171668D01*
X-0091304D01*
Y0172068D01*
X-0090904D01*
Y0172868D01*
X-0091304D01*
Y0173268D01*
X-0092105D01*
Y0172868D01*
X-0092505D01*
Y0172068D01*
X-0092105D01*
X-0097769Y0171986D02*
Y0171586D01*
X-0096969D01*
Y0171986D01*
X-0096569D01*
Y0172786D01*
X-0096969D01*
Y0173186D01*
X-0097769D01*
Y0172786D01*
X-0098169D01*
Y0171986D01*
X-0097769D01*
X-0113392Y0201175D02*
Y0200775D01*
X-0112592D01*
Y0201175D01*
X-0112192D01*
Y0201975D01*
X-0112592D01*
Y0202375D01*
X-0113392D01*
Y0201975D01*
X-0113792D01*
Y0201175D01*
X-0113392D01*
X-0113546Y0206234D02*
Y0205834D01*
X-0112746D01*
Y0206234D01*
X-0112346D01*
Y0207034D01*
X-0112746D01*
Y0207434D01*
X-0113546D01*
Y0207034D01*
X-0113946D01*
Y0206234D01*
X-0113546D01*
X-0144494Y0184320D02*
Y0183921D01*
X-0143694D01*
Y0184320D01*
X-0143295D01*
Y0185120D01*
X-0143694D01*
Y0185521D01*
X-0144494D01*
Y0185120D01*
X-0144895D01*
Y0184320D01*
X-0144494D01*
X-0139376Y0167580D02*
Y0167180D01*
X-0138576D01*
Y0167580D01*
X-0138176D01*
Y0168380D01*
X-0138576D01*
Y0168780D01*
X-0139376D01*
Y0168380D01*
X-0139776D01*
Y0167580D01*
X-0139376D01*
X-0081108Y0197631D02*
Y0197231D01*
X-0080309D01*
Y0197631D01*
X-0079909D01*
Y0198431D01*
X-0080309D01*
Y0198831D01*
X-0081108D01*
Y0198431D01*
X-0081508D01*
Y0197631D01*
X-0081108D01*
X-0081109Y0193301D02*
Y0192901D01*
X-0080309D01*
Y0193301D01*
X-0079909D01*
Y0194101D01*
X-0080309D01*
Y0194501D01*
X-0081109D01*
Y0194101D01*
X-0081509D01*
Y0193301D01*
X-0081109D01*
D93*
X-0044739Y0226181D02*
G03*
X-0044739Y0226181I-0000800J0000000D01*
G01*
X-0025645D02*
G03*
X-0025645Y0226181I-0000800J0000000D01*
G01*
M02*
