G04*
G04 #@! TF.GenerationSoftware,Altium Limited,Altium Designer,19.1.6 (110)*
G04*
G04 Layer_Color=16711935*
%FSAX25Y25*%
%MOIN*%
G70*
G01*
G75*
%ADD10C,0.00787*%
%ADD17R,0.08071X0.05709*%
%ADD20C,0.06591*%
%ADD21R,0.06591X0.06591*%
%ADD22C,0.05512*%
%ADD23O,0.02657X0.05315*%
%ADD24C,0.05118*%
%ADD25C,0.02560*%
%ADD44R,0.20079X0.20079*%
%ADD60C,0.03591*%
%ADD61R,0.02165X0.05906*%
%ADD62R,0.07677X0.08071*%
%ADD63R,0.02953X0.04528*%
%ADD64R,0.03740X0.02953*%
G04:AMPARAMS|DCode=65|XSize=29.53mil|YSize=31.5mil|CornerRadius=5.91mil|HoleSize=0mil|Usage=FLASHONLY|Rotation=90.000|XOffset=0mil|YOffset=0mil|HoleType=Round|Shape=RoundedRectangle|*
%AMROUNDEDRECTD65*
21,1,0.02953,0.01968,0,0,90.0*
21,1,0.01772,0.03150,0,0,90.0*
1,1,0.01181,0.00984,0.00886*
1,1,0.01181,0.00984,-0.00886*
1,1,0.01181,-0.00984,-0.00886*
1,1,0.01181,-0.00984,0.00886*
%
%ADD65ROUNDEDRECTD65*%
%ADD66C,0.05591*%
%ADD67R,0.02559X0.01575*%
%ADD68R,0.01575X0.02559*%
%ADD69R,0.03347X0.02953*%
%ADD70R,0.03347X0.04528*%
%ADD71R,0.05118X0.02953*%
%ADD72R,0.06102X0.05315*%
%ADD73R,0.08071X0.04528*%
%ADD74R,0.03740X0.04134*%
%ADD75R,0.04134X0.03740*%
%ADD76R,0.10433X0.09252*%
%ADD77R,0.09646X0.09252*%
%ADD78R,0.14370X0.04528*%
%ADD79R,0.13976X0.06496*%
%ADD80R,0.03740X0.03740*%
G04:AMPARAMS|DCode=81|XSize=29.53mil|YSize=31.5mil|CornerRadius=5.91mil|HoleSize=0mil|Usage=FLASHONLY|Rotation=0.000|XOffset=0mil|YOffset=0mil|HoleType=Round|Shape=RoundedRectangle|*
%AMROUNDEDRECTD81*
21,1,0.02953,0.01968,0,0,0.0*
21,1,0.01772,0.03150,0,0,0.0*
1,1,0.01181,0.00886,-0.00984*
1,1,0.01181,-0.00886,-0.00984*
1,1,0.01181,-0.00886,0.00984*
1,1,0.01181,0.00886,0.00984*
%
%ADD81ROUNDEDRECTD81*%
%ADD82R,0.05591X0.06591*%
%ADD83R,0.08591X0.06591*%
G36*
X-0085993Y0199942D02*
X-0085948Y0199931D01*
X-0085905Y0199914D01*
X-0085865Y0199889D01*
X-0085830Y0199859D01*
X-0085800Y0199824D01*
X-0085776Y0199784D01*
X-0085758Y0199741D01*
X-0085747Y0199696D01*
X-0085743Y0199650D01*
Y0179571D01*
X-0085747Y0179525D01*
X-0085758Y0179479D01*
X-0085770Y0179449D01*
X-0085776Y0179436D01*
X-0085800Y0179397D01*
X-0085830Y0179361D01*
X-0087799Y0177393D01*
X-0087834Y0177363D01*
X-0087874Y0177339D01*
X-0087886Y0177333D01*
X-0087916Y0177321D01*
X-0087962Y0177310D01*
X-0088008Y0177306D01*
X-0108087D01*
X-0108133Y0177310D01*
X-0108178Y0177321D01*
X-0108221Y0177339D01*
X-0108261Y0177363D01*
X-0108296Y0177393D01*
X-0108326Y0177428D01*
X-0108351Y0177468D01*
X-0108368Y0177511D01*
X-0108379Y0177556D01*
X-0108383Y0177602D01*
Y0199650D01*
X-0108379Y0199696D01*
X-0108368Y0199741D01*
X-0108351Y0199784D01*
X-0108326Y0199824D01*
X-0108296Y0199859D01*
X-0108261Y0199889D01*
X-0108221Y0199914D01*
X-0108178Y0199931D01*
X-0108133Y0199942D01*
X-0108087Y0199946D01*
X-0086039D01*
X-0085993Y0199942D01*
D02*
G37*
G36*
X-0046182Y0242025D02*
X-0046137Y0242014D01*
X-0046094Y0241996D01*
X-0046054Y0241972D01*
X-0046019Y0241942D01*
X-0045989Y0241906D01*
X-0045964Y0241867D01*
X-0045947Y0241824D01*
X-0045936Y0241779D01*
X-0045932Y0241732D01*
Y0234252D01*
X-0045936Y0234206D01*
X-0045947Y0234160D01*
X-0045964Y0234118D01*
X-0045989Y0234078D01*
X-0046019Y0234043D01*
X-0046054Y0234012D01*
X-0046094Y0233988D01*
X-0046137Y0233970D01*
X-0046182Y0233959D01*
X-0046228Y0233956D01*
X-0052919D01*
X-0052931Y0233957D01*
X-0052942D01*
X-0052954Y0233959D01*
X-0052965Y0233959D01*
X-0052977Y0233962D01*
X-0052988Y0233964D01*
X-0052999Y0233967D01*
X-0053011Y0233970D01*
X-0053021Y0233975D01*
X-0053032Y0233978D01*
X-0053756Y0234278D01*
X-0053766Y0234283D01*
X-0053777Y0234288D01*
X-0053787Y0234294D01*
X-0053797Y0234299D01*
X-0053807Y0234306D01*
X-0053817Y0234312D01*
X-0053826Y0234320D01*
X-0053835Y0234326D01*
X-0053843Y0234335D01*
X-0053852Y0234342D01*
X-0054406Y0234896D01*
X-0054413Y0234905D01*
X-0054422Y0234913D01*
X-0054428Y0234922D01*
X-0054436Y0234931D01*
X-0054442Y0234941D01*
X-0054449Y0234951D01*
X-0054454Y0234961D01*
X-0054460Y0234971D01*
X-0054465Y0234982D01*
X-0054470Y0234992D01*
X-0054770Y0235716D01*
X-0054773Y0235727D01*
X-0054778Y0235737D01*
X-0054781Y0235749D01*
X-0054784Y0235760D01*
X-0054786Y0235771D01*
X-0054789Y0235783D01*
X-0054790Y0235794D01*
X-0054791Y0235806D01*
Y0235817D01*
X-0054792Y0235829D01*
Y0236221D01*
Y0239764D01*
Y0240155D01*
X-0054791Y0240167D01*
Y0240179D01*
X-0054790Y0240190D01*
X-0054789Y0240202D01*
X-0054786Y0240213D01*
X-0054784Y0240225D01*
X-0054781Y0240235D01*
X-0054778Y0240247D01*
X-0054773Y0240258D01*
X-0054770Y0240269D01*
X-0054470Y0240992D01*
X-0054465Y0241002D01*
X-0054460Y0241013D01*
X-0054454Y0241023D01*
X-0054449Y0241034D01*
X-0054442Y0241043D01*
X-0054436Y0241053D01*
X-0054428Y0241062D01*
X-0054422Y0241071D01*
X-0054413Y0241079D01*
X-0054406Y0241088D01*
X-0053852Y0241642D01*
X-0053843Y0241650D01*
X-0053835Y0241658D01*
X-0053826Y0241665D01*
X-0053817Y0241672D01*
X-0053807Y0241678D01*
X-0053797Y0241685D01*
X-0053787Y0241690D01*
X-0053777Y0241697D01*
X-0053766Y0241701D01*
X-0053756Y0241706D01*
X-0053032Y0242006D01*
X-0053021Y0242009D01*
X-0053011Y0242014D01*
X-0052999Y0242017D01*
X-0052988Y0242020D01*
X-0052977Y0242022D01*
X-0052965Y0242025D01*
X-0052954Y0242026D01*
X-0052942Y0242028D01*
X-0052931D01*
X-0052919Y0242028D01*
X-0046228D01*
X-0046182Y0242025D01*
D02*
G37*
G36*
X-0019053Y0242028D02*
X-0019042D01*
X-0019030Y0242026D01*
X-0019019Y0242025D01*
X-0019007Y0242022D01*
X-0018996Y0242020D01*
X-0018985Y0242017D01*
X-0018974Y0242014D01*
X-0018963Y0242009D01*
X-0018952Y0242006D01*
X-0018228Y0241706D01*
X-0018218Y0241701D01*
X-0018207Y0241697D01*
X-0018197Y0241690D01*
X-0018187Y0241685D01*
X-0018178Y0241678D01*
X-0018168Y0241672D01*
X-0018159Y0241665D01*
X-0018149Y0241658D01*
X-0018141Y0241650D01*
X-0018132Y0241642D01*
X-0017578Y0241088D01*
X-0017571Y0241079D01*
X-0017563Y0241071D01*
X-0017556Y0241062D01*
X-0017548Y0241053D01*
X-0017542Y0241043D01*
X-0017535Y0241034D01*
X-0017530Y0241023D01*
X-0017524Y0241013D01*
X-0017519Y0241002D01*
X-0017514Y0240992D01*
X-0017214Y0240269D01*
X-0017211Y0240258D01*
X-0017207Y0240247D01*
X-0017204Y0240235D01*
X-0017200Y0240225D01*
X-0017198Y0240213D01*
X-0017196Y0240202D01*
X-0017195Y0240190D01*
X-0017193Y0240179D01*
Y0240167D01*
X-0017192Y0240155D01*
Y0239764D01*
Y0236221D01*
Y0235829D01*
X-0017193Y0235817D01*
Y0235806D01*
X-0017195Y0235794D01*
X-0017196Y0235783D01*
X-0017198Y0235771D01*
X-0017200Y0235760D01*
X-0017204Y0235749D01*
X-0017207Y0235737D01*
X-0017211Y0235727D01*
X-0017214Y0235716D01*
X-0017514Y0234992D01*
X-0017519Y0234982D01*
X-0017524Y0234971D01*
X-0017530Y0234961D01*
X-0017535Y0234951D01*
X-0017542Y0234941D01*
X-0017548Y0234931D01*
X-0017556Y0234922D01*
X-0017563Y0234913D01*
X-0017571Y0234905D01*
X-0017578Y0234896D01*
X-0018132Y0234342D01*
X-0018141Y0234335D01*
X-0018149Y0234326D01*
X-0018159Y0234320D01*
X-0018168Y0234312D01*
X-0018178Y0234306D01*
X-0018187Y0234299D01*
X-0018197Y0234294D01*
X-0018207Y0234288D01*
X-0018218Y0234283D01*
X-0018228Y0234278D01*
X-0018952Y0233978D01*
X-0018963Y0233975D01*
X-0018974Y0233970D01*
X-0018985Y0233967D01*
X-0018996Y0233964D01*
X-0019007Y0233962D01*
X-0019019Y0233959D01*
X-0019030Y0233959D01*
X-0019042Y0233957D01*
X-0019054D01*
X-0019065Y0233956D01*
X-0025756D01*
X-0025802Y0233959D01*
X-0025847Y0233970D01*
X-0025890Y0233988D01*
X-0025930Y0234012D01*
X-0025965Y0234043D01*
X-0025995Y0234078D01*
X-0026020Y0234118D01*
X-0026038Y0234160D01*
X-0026048Y0234206D01*
X-0026052Y0234252D01*
Y0241732D01*
X-0026048Y0241779D01*
X-0026038Y0241824D01*
X-0026020Y0241867D01*
X-0025995Y0241906D01*
X-0025965Y0241942D01*
X-0025930Y0241972D01*
X-0025890Y0241996D01*
X-0025847Y0242014D01*
X-0025802Y0242025D01*
X-0025756Y0242028D01*
X-0019065D01*
X-0019053Y0242028D01*
D02*
G37*
D10*
X-0000000Y0236221D02*
G03*
X-0007874Y0244094I-0007874J0000000D01*
G01*
X-0007874Y0000000D02*
G03*
X0000000Y0007874I0000000J0007874D01*
G01*
X-0195276Y0244094D02*
G03*
X-0203150Y0236221I0000000J-0007874D01*
G01*
Y0007874D02*
G03*
X-0195276Y0000000I0007874J0000000D01*
G01*
Y0244094D02*
X-0007874D01*
X-0195276Y0000000D02*
X-0007874D01*
X0000000Y0007874D02*
Y0236221D01*
X-0203150Y0007874D02*
Y0236221D01*
X-0000000D02*
X0000000D01*
X-0009843Y0244094D02*
X-0007874Y0244094D01*
X-0177165D02*
X-0177165Y0244094D01*
D17*
X-0020472Y0214864D02*
D03*
Y0197147D02*
D03*
X-0051771Y0214864D02*
D03*
Y0197147D02*
D03*
D20*
X-0010000Y0236634D02*
D03*
Y0206634D02*
D03*
Y0216634D02*
D03*
Y0226634D02*
D03*
Y0166634D02*
D03*
Y0156634D02*
D03*
Y0146634D02*
D03*
Y0136634D02*
D03*
Y0126634D02*
D03*
Y0176634D02*
D03*
D21*
Y0196634D02*
D03*
Y0116634D02*
D03*
D22*
X-0045539Y0226181D02*
D03*
X-0026445D02*
D03*
D23*
X-0049821Y0237992D02*
D03*
X-0022163D02*
D03*
D24*
X-0182226Y0235130D02*
D03*
Y0207571D02*
D03*
D25*
X-0172926Y0222552D02*
D03*
Y0142040D02*
D03*
D44*
X-0097063Y0188626D02*
D03*
D60*
X-0003500Y0236634D02*
G03*
X-0003500Y0236634I-0001500J0000000D01*
G01*
Y0226634D02*
G03*
X-0003500Y0226634I-0001500J0000000D01*
G01*
Y0216634D02*
G03*
X-0003500Y0216634I-0001500J0000000D01*
G01*
Y0206634D02*
G03*
X-0003500Y0206634I-0001500J0000000D01*
G01*
Y0176634D02*
G03*
X-0003500Y0176634I-0001500J0000000D01*
G01*
Y0166634D02*
G03*
X-0003500Y0166634I-0001500J0000000D01*
G01*
Y0146634D02*
G03*
X-0003500Y0146634I-0001500J0000000D01*
G01*
Y0136634D02*
G03*
X-0003500Y0136634I-0001500J0000000D01*
G01*
Y0126634D02*
G03*
X-0003500Y0126634I-0001500J0000000D01*
G01*
Y0156634D02*
G03*
X-0003500Y0156634I-0001500J0000000D01*
G01*
D61*
X-0030874Y0227461D02*
D03*
X-0033433D02*
D03*
X-0035992D02*
D03*
X-0038551D02*
D03*
X-0041110D02*
D03*
D62*
X-0031465Y0237992D02*
D03*
X-0040520D02*
D03*
D63*
X-0074900Y0240724D02*
D03*
X-0078640Y0231276D02*
D03*
X-0071160D02*
D03*
D64*
X-0123425Y0168110D02*
D03*
X-0133268D02*
D03*
Y0160236D02*
D03*
X-0123425D02*
D03*
X-0055693Y0224926D02*
D03*
X-0065535D02*
D03*
X-0166042Y0209348D02*
D03*
Y0203836D02*
D03*
D65*
X-0096457Y0216417D02*
D03*
X-0100394D02*
D03*
X-0127953Y0180709D02*
D03*
X-0124016D02*
D03*
X-0116142D02*
D03*
X-0120079D02*
D03*
X-0127953Y0187008D02*
D03*
X-0124016D02*
D03*
X-0116142D02*
D03*
X-0120079D02*
D03*
X-0106713Y0216419D02*
D03*
X-0110650D02*
D03*
X-0102969Y0169532D02*
D03*
X-0106905D02*
D03*
X-0086953Y0169531D02*
D03*
X-0090890D02*
D03*
X-0098890Y0169531D02*
D03*
X-0094953D02*
D03*
X-0196464Y0209791D02*
D03*
X-0200401D02*
D03*
X-0161078Y0214228D02*
D03*
X-0165015D02*
D03*
X-0089173Y0207083D02*
D03*
X-0085236D02*
D03*
X-0100394Y0210476D02*
D03*
X-0096457D02*
D03*
X-0110630D02*
D03*
X-0106693D02*
D03*
D66*
X-0198819Y0187008D02*
D03*
D67*
X-0083776Y0177799D02*
D03*
Y0179768D02*
D03*
Y0181736D02*
D03*
Y0183705D02*
D03*
Y0185673D02*
D03*
Y0187642D02*
D03*
Y0189610D02*
D03*
Y0191579D02*
D03*
Y0193547D02*
D03*
Y0195516D02*
D03*
Y0197484D02*
D03*
Y0199453D02*
D03*
X-0110350D02*
D03*
Y0197484D02*
D03*
Y0195516D02*
D03*
Y0193547D02*
D03*
Y0191579D02*
D03*
Y0189610D02*
D03*
Y0187642D02*
D03*
Y0185673D02*
D03*
Y0183705D02*
D03*
Y0181736D02*
D03*
Y0179768D02*
D03*
Y0177799D02*
D03*
D68*
X-0086236Y0201913D02*
D03*
X-0088205D02*
D03*
X-0090173D02*
D03*
X-0092142D02*
D03*
X-0094110D02*
D03*
X-0096079D02*
D03*
X-0098047D02*
D03*
X-0100016D02*
D03*
X-0101984D02*
D03*
X-0103953D02*
D03*
X-0105921D02*
D03*
X-0107890D02*
D03*
Y0175339D02*
D03*
X-0105921D02*
D03*
X-0103953D02*
D03*
X-0101984D02*
D03*
X-0100016D02*
D03*
X-0098047D02*
D03*
X-0096079D02*
D03*
X-0094110D02*
D03*
X-0092142D02*
D03*
X-0090173D02*
D03*
X-0088205D02*
D03*
X-0086236D02*
D03*
D69*
X-0064957Y0231073D02*
D03*
Y0238553D02*
D03*
X-0057083Y0231073D02*
D03*
X-0155841Y0213071D02*
D03*
X-0147967D02*
D03*
Y0205591D02*
D03*
D70*
X-0057083Y0237766D02*
D03*
X-0155841Y0206378D02*
D03*
D71*
X-0111780Y0222822D02*
D03*
Y0230302D02*
D03*
X-0101937Y0222822D02*
D03*
Y0230302D02*
D03*
Y0226562D02*
D03*
D72*
X-0087055Y0164366D02*
D03*
Y0157673D02*
D03*
X-0095717Y0164366D02*
D03*
Y0157673D02*
D03*
D73*
X-0085338Y0232283D02*
D03*
Y0220473D02*
D03*
D74*
X-0144069Y0174240D02*
D03*
X-0147809Y0182114D02*
D03*
X-0140329D02*
D03*
X-0122165Y0192657D02*
D03*
X-0115866D02*
D03*
X-0102929Y0236193D02*
D03*
X-0109228D02*
D03*
D75*
X-0095575Y0228740D02*
D03*
Y0235039D02*
D03*
D76*
X-0168644Y0195760D02*
D03*
X-0195809Y0201665D02*
D03*
D77*
X-0196203Y0217414D02*
D03*
Y0229225D02*
D03*
D78*
X-0157441Y0171228D02*
D03*
Y0163354D02*
D03*
D79*
X-0180078Y0180480D02*
D03*
Y0154102D02*
D03*
D80*
X-0147424Y0239090D02*
D03*
Y0232594D02*
D03*
D81*
X-0147539Y0223455D02*
D03*
Y0227392D02*
D03*
X-0155142Y0186673D02*
D03*
Y0190610D02*
D03*
X-0149685Y0190723D02*
D03*
Y0186786D02*
D03*
X-0115732Y0197204D02*
D03*
Y0201141D02*
D03*
X-0143992Y0164043D02*
D03*
Y0167980D02*
D03*
X-0160671Y0209324D02*
D03*
Y0205387D02*
D03*
X-0078740Y0188555D02*
D03*
Y0184618D02*
D03*
X-0078740Y0180555D02*
D03*
Y0176618D02*
D03*
D82*
X-0007500Y0236634D02*
D03*
Y0226634D02*
D03*
Y0216634D02*
D03*
Y0206634D02*
D03*
Y0176634D02*
D03*
Y0166634D02*
D03*
Y0156634D02*
D03*
Y0146634D02*
D03*
Y0136634D02*
D03*
Y0126634D02*
D03*
D83*
X-0006000Y0196634D02*
D03*
Y0116634D02*
D03*
M02*
