G04*
G04 #@! TF.GenerationSoftware,Altium Limited,Altium Designer,19.1.6 (110)*
G04*
G04 Layer_Color=8421504*
%FSAX25Y25*%
%MOIN*%
G70*
G01*
G75*
%ADD10C,0.00787*%
%ADD12R,0.09843X0.01969*%
%ADD13R,0.07480X0.05118*%
G04:AMPARAMS|DCode=14|XSize=74.8mil|YSize=51.18mil|CornerRadius=0mil|HoleSize=0mil|Usage=FLASHONLY|Rotation=45.000|XOffset=0mil|YOffset=0mil|HoleType=Round|Shape=Rectangle|*
%AMROTATEDRECTD14*
4,1,4,-0.00835,-0.04454,-0.04454,-0.00835,0.00835,0.04454,0.04454,0.00835,-0.00835,-0.04454,0.0*
%
%ADD14ROTATEDRECTD14*%

G04:AMPARAMS|DCode=15|XSize=74.8mil|YSize=51.18mil|CornerRadius=0mil|HoleSize=0mil|Usage=FLASHONLY|Rotation=315.000|XOffset=0mil|YOffset=0mil|HoleType=Round|Shape=Rectangle|*
%AMROTATEDRECTD15*
4,1,4,-0.04454,0.00835,-0.00835,0.04454,0.04454,-0.00835,0.00835,-0.04454,-0.04454,0.00835,0.0*
%
%ADD15ROTATEDRECTD15*%

D10*
X-0000000Y0236221D02*
G03*
X-0007874Y0244094I-0007874J0000000D01*
G01*
X-0007874Y0000000D02*
G03*
X0000000Y0007874I0000000J0007874D01*
G01*
X-0195276Y0244094D02*
G03*
X-0203150Y0236221I0000000J-0007874D01*
G01*
Y0007874D02*
G03*
X-0195276Y0000000I0007874J0000000D01*
G01*
Y0244094D02*
X-0007874D01*
X-0195276Y0000000D02*
X-0007874D01*
X0000000Y0007874D02*
Y0236221D01*
X-0203150Y0007874D02*
Y0236221D01*
X-0000000D02*
X0000000D01*
X-0009843Y0244094D02*
X-0007874Y0244094D01*
X-0177165D02*
X-0177165Y0244094D01*
D12*
X-0155209Y0180032D02*
D03*
Y0176882D02*
D03*
Y0183182D02*
D03*
Y0170583D02*
D03*
Y0167434D02*
D03*
Y0173733D02*
D03*
Y0189481D02*
D03*
Y0186331D02*
D03*
Y0192630D02*
D03*
Y0154835D02*
D03*
Y0161134D02*
D03*
Y0157985D02*
D03*
Y0164284D02*
D03*
Y0151686D02*
D03*
D13*
X-0067126Y0082677D02*
D03*
Y0100394D02*
D03*
X-0098425Y0082677D02*
D03*
Y0100394D02*
D03*
X-0041437Y0020669D02*
D03*
Y0038386D02*
D03*
X-0072736Y0020669D02*
D03*
Y0038386D02*
D03*
X-0006004Y0056102D02*
D03*
Y0073819D02*
D03*
X-0037303Y0056102D02*
D03*
Y0073819D02*
D03*
D14*
X-0138182Y0032755D02*
D03*
X-0150710Y0045282D02*
D03*
X-0160314Y0010623D02*
D03*
X-0172842Y0023151D02*
D03*
X-0138182Y0079212D02*
D03*
X-0150710Y0091739D02*
D03*
X-0160314Y0057080D02*
D03*
X-0172842Y0069607D02*
D03*
D15*
X-0127481Y0033851D02*
D03*
X-0114954Y0046379D02*
D03*
X-0149613Y0055983D02*
D03*
X-0137086Y0068511D02*
D03*
X-0173938Y0033851D02*
D03*
X-0161410Y0046379D02*
D03*
X-0196070Y0055983D02*
D03*
X-0183542Y0068511D02*
D03*
M02*
