G04*
G04 #@! TF.GenerationSoftware,Altium Limited,Altium Designer,19.1.6 (110)*
G04*
G04 Layer_Color=32768*
%FSAX25Y25*%
%MOIN*%
G70*
G01*
G75*
%ADD10C,0.00787*%
D10*
X-0000000Y0236221D02*
G03*
X-0007874Y0244094I-0007874J0000000D01*
G01*
X-0007874Y0000000D02*
G03*
X0000000Y0007874I0000000J0007874D01*
G01*
X-0195276Y0244094D02*
G03*
X-0203150Y0236221I0000000J-0007874D01*
G01*
Y0007874D02*
G03*
X-0195276Y0000000I0007874J0000000D01*
G01*
Y0244094D02*
X-0007874D01*
X-0195276Y0000000D02*
X-0007874D01*
X0000000Y0007874D02*
Y0236221D01*
X-0203150Y0007874D02*
Y0236221D01*
X-0000000D02*
X0000000D01*
X-0009843Y0244094D02*
X-0007874Y0244094D01*
X-0177165D02*
X-0177165Y0244094D01*
X-0000000Y0236221D02*
G03*
X-0007874Y0244094I-0007874J0000000D01*
G01*
X-0007874Y0000000D02*
G03*
X0000000Y0007874I0000000J0007874D01*
G01*
X-0195276Y0244094D02*
G03*
X-0203150Y0236221I0000000J-0007874D01*
G01*
Y0007874D02*
G03*
X-0195276Y0000000I0007874J0000000D01*
G01*
Y0244094D02*
X-0007874D01*
X-0195276Y0000000D02*
X-0007874D01*
X0000000Y0007874D02*
Y0236221D01*
X-0203150Y0007874D02*
Y0236221D01*
X-0000000D02*
X0000000D01*
X-0009843Y0244094D02*
X-0007874Y0244094D01*
X-0177165D02*
X-0177165Y0244094D01*
M02*
