G04*
G04 #@! TF.GenerationSoftware,Altium Limited,Altium Designer,19.1.6 (110)*
G04*
G04 Layer_Color=128*
%FSAX25Y25*%
%MOIN*%
G70*
G01*
G75*
%ADD10C,0.00787*%
%ADD13R,0.07480X0.05118*%
%ADD36R,0.01575X0.05315*%
%ADD37R,0.07087X0.07480*%
%ADD38R,0.02362X0.03937*%
%ADD39R,0.03150X0.02362*%
G04:AMPARAMS|DCode=40|XSize=23.62mil|YSize=25.59mil|CornerRadius=2.95mil|HoleSize=0mil|Usage=FLASHONLY|Rotation=90.000|XOffset=0mil|YOffset=0mil|HoleType=Round|Shape=RoundedRectangle|*
%AMROUNDEDRECTD40*
21,1,0.02362,0.01968,0,0,90.0*
21,1,0.01772,0.02559,0,0,90.0*
1,1,0.00591,0.00984,0.00886*
1,1,0.00591,0.00984,-0.00886*
1,1,0.00591,-0.00984,-0.00886*
1,1,0.00591,-0.00984,0.00886*
%
%ADD40ROUNDEDRECTD40*%
%ADD42R,0.02165X0.01181*%
%ADD43R,0.01181X0.02165*%
%ADD45R,0.02756X0.02362*%
%ADD46R,0.02756X0.03937*%
%ADD47R,0.04528X0.02362*%
%ADD48R,0.05512X0.04724*%
%ADD49R,0.07480X0.03937*%
%ADD50R,0.03150X0.03543*%
%ADD51R,0.03543X0.03150*%
%ADD52R,0.09843X0.08661*%
%ADD53R,0.09055X0.08661*%
%ADD54R,0.13780X0.03937*%
%ADD55R,0.13386X0.05906*%
G04:AMPARAMS|DCode=57|XSize=23.62mil|YSize=25.59mil|CornerRadius=2.95mil|HoleSize=0mil|Usage=FLASHONLY|Rotation=0.000|XOffset=0mil|YOffset=0mil|HoleType=Round|Shape=RoundedRectangle|*
%AMROUNDEDRECTD57*
21,1,0.02362,0.01968,0,0,0.0*
21,1,0.01772,0.02559,0,0,0.0*
1,1,0.00591,0.00886,-0.00984*
1,1,0.00591,-0.00886,-0.00984*
1,1,0.00591,-0.00886,0.00984*
1,1,0.00591,0.00886,0.00984*
%
%ADD57ROUNDEDRECTD57*%
%ADD84R,0.02362X0.01575*%
%ADD85R,0.02756X0.02756*%
G36*
X-0018342Y0241433D02*
X-0017788Y0240879D01*
X-0017488Y0240155D01*
Y0239764D01*
Y0236221D01*
Y0235829D01*
X-0017788Y0235105D01*
X-0018342Y0234552D01*
X-0019065Y0234252D01*
X-0025756D01*
Y0241732D01*
X-0019065D01*
X-0018342Y0241433D01*
D02*
G37*
G36*
X-0046228Y0234252D02*
X-0052919D01*
X-0053643Y0234552D01*
X-0054196Y0235105D01*
X-0054496Y0235829D01*
Y0236221D01*
Y0239764D01*
Y0240155D01*
X-0054196Y0240879D01*
X-0053643Y0241433D01*
X-0052919Y0241732D01*
X-0046228D01*
Y0234252D01*
D02*
G37*
G36*
X-0025274Y0228327D02*
X-0024693Y0227746D01*
X-0024378Y0226986D01*
Y0226575D01*
Y0225787D01*
Y0225376D01*
X-0024693Y0224617D01*
X-0025274Y0224035D01*
X-0026034Y0223721D01*
X-0026856D01*
X-0027616Y0224035D01*
X-0028197Y0224617D01*
X-0028512Y0225376D01*
Y0225787D01*
Y0226575D01*
Y0226986D01*
X-0028197Y0227746D01*
X-0027616Y0228327D01*
X-0026856Y0228642D01*
X-0026034D01*
X-0025274Y0228327D01*
D02*
G37*
G36*
X-0044368D02*
X-0043787Y0227746D01*
X-0043472Y0226986D01*
Y0226575D01*
Y0225787D01*
Y0225376D01*
X-0043787Y0224617D01*
X-0044368Y0224035D01*
X-0045128Y0223721D01*
X-0045950D01*
X-0046710Y0224035D01*
X-0047292Y0224617D01*
X-0047606Y0225376D01*
Y0225787D01*
Y0226575D01*
Y0226986D01*
X-0047292Y0227746D01*
X-0046710Y0228327D01*
X-0045950Y0228642D01*
X-0045128D01*
X-0044368Y0228327D01*
D02*
G37*
G36*
X-0088008Y0190201D02*
X-0095488D01*
Y0197681D01*
X-0088008D01*
Y0190201D01*
D02*
G37*
G36*
X-0098638D02*
X-0106118D01*
Y0197681D01*
X-0098638D01*
Y0190201D01*
D02*
G37*
G36*
X-0088008Y0179571D02*
X-0095488D01*
Y0187051D01*
X-0088008D01*
Y0179571D01*
D02*
G37*
G36*
X-0098638D02*
X-0106118D01*
Y0187051D01*
X-0098638D01*
Y0179571D01*
D02*
G37*
D10*
X-0000000Y0236221D02*
G03*
X-0007874Y0244094I-0007874J0000000D01*
G01*
X-0007874Y0000000D02*
G03*
X0000000Y0007874I0000000J0007874D01*
G01*
X-0195276Y0244094D02*
G03*
X-0203150Y0236221I0000000J-0007874D01*
G01*
Y0007874D02*
G03*
X-0195276Y0000000I0007874J0000000D01*
G01*
Y0244094D02*
X-0007874D01*
X-0195276Y0000000D02*
X-0007874D01*
X0000000Y0007874D02*
Y0236221D01*
X-0203150Y0007874D02*
Y0236221D01*
X-0000000D02*
X0000000D01*
X-0009843Y0244094D02*
X-0007874Y0244094D01*
X-0177165D02*
X-0177165Y0244094D01*
D13*
X-0020472Y0214864D02*
D03*
Y0197147D02*
D03*
X-0051771Y0214864D02*
D03*
Y0197147D02*
D03*
D36*
X-0030874Y0227461D02*
D03*
X-0033433D02*
D03*
X-0035992D02*
D03*
X-0038551D02*
D03*
X-0041110D02*
D03*
D37*
X-0031465Y0237992D02*
D03*
X-0040520D02*
D03*
D38*
X-0074900Y0240724D02*
D03*
X-0078640Y0231276D02*
D03*
X-0071160D02*
D03*
D39*
X-0123425Y0168110D02*
D03*
X-0133268D02*
D03*
Y0160236D02*
D03*
X-0123425D02*
D03*
X-0055693Y0224926D02*
D03*
X-0065535D02*
D03*
D40*
X-0096457Y0216417D02*
D03*
X-0100394D02*
D03*
X-0127953Y0180709D02*
D03*
X-0124016D02*
D03*
X-0116142D02*
D03*
X-0120079D02*
D03*
X-0127953Y0187008D02*
D03*
X-0124016D02*
D03*
X-0116142D02*
D03*
X-0120079D02*
D03*
X-0106713Y0216419D02*
D03*
X-0110650D02*
D03*
X-0102969Y0169532D02*
D03*
X-0106905D02*
D03*
X-0086953Y0169531D02*
D03*
X-0090890D02*
D03*
X-0098890Y0169531D02*
D03*
X-0094953D02*
D03*
X-0196464Y0209791D02*
D03*
X-0200401D02*
D03*
X-0161078Y0214228D02*
D03*
X-0165015D02*
D03*
X-0089173Y0207083D02*
D03*
X-0085236D02*
D03*
X-0100394Y0210476D02*
D03*
X-0096457D02*
D03*
X-0110630D02*
D03*
X-0106693D02*
D03*
D42*
X-0083776Y0177799D02*
D03*
Y0179768D02*
D03*
Y0181736D02*
D03*
Y0183705D02*
D03*
Y0185673D02*
D03*
Y0187642D02*
D03*
Y0189610D02*
D03*
Y0191579D02*
D03*
Y0193547D02*
D03*
Y0195516D02*
D03*
Y0197484D02*
D03*
Y0199453D02*
D03*
X-0110350D02*
D03*
Y0197484D02*
D03*
Y0195516D02*
D03*
Y0193547D02*
D03*
Y0191579D02*
D03*
Y0189610D02*
D03*
Y0187642D02*
D03*
Y0185673D02*
D03*
Y0183705D02*
D03*
Y0181736D02*
D03*
Y0179768D02*
D03*
Y0177799D02*
D03*
D43*
X-0086236Y0201913D02*
D03*
X-0088205D02*
D03*
X-0090173D02*
D03*
X-0092142D02*
D03*
X-0094110D02*
D03*
X-0096079D02*
D03*
X-0098047D02*
D03*
X-0100016D02*
D03*
X-0101984D02*
D03*
X-0103953D02*
D03*
X-0105921D02*
D03*
X-0107890D02*
D03*
Y0175339D02*
D03*
X-0105921D02*
D03*
X-0103953D02*
D03*
X-0101984D02*
D03*
X-0100016D02*
D03*
X-0098047D02*
D03*
X-0096079D02*
D03*
X-0094110D02*
D03*
X-0092142D02*
D03*
X-0090173D02*
D03*
X-0088205D02*
D03*
X-0086236D02*
D03*
D45*
X-0064957Y0231073D02*
D03*
Y0238553D02*
D03*
X-0057083Y0231073D02*
D03*
X-0155841Y0213071D02*
D03*
X-0147967D02*
D03*
Y0205591D02*
D03*
D46*
X-0057083Y0237766D02*
D03*
X-0155841Y0206378D02*
D03*
D47*
X-0111780Y0222822D02*
D03*
Y0230302D02*
D03*
X-0101937Y0222822D02*
D03*
Y0230302D02*
D03*
Y0226562D02*
D03*
D48*
X-0087055Y0164366D02*
D03*
Y0157673D02*
D03*
X-0095717Y0164366D02*
D03*
Y0157673D02*
D03*
D49*
X-0085338Y0232283D02*
D03*
Y0220473D02*
D03*
D50*
X-0144069Y0174240D02*
D03*
X-0147809Y0182114D02*
D03*
X-0140329D02*
D03*
X-0122165Y0192657D02*
D03*
X-0115866D02*
D03*
X-0102929Y0236193D02*
D03*
X-0109228D02*
D03*
D51*
X-0095575Y0228740D02*
D03*
Y0235039D02*
D03*
D52*
X-0168644Y0195760D02*
D03*
X-0195809Y0201665D02*
D03*
D53*
X-0196203Y0217414D02*
D03*
Y0229225D02*
D03*
D54*
X-0157441Y0171228D02*
D03*
Y0163354D02*
D03*
D55*
X-0180078Y0180480D02*
D03*
Y0154102D02*
D03*
D57*
X-0147539Y0223455D02*
D03*
Y0227392D02*
D03*
X-0155142Y0186673D02*
D03*
Y0190610D02*
D03*
X-0149685Y0190723D02*
D03*
Y0186786D02*
D03*
X-0115732Y0197204D02*
D03*
Y0201141D02*
D03*
X-0143992Y0164043D02*
D03*
Y0167980D02*
D03*
X-0160671Y0209324D02*
D03*
Y0205387D02*
D03*
X-0078740Y0188555D02*
D03*
Y0184618D02*
D03*
X-0078740Y0180555D02*
D03*
Y0176618D02*
D03*
D84*
X-0166042Y0209348D02*
D03*
Y0203836D02*
D03*
D85*
X-0147424Y0239090D02*
D03*
Y0232594D02*
D03*
M02*
