G04*
G04 #@! TF.GenerationSoftware,Altium Limited,Altium Designer,19.1.6 (110)*
G04*
G04 Layer_Physical_Order=1*
G04 Layer_Color=255*
%FSAX25Y25*%
%MOIN*%
G70*
G01*
G75*
%ADD10C,0.00787*%
%ADD12R,0.09843X0.01969*%
%ADD13R,0.07480X0.05118*%
G04:AMPARAMS|DCode=14|XSize=74.8mil|YSize=51.18mil|CornerRadius=0mil|HoleSize=0mil|Usage=FLASHONLY|Rotation=45.000|XOffset=0mil|YOffset=0mil|HoleType=Round|Shape=Rectangle|*
%AMROTATEDRECTD14*
4,1,4,-0.00835,-0.04454,-0.04454,-0.00835,0.00835,0.04454,0.04454,0.00835,-0.00835,-0.04454,0.0*
%
%ADD14ROTATEDRECTD14*%

G04:AMPARAMS|DCode=15|XSize=74.8mil|YSize=51.18mil|CornerRadius=0mil|HoleSize=0mil|Usage=FLASHONLY|Rotation=315.000|XOffset=0mil|YOffset=0mil|HoleType=Round|Shape=Rectangle|*
%AMROTATEDRECTD15*
4,1,4,-0.04454,0.00835,-0.00835,0.04454,0.04454,-0.00835,0.00835,-0.04454,-0.04454,0.00835,0.0*
%
%ADD15ROTATEDRECTD15*%

%ADD26C,0.00591*%
%ADD27C,0.01181*%
%ADD28C,0.06000*%
%ADD29R,0.06000X0.06000*%
%ADD30C,0.04921*%
%ADD31O,0.02067X0.04724*%
%ADD32C,0.04528*%
%ADD33C,0.01969*%
%ADD34C,0.02362*%
G36*
X-0195276Y0242890D02*
X-0152895D01*
X-0152628Y0242390D01*
X-0152732Y0242235D01*
X-0152861Y0241582D01*
X-0152732Y0240930D01*
X-0152362Y0240376D01*
X-0151808Y0240006D01*
X-0151155Y0239876D01*
X-0150503Y0240006D01*
X-0149949Y0240376D01*
X-0149912Y0240432D01*
X-0071143D01*
X-0071001Y0240095D01*
X-0070965Y0239932D01*
X-0071315Y0239409D01*
X-0071445Y0238756D01*
X-0071315Y0238103D01*
X-0070945Y0237550D01*
X-0070392Y0237180D01*
X-0069739Y0237050D01*
X-0069250Y0237147D01*
X-0063441Y0231338D01*
X-0063082Y0231099D01*
X-0062660Y0231014D01*
X-0055564D01*
X-0055265Y0230715D01*
X-0055265Y0230715D01*
X-0054907Y0230476D01*
X-0054484Y0230392D01*
X-0054484Y0230392D01*
X-0054061D01*
X-0054061Y0230392D01*
X-0045087D01*
X-0044664Y0230476D01*
X-0044306Y0230715D01*
X-0044007Y0231014D01*
X-0027977D01*
X-0027678Y0230715D01*
X-0027320Y0230476D01*
X-0026897Y0230392D01*
X-0016835D01*
X-0013470Y0227027D01*
X-0013522Y0226634D01*
X-0013402Y0225722D01*
X-0013050Y0224873D01*
X-0012491Y0224143D01*
X-0011761Y0223584D01*
X-0010912Y0223232D01*
X-0010000Y0223112D01*
X-0009088Y0223232D01*
X-0008239Y0223584D01*
X-0007509Y0224143D01*
X-0006950Y0224873D01*
X-0006598Y0225722D01*
X-0006478Y0226634D01*
X-0006598Y0227545D01*
X-0006950Y0228395D01*
X-0007509Y0229124D01*
X-0008239Y0229684D01*
X-0009088Y0230036D01*
X-0010000Y0230156D01*
X-0010912Y0230036D01*
X-0011761Y0229684D01*
X-0012465Y0229144D01*
X-0015079Y0231758D01*
X-0015034Y0232389D01*
X-0013101Y0234322D01*
X-0012603Y0234289D01*
X-0012491Y0234143D01*
X-0011761Y0233583D01*
X-0010912Y0233232D01*
X-0010000Y0233112D01*
X-0009088Y0233232D01*
X-0008239Y0233583D01*
X-0007509Y0234143D01*
X-0006950Y0234873D01*
X-0006598Y0235722D01*
X-0006478Y0236634D01*
X-0006598Y0237545D01*
X-0006950Y0238395D01*
X-0007509Y0239124D01*
X-0008239Y0239684D01*
X-0009088Y0240036D01*
X-0010000Y0240156D01*
X-0010912Y0240036D01*
X-0011761Y0239684D01*
X-0012491Y0239124D01*
X-0013050Y0238395D01*
X-0013402Y0237545D01*
X-0013504Y0236770D01*
X-0013695Y0236732D01*
X-0014053Y0236492D01*
X-0016272Y0234273D01*
X-0019014D01*
X-0019065Y0234252D01*
X-0025756D01*
Y0234282D01*
X-0026046Y0234572D01*
X-0026404Y0234811D01*
X-0026827Y0234895D01*
X-0045158D01*
X-0045580Y0234811D01*
X-0045938Y0234572D01*
X-0046228Y0234282D01*
Y0234252D01*
X-0052919D01*
X-0052970Y0234273D01*
X-0053334D01*
X-0053591Y0234530D01*
X-0053643Y0234552D01*
X-0053724Y0234633D01*
X-0053991Y0234811D01*
X-0054414Y0234895D01*
X-0061510D01*
X-0062557Y0235943D01*
X-0062310Y0236403D01*
X-0062176Y0236377D01*
X-0061523Y0236507D01*
X-0060970Y0236876D01*
X-0060600Y0237430D01*
X-0060470Y0238083D01*
X-0060600Y0238736D01*
X-0060970Y0239289D01*
X-0061523Y0239659D01*
X-0062176Y0239789D01*
X-0062829Y0239659D01*
X-0063383Y0239289D01*
X-0063752Y0238736D01*
X-0063882Y0238083D01*
X-0063855Y0237948D01*
X-0064316Y0237702D01*
X-0066387Y0239773D01*
X-0066455Y0240116D01*
X-0066694Y0240474D01*
X-0068536Y0242316D01*
X-0068647Y0242390D01*
X-0068496Y0242890D01*
X-0007874D01*
X-0007217Y0242890D01*
X-0005928Y0242634D01*
X-0004715Y0242131D01*
X-0003622Y0241401D01*
X-0002693Y0240472D01*
X-0001963Y0239380D01*
X-0001460Y0238166D01*
X-0001204Y0236877D01*
X-0001204Y0236221D01*
Y0007874D01*
Y0007217D01*
X-0001460Y0005928D01*
X-0001963Y0004715D01*
X-0002693Y0003622D01*
X-0003622Y0002693D01*
X-0004715Y0001963D01*
X-0005928Y0001460D01*
X-0007217Y0001204D01*
X-0007874Y0001204D01*
X-0195932D01*
X-0197221Y0001460D01*
X-0198435Y0001963D01*
X-0199527Y0002693D01*
X-0200456Y0003622D01*
X-0201186Y0004715D01*
X-0201689Y0005928D01*
X-0201945Y0007217D01*
Y0007874D01*
Y0056178D01*
X-0201633Y0056549D01*
X-0201445Y0056626D01*
X-0201364Y0056545D01*
X-0198714Y0053895D01*
X-0196627Y0055983D01*
X-0199550Y0058906D01*
X-0201364Y0057092D01*
X-0201445Y0057011D01*
X-0201633Y0057088D01*
X-0201945Y0057459D01*
Y0236221D01*
Y0236877D01*
X-0201689Y0238166D01*
X-0201186Y0239380D01*
X-0200456Y0240472D01*
X-0199527Y0241401D01*
X-0198435Y0242131D01*
X-0197221Y0242634D01*
X-0195932Y0242890D01*
X-0195276Y0242890D01*
D02*
G37*
%LPC*%
G36*
X-0174781Y0242187D02*
Y0240652D01*
X-0173246D01*
X-0173320Y0241026D01*
X-0173756Y0241678D01*
X-0174407Y0242113D01*
X-0174781Y0242187D01*
D02*
G37*
G36*
X-0175568D02*
X-0175943Y0242113D01*
X-0176594Y0241678D01*
X-0177029Y0241026D01*
X-0177104Y0240652D01*
X-0175568D01*
Y0242187D01*
D02*
G37*
G36*
X-0196906Y0240795D02*
Y0239260D01*
X-0195371D01*
X-0195446Y0239634D01*
X-0195881Y0240285D01*
X-0196532Y0240721D01*
X-0196906Y0240795D01*
D02*
G37*
G36*
X-0197694D02*
X-0198068Y0240721D01*
X-0198719Y0240285D01*
X-0199154Y0239634D01*
X-0199229Y0239260D01*
X-0197694D01*
Y0240795D01*
D02*
G37*
G36*
X-0056463Y0239921D02*
Y0238386D01*
X-0054927D01*
X-0055002Y0238760D01*
X-0055437Y0239411D01*
X-0056088Y0239846D01*
X-0056463Y0239921D01*
D02*
G37*
G36*
X-0057250D02*
X-0057624Y0239846D01*
X-0058275Y0239411D01*
X-0058710Y0238760D01*
X-0058785Y0238386D01*
X-0057250D01*
Y0239921D01*
D02*
G37*
G36*
X-0173246Y0239865D02*
X-0174781D01*
Y0238330D01*
X-0174407Y0238404D01*
X-0173756Y0238839D01*
X-0173320Y0239490D01*
X-0173246Y0239865D01*
D02*
G37*
G36*
X-0175568D02*
X-0177104D01*
X-0177029Y0239490D01*
X-0176594Y0238839D01*
X-0175943Y0238404D01*
X-0175568Y0238330D01*
Y0239865D01*
D02*
G37*
G36*
X-0098768Y0239120D02*
Y0237585D01*
X-0097233D01*
X-0097307Y0237960D01*
X-0097742Y0238611D01*
X-0098393Y0239046D01*
X-0098768Y0239120D01*
D02*
G37*
G36*
X-0099555D02*
X-0099930Y0239046D01*
X-0100581Y0238611D01*
X-0101016Y0237960D01*
X-0101090Y0237585D01*
X-0099555D01*
Y0239120D01*
D02*
G37*
G36*
X-0121484Y0238685D02*
Y0237150D01*
X-0119948D01*
X-0120023Y0237524D01*
X-0120458Y0238175D01*
X-0121109Y0238610D01*
X-0121484Y0238685D01*
D02*
G37*
G36*
X-0122271D02*
X-0122645Y0238610D01*
X-0123296Y0238175D01*
X-0123732Y0237524D01*
X-0123806Y0237150D01*
X-0122271D01*
Y0238685D01*
D02*
G37*
G36*
X-0135435Y0238504D02*
Y0236969D01*
X-0133900D01*
X-0133974Y0237344D01*
X-0134409Y0237995D01*
X-0135060Y0238430D01*
X-0135435Y0238504D01*
D02*
G37*
G36*
X-0136222D02*
X-0136597Y0238430D01*
X-0137248Y0237995D01*
X-0137683Y0237344D01*
X-0137757Y0236969D01*
X-0136222D01*
Y0238504D01*
D02*
G37*
G36*
X-0195371Y0238473D02*
X-0196906D01*
Y0236937D01*
X-0196532Y0237012D01*
X-0195881Y0237447D01*
X-0195446Y0238098D01*
X-0195371Y0238473D01*
D02*
G37*
G36*
X-0197694D02*
X-0199229D01*
X-0199154Y0238098D01*
X-0198719Y0237447D01*
X-0198068Y0237012D01*
X-0197694Y0236937D01*
Y0238473D01*
D02*
G37*
G36*
X-0054927Y0237598D02*
X-0056463D01*
Y0236063D01*
X-0056088Y0236138D01*
X-0055437Y0236573D01*
X-0055002Y0237224D01*
X-0054927Y0237598D01*
D02*
G37*
G36*
X-0057250D02*
X-0058785D01*
X-0058710Y0237224D01*
X-0058275Y0236573D01*
X-0057624Y0236138D01*
X-0057250Y0236063D01*
Y0237598D01*
D02*
G37*
G36*
X-0074497Y0237012D02*
Y0235476D01*
X-0072962D01*
X-0073037Y0235851D01*
X-0073472Y0236502D01*
X-0074123Y0236937D01*
X-0074497Y0237012D01*
D02*
G37*
G36*
X-0075285D02*
X-0075659Y0236937D01*
X-0076310Y0236502D01*
X-0076745Y0235851D01*
X-0076820Y0235476D01*
X-0075285D01*
Y0237012D01*
D02*
G37*
G36*
X-0097233Y0236798D02*
X-0098768D01*
Y0235263D01*
X-0098393Y0235337D01*
X-0097742Y0235772D01*
X-0097307Y0236423D01*
X-0097233Y0236798D01*
D02*
G37*
G36*
X-0099555D02*
X-0101090D01*
X-0101016Y0236423D01*
X-0100581Y0235772D01*
X-0099930Y0235337D01*
X-0099555Y0235263D01*
Y0236798D01*
D02*
G37*
G36*
X-0119948Y0236362D02*
X-0121484D01*
Y0234827D01*
X-0121109Y0234902D01*
X-0120458Y0235337D01*
X-0120023Y0235988D01*
X-0119948Y0236362D01*
D02*
G37*
G36*
X-0122271D02*
X-0123806D01*
X-0123732Y0235988D01*
X-0123296Y0235337D01*
X-0122645Y0234902D01*
X-0122271Y0234827D01*
Y0236362D01*
D02*
G37*
G36*
X-0133900Y0236182D02*
X-0135435D01*
Y0234647D01*
X-0135060Y0234721D01*
X-0134409Y0235156D01*
X-0133974Y0235808D01*
X-0133900Y0236182D01*
D02*
G37*
G36*
X-0136222D02*
X-0137757D01*
X-0137683Y0235808D01*
X-0137248Y0235156D01*
X-0136597Y0234721D01*
X-0136222Y0234647D01*
Y0236182D01*
D02*
G37*
G36*
X-0072962Y0234689D02*
X-0074497D01*
Y0233154D01*
X-0074123Y0233229D01*
X-0073472Y0233664D01*
X-0073037Y0234315D01*
X-0072962Y0234689D01*
D02*
G37*
G36*
X-0075285D02*
X-0076820D01*
X-0076745Y0234315D01*
X-0076310Y0233664D01*
X-0075659Y0233229D01*
X-0075285Y0233154D01*
Y0234689D01*
D02*
G37*
G36*
X-0198917Y0234114D02*
Y0232579D01*
X-0197382D01*
X-0197457Y0232953D01*
X-0197892Y0233604D01*
X-0198543Y0234039D01*
X-0198917Y0234114D01*
D02*
G37*
G36*
X-0199705D02*
X-0200079Y0234039D01*
X-0200730Y0233604D01*
X-0201165Y0232953D01*
X-0201240Y0232579D01*
X-0199705D01*
Y0234114D01*
D02*
G37*
G36*
X-0182226Y0237910D02*
X-0182946Y0237815D01*
X-0183616Y0237537D01*
X-0184192Y0237096D01*
X-0184634Y0236520D01*
X-0184911Y0235849D01*
X-0185006Y0235130D01*
X-0184911Y0234411D01*
X-0184634Y0233740D01*
X-0184192Y0233165D01*
X-0183616Y0232723D01*
X-0182946Y0232445D01*
X-0182226Y0232350D01*
X-0181507Y0232445D01*
X-0180836Y0232723D01*
X-0180261Y0233165D01*
X-0179819Y0233740D01*
X-0179541Y0234411D01*
X-0179447Y0235130D01*
X-0179541Y0235849D01*
X-0179819Y0236520D01*
X-0180261Y0237096D01*
X-0180836Y0237537D01*
X-0181507Y0237815D01*
X-0182226Y0237910D01*
D02*
G37*
G36*
X-0141106Y0233221D02*
Y0231686D01*
X-0139571D01*
X-0139646Y0232061D01*
X-0140081Y0232712D01*
X-0140732Y0233147D01*
X-0141106Y0233221D01*
D02*
G37*
G36*
X-0141894D02*
X-0142268Y0233147D01*
X-0142919Y0232712D01*
X-0143354Y0232061D01*
X-0143429Y0231686D01*
X-0141894D01*
Y0233221D01*
D02*
G37*
G36*
X-0126406Y0232329D02*
Y0230794D01*
X-0124871D01*
X-0124946Y0231168D01*
X-0125381Y0231819D01*
X-0126032Y0232254D01*
X-0126406Y0232329D01*
D02*
G37*
G36*
X-0127194D02*
X-0127568Y0232254D01*
X-0128219Y0231819D01*
X-0128654Y0231168D01*
X-0128729Y0230794D01*
X-0127194D01*
Y0232329D01*
D02*
G37*
G36*
X-0160314Y0231909D02*
Y0230374D01*
X-0158779D01*
X-0158853Y0230749D01*
X-0159288Y0231400D01*
X-0159939Y0231835D01*
X-0160314Y0231909D01*
D02*
G37*
G36*
X-0161101D02*
X-0161475Y0231835D01*
X-0162127Y0231400D01*
X-0162562Y0230749D01*
X-0162636Y0230374D01*
X-0161101D01*
Y0231909D01*
D02*
G37*
G36*
X-0197382Y0231791D02*
X-0198917D01*
Y0230256D01*
X-0198543Y0230331D01*
X-0197892Y0230766D01*
X-0197457Y0231417D01*
X-0197382Y0231791D01*
D02*
G37*
G36*
X-0199705D02*
X-0201240D01*
X-0201165Y0231417D01*
X-0200730Y0230766D01*
X-0200079Y0230331D01*
X-0199705Y0230256D01*
Y0231791D01*
D02*
G37*
G36*
X-0139571Y0230899D02*
X-0141106D01*
Y0229364D01*
X-0140732Y0229438D01*
X-0140081Y0229873D01*
X-0139646Y0230525D01*
X-0139571Y0230899D01*
D02*
G37*
G36*
X-0141894D02*
X-0143429D01*
X-0143354Y0230525D01*
X-0142919Y0229873D01*
X-0142268Y0229438D01*
X-0141894Y0229364D01*
Y0230899D01*
D02*
G37*
G36*
X-0124871Y0230006D02*
X-0126406D01*
Y0228471D01*
X-0126032Y0228546D01*
X-0125381Y0228981D01*
X-0124946Y0229632D01*
X-0124871Y0230006D01*
D02*
G37*
G36*
X-0127194D02*
X-0128729D01*
X-0128654Y0229632D01*
X-0128219Y0228981D01*
X-0127568Y0228546D01*
X-0127194Y0228471D01*
Y0230006D01*
D02*
G37*
G36*
X-0158779Y0229587D02*
X-0160314D01*
Y0228052D01*
X-0159939Y0228126D01*
X-0159288Y0228561D01*
X-0158853Y0229212D01*
X-0158779Y0229587D01*
D02*
G37*
G36*
X-0161101D02*
X-0162636D01*
X-0162562Y0229212D01*
X-0162127Y0228561D01*
X-0161475Y0228126D01*
X-0161101Y0228052D01*
Y0229587D01*
D02*
G37*
G36*
X-0199016Y0228110D02*
Y0226575D01*
X-0197481D01*
X-0197555Y0226949D01*
X-0197990Y0227600D01*
X-0198641Y0228035D01*
X-0199016Y0228110D01*
D02*
G37*
G36*
X-0199803D02*
X-0200178Y0228035D01*
X-0200829Y0227600D01*
X-0201264Y0226949D01*
X-0201338Y0226575D01*
X-0199803D01*
Y0228110D01*
D02*
G37*
G36*
X-0026051Y0229405D02*
Y0226575D01*
X-0023221D01*
X-0023280Y0227029D01*
X-0023608Y0227819D01*
X-0024128Y0228498D01*
X-0024807Y0229018D01*
X-0025597Y0229345D01*
X-0026051Y0229405D01*
D02*
G37*
G36*
X-0045146D02*
Y0226575D01*
X-0042315D01*
X-0042375Y0227029D01*
X-0042702Y0227819D01*
X-0043223Y0228498D01*
X-0043901Y0229018D01*
X-0044692Y0229345D01*
X-0045146Y0229405D01*
D02*
G37*
G36*
X-0026839D02*
X-0027293Y0229345D01*
X-0028083Y0229018D01*
X-0028761Y0228498D01*
X-0029282Y0227819D01*
X-0029609Y0227029D01*
X-0029669Y0226575D01*
X-0026839D01*
Y0229405D01*
D02*
G37*
G36*
X-0045933D02*
X-0046387Y0229345D01*
X-0047177Y0229018D01*
X-0047856Y0228498D01*
X-0048377Y0227819D01*
X-0048704Y0227029D01*
X-0048764Y0226575D01*
X-0045933D01*
Y0229405D01*
D02*
G37*
G36*
X-0106693Y0227913D02*
Y0226378D01*
X-0105158D01*
X-0105232Y0226752D01*
X-0105667Y0227403D01*
X-0106318Y0227838D01*
X-0106693Y0227913D01*
D02*
G37*
G36*
X-0107480D02*
X-0107855Y0227838D01*
X-0108506Y0227403D01*
X-0108941Y0226752D01*
X-0109015Y0226378D01*
X-0107480D01*
Y0227913D01*
D02*
G37*
G36*
X-0187406Y0226429D02*
Y0224894D01*
X-0185871D01*
X-0185946Y0225268D01*
X-0186381Y0225919D01*
X-0187032Y0226354D01*
X-0187406Y0226429D01*
D02*
G37*
G36*
X-0188194D02*
X-0188568Y0226354D01*
X-0189219Y0225919D01*
X-0189654Y0225268D01*
X-0189729Y0224894D01*
X-0188194D01*
Y0226429D01*
D02*
G37*
G36*
X-0119606Y0225904D02*
Y0224369D01*
X-0118071D01*
X-0118146Y0224743D01*
X-0118581Y0225394D01*
X-0119232Y0225829D01*
X-0119606Y0225904D01*
D02*
G37*
G36*
X-0120394D02*
X-0120768Y0225829D01*
X-0121419Y0225394D01*
X-0121854Y0224743D01*
X-0121929Y0224369D01*
X-0120394D01*
Y0225904D01*
D02*
G37*
G36*
X-0197481Y0225787D02*
X-0199016D01*
Y0224252D01*
X-0198641Y0224327D01*
X-0197990Y0224762D01*
X-0197555Y0225413D01*
X-0197481Y0225787D01*
D02*
G37*
G36*
X-0199803D02*
X-0201338D01*
X-0201264Y0225413D01*
X-0200829Y0224762D01*
X-0200178Y0224327D01*
X-0199803Y0224252D01*
Y0225787D01*
D02*
G37*
G36*
X-0105158Y0225590D02*
X-0106693D01*
Y0224056D01*
X-0106318Y0224130D01*
X-0105667Y0224565D01*
X-0105232Y0225216D01*
X-0105158Y0225590D01*
D02*
G37*
G36*
X-0107480D02*
X-0109015D01*
X-0108941Y0225216D01*
X-0108506Y0224565D01*
X-0107855Y0224130D01*
X-0107480Y0224056D01*
Y0225590D01*
D02*
G37*
G36*
X-0017948Y0225210D02*
Y0223675D01*
X-0016413D01*
X-0016487Y0224049D01*
X-0016922Y0224700D01*
X-0017574Y0225135D01*
X-0017948Y0225210D01*
D02*
G37*
G36*
X-0018735D02*
X-0019110Y0225135D01*
X-0019761Y0224700D01*
X-0020196Y0224049D01*
X-0020270Y0223675D01*
X-0018735D01*
Y0225210D01*
D02*
G37*
G36*
X-0026839Y0225787D02*
X-0029669D01*
X-0029609Y0225333D01*
X-0029282Y0224543D01*
X-0028761Y0223865D01*
X-0028083Y0223344D01*
X-0027293Y0223017D01*
X-0026839Y0222957D01*
Y0225787D01*
D02*
G37*
G36*
X-0023221D02*
X-0026051D01*
Y0222957D01*
X-0025597Y0223017D01*
X-0024807Y0223344D01*
X-0024128Y0223865D01*
X-0023608Y0224543D01*
X-0023280Y0225333D01*
X-0023221Y0225787D01*
D02*
G37*
G36*
X-0185871Y0224106D02*
X-0187406D01*
Y0222571D01*
X-0187032Y0222646D01*
X-0186381Y0223081D01*
X-0185946Y0223732D01*
X-0185871Y0224106D01*
D02*
G37*
G36*
X-0188194D02*
X-0189729D01*
X-0189654Y0223732D01*
X-0189219Y0223081D01*
X-0188568Y0222646D01*
X-0188194Y0222571D01*
Y0224106D01*
D02*
G37*
G36*
X-0118071Y0223581D02*
X-0119606D01*
Y0222046D01*
X-0119232Y0222121D01*
X-0118581Y0222556D01*
X-0118146Y0223207D01*
X-0118071Y0223581D01*
D02*
G37*
G36*
X-0120394D02*
X-0121929D01*
X-0121854Y0223207D01*
X-0121419Y0222556D01*
X-0120768Y0222121D01*
X-0120394Y0222046D01*
Y0223581D01*
D02*
G37*
G36*
X-0016413Y0222887D02*
X-0017948D01*
Y0221352D01*
X-0017574Y0221427D01*
X-0016922Y0221862D01*
X-0016487Y0222513D01*
X-0016413Y0222887D01*
D02*
G37*
G36*
X-0018735D02*
X-0020270D01*
X-0020196Y0222513D01*
X-0019761Y0221862D01*
X-0019110Y0221427D01*
X-0018735Y0221352D01*
Y0222887D01*
D02*
G37*
G36*
X-0172926Y0224058D02*
X-0173502Y0223943D01*
X-0173990Y0223617D01*
X-0174317Y0223129D01*
X-0174431Y0222552D01*
X-0174317Y0221976D01*
X-0173990Y0221488D01*
X-0173502Y0221162D01*
X-0172926Y0221047D01*
X-0172349Y0221162D01*
X-0171861Y0221488D01*
X-0171535Y0221976D01*
X-0171420Y0222552D01*
X-0171535Y0223129D01*
X-0171861Y0223617D01*
X-0172349Y0223943D01*
X-0172926Y0224058D01*
D02*
G37*
G36*
X-0137106Y0221903D02*
Y0220368D01*
X-0135571D01*
X-0135646Y0220742D01*
X-0136081Y0221393D01*
X-0136732Y0221829D01*
X-0137106Y0221903D01*
D02*
G37*
G36*
X-0137894D02*
X-0138268Y0221829D01*
X-0138919Y0221393D01*
X-0139354Y0220742D01*
X-0139429Y0220368D01*
X-0137894D01*
Y0221903D01*
D02*
G37*
G36*
X-0199311Y0222080D02*
X-0199964Y0221950D01*
X-0200517Y0221580D01*
X-0200887Y0221027D01*
X-0201017Y0220374D01*
X-0200887Y0219721D01*
X-0200517Y0219168D01*
X-0199964Y0218798D01*
X-0199311Y0218668D01*
X-0198658Y0218798D01*
X-0198105Y0219168D01*
X-0197735Y0219721D01*
X-0197605Y0220374D01*
X-0197735Y0221027D01*
X-0198105Y0221580D01*
X-0198658Y0221950D01*
X-0199311Y0222080D01*
D02*
G37*
G36*
X-0135571Y0219581D02*
X-0137106D01*
Y0218045D01*
X-0136732Y0218120D01*
X-0136081Y0218555D01*
X-0135646Y0219206D01*
X-0135571Y0219581D01*
D02*
G37*
G36*
X-0137894D02*
X-0139429D01*
X-0139354Y0219206D01*
X-0138919Y0218555D01*
X-0138268Y0218120D01*
X-0137894Y0218045D01*
Y0219581D01*
D02*
G37*
G36*
X-0060906Y0219024D02*
Y0217489D01*
X-0059371D01*
X-0059446Y0217863D01*
X-0059881Y0218514D01*
X-0060532Y0218950D01*
X-0060906Y0219024D01*
D02*
G37*
G36*
X-0061694D02*
X-0062068Y0218950D01*
X-0062719Y0218514D01*
X-0063154Y0217863D01*
X-0063229Y0217489D01*
X-0061694D01*
Y0219024D01*
D02*
G37*
G36*
X-0042315Y0225787D02*
X-0045539D01*
X-0048764D01*
X-0048704Y0225333D01*
X-0048377Y0224543D01*
X-0047856Y0223865D01*
X-0047177Y0223344D01*
X-0047037Y0222880D01*
X-0047176Y0222671D01*
X-0047306Y0222018D01*
X-0047176Y0221365D01*
X-0046806Y0220812D01*
X-0046704Y0220743D01*
Y0218175D01*
X-0046806Y0218106D01*
X-0047176Y0217553D01*
X-0047306Y0216900D01*
X-0047176Y0216247D01*
X-0046806Y0215694D01*
X-0046253Y0215324D01*
X-0045600Y0215194D01*
X-0044947Y0215324D01*
X-0044394Y0215694D01*
X-0044024Y0216247D01*
X-0043894Y0216900D01*
X-0044024Y0217553D01*
X-0044394Y0218106D01*
X-0044496Y0218175D01*
Y0220743D01*
X-0044394Y0220812D01*
X-0044024Y0221365D01*
X-0043894Y0222018D01*
X-0044024Y0222671D01*
X-0044131Y0222831D01*
X-0043985Y0223309D01*
X-0043901Y0223344D01*
X-0043223Y0223865D01*
X-0042702Y0224543D01*
X-0042375Y0225333D01*
X-0042315Y0225787D01*
D02*
G37*
G36*
X-0059371Y0216702D02*
X-0060906D01*
Y0215166D01*
X-0060532Y0215241D01*
X-0059881Y0215676D01*
X-0059446Y0216327D01*
X-0059371Y0216702D01*
D02*
G37*
G36*
X-0061694D02*
X-0063229D01*
X-0063154Y0216327D01*
X-0062719Y0215676D01*
X-0062068Y0215241D01*
X-0061694Y0215166D01*
Y0216702D01*
D02*
G37*
G36*
X-0090945Y0237306D02*
X-0091598Y0237176D01*
X-0092151Y0236806D01*
X-0092521Y0236253D01*
X-0092651Y0235600D01*
X-0092521Y0234947D01*
X-0092151Y0234394D01*
X-0092049Y0234325D01*
Y0221259D01*
X-0091965Y0220837D01*
X-0091775Y0220554D01*
X-0091806Y0220400D01*
X-0091676Y0219747D01*
X-0091306Y0219194D01*
X-0090753Y0218824D01*
X-0090100Y0218694D01*
X-0089447Y0218824D01*
X-0089340Y0218895D01*
X-0088899Y0218660D01*
Y0217718D01*
X-0089076Y0217453D01*
X-0089206Y0216800D01*
X-0089076Y0216147D01*
X-0088706Y0215594D01*
X-0088153Y0215224D01*
X-0087500Y0215094D01*
X-0086847Y0215224D01*
X-0086294Y0215594D01*
X-0085924Y0216147D01*
X-0085794Y0216800D01*
X-0085924Y0217453D01*
X-0086294Y0218006D01*
X-0086691Y0218272D01*
Y0228465D01*
X-0086589Y0228534D01*
X-0086219Y0229087D01*
X-0086089Y0229740D01*
X-0086219Y0230393D01*
X-0086589Y0230946D01*
X-0087142Y0231316D01*
X-0087795Y0231446D01*
X-0088448Y0231316D01*
X-0089002Y0230946D01*
X-0089078Y0230832D01*
X-0089758Y0230710D01*
X-0089841Y0230770D01*
Y0234325D01*
X-0089739Y0234394D01*
X-0089369Y0234947D01*
X-0089239Y0235600D01*
X-0089369Y0236253D01*
X-0089739Y0236806D01*
X-0090292Y0237176D01*
X-0090945Y0237306D01*
D02*
G37*
G36*
X-0109706Y0215429D02*
Y0213894D01*
X-0108171D01*
X-0108246Y0214268D01*
X-0108681Y0214919D01*
X-0109332Y0215354D01*
X-0109706Y0215429D01*
D02*
G37*
G36*
X-0110494D02*
X-0110868Y0215354D01*
X-0111519Y0214919D01*
X-0111954Y0214268D01*
X-0112029Y0213894D01*
X-0110494D01*
Y0215429D01*
D02*
G37*
G36*
X-0041306Y0214798D02*
Y0213263D01*
X-0039771D01*
X-0039846Y0213637D01*
X-0040281Y0214288D01*
X-0040932Y0214723D01*
X-0041306Y0214798D01*
D02*
G37*
G36*
X-0042094D02*
X-0042468Y0214723D01*
X-0043119Y0214288D01*
X-0043554Y0213637D01*
X-0043629Y0213263D01*
X-0042094D01*
Y0214798D01*
D02*
G37*
G36*
X-0010000Y0220156D02*
X-0010912Y0220036D01*
X-0011761Y0219684D01*
X-0012491Y0219125D01*
X-0013050Y0218395D01*
X-0013402Y0217546D01*
X-0013522Y0216634D01*
X-0013402Y0215722D01*
X-0013050Y0214873D01*
X-0012491Y0214143D01*
X-0011761Y0213583D01*
X-0010912Y0213232D01*
X-0010000Y0213112D01*
X-0009088Y0213232D01*
X-0008239Y0213583D01*
X-0007509Y0214143D01*
X-0006950Y0214873D01*
X-0006598Y0215722D01*
X-0006478Y0216634D01*
X-0006598Y0217546D01*
X-0006950Y0218395D01*
X-0007509Y0219125D01*
X-0008239Y0219684D01*
X-0009088Y0220036D01*
X-0010000Y0220156D01*
D02*
G37*
G36*
X-0199311Y0216175D02*
X-0199964Y0216045D01*
X-0200517Y0215675D01*
X-0200887Y0215121D01*
X-0201017Y0214469D01*
X-0200887Y0213816D01*
X-0200517Y0213262D01*
X-0199964Y0212892D01*
X-0199311Y0212762D01*
X-0198658Y0212892D01*
X-0198105Y0213262D01*
X-0197735Y0213816D01*
X-0197605Y0214469D01*
X-0197735Y0215121D01*
X-0198105Y0215675D01*
X-0198658Y0216045D01*
X-0199311Y0216175D01*
D02*
G37*
G36*
X-0108171Y0213106D02*
X-0109706D01*
Y0211571D01*
X-0109332Y0211646D01*
X-0108681Y0212081D01*
X-0108246Y0212732D01*
X-0108171Y0213106D01*
D02*
G37*
G36*
X-0110494D02*
X-0112029D01*
X-0111954Y0212732D01*
X-0111519Y0212081D01*
X-0110868Y0211646D01*
X-0110494Y0211571D01*
Y0213106D01*
D02*
G37*
G36*
X-0039771Y0212475D02*
X-0041306D01*
Y0210940D01*
X-0040932Y0211015D01*
X-0040281Y0211450D01*
X-0039846Y0212101D01*
X-0039771Y0212475D01*
D02*
G37*
G36*
X-0042094D02*
X-0043629D01*
X-0043554Y0212101D01*
X-0043119Y0211450D01*
X-0042468Y0211015D01*
X-0042094Y0210940D01*
Y0212475D01*
D02*
G37*
G36*
X-0133740Y0212229D02*
Y0210694D01*
X-0132205D01*
X-0132280Y0211068D01*
X-0132715Y0211719D01*
X-0133366Y0212154D01*
X-0133740Y0212229D01*
D02*
G37*
G36*
X-0134528D02*
X-0134902Y0212154D01*
X-0135553Y0211719D01*
X-0135988Y0211068D01*
X-0136063Y0210694D01*
X-0134528D01*
Y0212229D01*
D02*
G37*
G36*
X-0029980Y0212029D02*
Y0210494D01*
X-0028445D01*
X-0028520Y0210868D01*
X-0028955Y0211519D01*
X-0029606Y0211954D01*
X-0029980Y0212029D01*
D02*
G37*
G36*
X-0030768D02*
X-0031142Y0211954D01*
X-0031793Y0211519D01*
X-0032228Y0210868D01*
X-0032303Y0210494D01*
X-0030768D01*
Y0212029D01*
D02*
G37*
G36*
X-0077406Y0211229D02*
Y0209694D01*
X-0075871D01*
X-0075946Y0210068D01*
X-0076381Y0210719D01*
X-0077032Y0211154D01*
X-0077406Y0211229D01*
D02*
G37*
G36*
X-0078194D02*
X-0078568Y0211154D01*
X-0079219Y0210719D01*
X-0079654Y0210068D01*
X-0079729Y0209694D01*
X-0078194D01*
Y0211229D01*
D02*
G37*
G36*
X-0119006Y0210173D02*
Y0208638D01*
X-0117471D01*
X-0117546Y0209012D01*
X-0117981Y0209664D01*
X-0118632Y0210099D01*
X-0119006Y0210173D01*
D02*
G37*
G36*
X-0119794D02*
X-0120168Y0210099D01*
X-0120819Y0209664D01*
X-0121254Y0209012D01*
X-0121329Y0208638D01*
X-0119794D01*
Y0210173D01*
D02*
G37*
G36*
X-0132205Y0209906D02*
X-0133740D01*
Y0208371D01*
X-0133366Y0208446D01*
X-0132715Y0208881D01*
X-0132280Y0209532D01*
X-0132205Y0209906D01*
D02*
G37*
G36*
X-0134528D02*
X-0136063D01*
X-0135988Y0209532D01*
X-0135553Y0208881D01*
X-0134902Y0208446D01*
X-0134528Y0208371D01*
Y0209906D01*
D02*
G37*
G36*
X-0028445Y0209706D02*
X-0029980D01*
Y0208171D01*
X-0029606Y0208246D01*
X-0028955Y0208681D01*
X-0028520Y0209332D01*
X-0028445Y0209706D01*
D02*
G37*
G36*
X-0030768D02*
X-0032303D01*
X-0032228Y0209332D01*
X-0031793Y0208681D01*
X-0031142Y0208246D01*
X-0030768Y0208171D01*
Y0209706D01*
D02*
G37*
G36*
X-0075871Y0208906D02*
X-0077406D01*
Y0207371D01*
X-0077032Y0207446D01*
X-0076381Y0207881D01*
X-0075946Y0208532D01*
X-0075871Y0208906D01*
D02*
G37*
G36*
X-0078194D02*
X-0079729D01*
X-0079654Y0208532D01*
X-0079219Y0207881D01*
X-0078568Y0207446D01*
X-0078194Y0207371D01*
Y0208906D01*
D02*
G37*
G36*
X-0117471Y0207851D02*
X-0119006D01*
Y0206315D01*
X-0118632Y0206390D01*
X-0117981Y0206825D01*
X-0117546Y0207476D01*
X-0117471Y0207851D01*
D02*
G37*
G36*
X-0119794D02*
X-0121329D01*
X-0121254Y0207476D01*
X-0120819Y0206825D01*
X-0120168Y0206390D01*
X-0119794Y0206315D01*
Y0207851D01*
D02*
G37*
G36*
X-0182226Y0210351D02*
X-0182946Y0210256D01*
X-0183616Y0209978D01*
X-0184192Y0209537D01*
X-0184634Y0208961D01*
X-0184911Y0208291D01*
X-0185006Y0207571D01*
X-0184911Y0206852D01*
X-0184634Y0206181D01*
X-0184192Y0205606D01*
X-0183616Y0205164D01*
X-0182946Y0204886D01*
X-0182226Y0204791D01*
X-0181507Y0204886D01*
X-0180836Y0205164D01*
X-0180261Y0205606D01*
X-0179819Y0206181D01*
X-0179541Y0206852D01*
X-0179447Y0207571D01*
X-0179541Y0208291D01*
X-0179819Y0208961D01*
X-0180261Y0209537D01*
X-0180836Y0209978D01*
X-0181507Y0210256D01*
X-0182226Y0210351D01*
D02*
G37*
G36*
X-0113146Y0208340D02*
X-0113798Y0208210D01*
X-0114352Y0207840D01*
X-0114722Y0207287D01*
X-0114852Y0206634D01*
X-0114722Y0205981D01*
X-0114352Y0205428D01*
X-0114173Y0205308D01*
Y0202798D01*
X-0114199Y0202781D01*
X-0114568Y0202228D01*
X-0114698Y0201575D01*
X-0114568Y0200922D01*
X-0114199Y0200368D01*
X-0113645Y0199999D01*
X-0112992Y0199869D01*
X-0112871Y0199893D01*
X-0108600Y0195622D01*
Y0186373D01*
X-0109062Y0186182D01*
X-0111775Y0188894D01*
X-0111680Y0189370D01*
X-0111810Y0190023D01*
X-0112180Y0190576D01*
X-0112733Y0190946D01*
X-0113386Y0191076D01*
X-0114039Y0190946D01*
X-0114592Y0190576D01*
X-0114962Y0190023D01*
X-0115092Y0189370D01*
X-0114962Y0188717D01*
X-0114592Y0188164D01*
X-0114039Y0187794D01*
X-0113386Y0187664D01*
X-0112910Y0187759D01*
X-0109677Y0184526D01*
Y0183075D01*
X-0110139Y0182884D01*
X-0112074Y0184820D01*
X-0112335Y0184994D01*
X-0112642Y0185055D01*
X-0112960D01*
X-0112967Y0185065D01*
X-0113520Y0185434D01*
X-0114173Y0185564D01*
X-0114826Y0185434D01*
X-0115380Y0185065D01*
X-0115749Y0184511D01*
X-0115879Y0183858D01*
X-0115749Y0183205D01*
X-0115380Y0182652D01*
X-0114826Y0182282D01*
X-0114173Y0182152D01*
X-0113520Y0182282D01*
X-0112967Y0182652D01*
X-0112870Y0182798D01*
X-0112372Y0182847D01*
X-0110837Y0181311D01*
Y0173751D01*
X-0113225Y0171363D01*
X-0113399Y0171103D01*
X-0113460Y0170795D01*
Y0160835D01*
X-0113401Y0160538D01*
Y0159989D01*
X-0113340Y0159682D01*
X-0113166Y0159421D01*
X-0108830Y0155086D01*
Y0105735D01*
X-0128226Y0086339D01*
X-0151088D01*
X-0151295Y0086839D01*
X-0151295Y0086839D01*
X-0145559Y0092574D01*
X-0149874Y0096889D01*
X-0155860Y0090904D01*
X-0151795Y0086839D01*
X-0151795Y0086839D01*
X-0152002Y0086339D01*
X-0153531D01*
X-0153531Y0086339D01*
X-0153838Y0086278D01*
X-0154098Y0086104D01*
X-0154098Y0086104D01*
X-0168725Y0071477D01*
X-0172006Y0074757D01*
X-0177992Y0068772D01*
X-0174850Y0065630D01*
X-0175041Y0065168D01*
X-0179065D01*
X-0179982Y0066086D01*
X-0178392Y0067676D01*
X-0184378Y0073661D01*
X-0188692Y0069346D01*
X-0182707Y0063361D01*
X-0181117Y0064950D01*
X-0179965Y0063798D01*
X-0179704Y0063624D01*
X-0179397Y0063563D01*
X-0173170D01*
X-0172863Y0063624D01*
X-0172602Y0063798D01*
X-0152750Y0083650D01*
X-0138712D01*
X-0138520Y0083188D01*
X-0143332Y0078377D01*
X-0139045Y0074089D01*
X-0142895Y0070240D01*
X-0143069Y0069979D01*
X-0143130Y0069672D01*
Y0057199D01*
X-0144613Y0055716D01*
X-0146968Y0058071D01*
X-0149335Y0055705D01*
X-0151701Y0053339D01*
X-0150150Y0051788D01*
X-0150364Y0051294D01*
X-0150508Y0051266D01*
X-0150768Y0051092D01*
X-0150768Y0051092D01*
X-0156288Y0045572D01*
X-0162246Y0051529D01*
X-0166561Y0047214D01*
X-0160603Y0041257D01*
X-0168816Y0033044D01*
X-0174773Y0039002D01*
X-0179088Y0034687D01*
X-0173103Y0028701D01*
Y0028701D01*
X-0172809Y0028323D01*
Y0027498D01*
X-0177992Y0022315D01*
X-0173677Y0018000D01*
X-0167691Y0023986D01*
X-0171203Y0027498D01*
Y0028386D01*
X-0155501Y0044088D01*
X-0151545Y0040132D01*
X-0145559Y0046118D01*
X-0148698Y0049256D01*
X-0148491Y0049757D01*
X-0148362Y0049782D01*
X-0148102Y0049956D01*
X-0141760Y0056299D01*
X-0141760Y0056299D01*
X-0141586Y0056559D01*
X-0141525Y0056866D01*
X-0141525Y0056866D01*
Y0067981D01*
X-0141062Y0068173D01*
X-0136250Y0063361D01*
X-0131936Y0067676D01*
X-0135980Y0071720D01*
X-0111895Y0095806D01*
X-0111433Y0095615D01*
Y0076279D01*
X-0111372Y0075972D01*
X-0111198Y0075712D01*
X-0077274Y0041788D01*
X-0076968Y0041437D01*
X-0076968D01*
X-0076968Y0041437D01*
Y0035335D01*
X-0068504D01*
Y0041437D01*
X-0074652D01*
X-0109827Y0076612D01*
Y0096342D01*
X-0103148Y0103022D01*
X-0102844Y0102943D01*
X-0102657Y0102819D01*
Y0097342D01*
X-0094700D01*
Y0086356D01*
X-0095328Y0085728D01*
X-0102657D01*
Y0079626D01*
X-0094193D01*
Y0084593D01*
X-0093330Y0085456D01*
X-0093156Y0085716D01*
X-0093095Y0086024D01*
X-0093095Y0086024D01*
Y0097509D01*
X-0093095Y0097509D01*
Y0098491D01*
X-0092633Y0098682D01*
X-0069465Y0075515D01*
X-0069465Y0075515D01*
X-0069205Y0075341D01*
X-0068898Y0075280D01*
X-0041535D01*
Y0070768D01*
X-0033071D01*
Y0076870D01*
X-0039489D01*
X-0039567Y0076885D01*
X-0068565D01*
X-0070844Y0079164D01*
X-0070652Y0079626D01*
X-0062894D01*
Y0085728D01*
X-0071358D01*
Y0080332D01*
X-0071820Y0080141D01*
X-0091790Y0100110D01*
Y0103505D01*
X-0091851Y0103812D01*
X-0092025Y0104073D01*
X-0093343Y0105391D01*
X-0093603Y0105565D01*
X-0093910Y0105626D01*
X-0098723D01*
X-0099646Y0106549D01*
Y0161429D01*
X-0099707Y0161736D01*
X-0099881Y0161996D01*
X-0099881Y0161996D01*
X-0101614Y0163730D01*
Y0164391D01*
X-0101114Y0164661D01*
X-0100842Y0164607D01*
Y0166535D01*
X-0100449D01*
Y0166929D01*
X-0098520D01*
X-0098594Y0167304D01*
X-0099029Y0167955D01*
X-0099681Y0168390D01*
X-0100449Y0168543D01*
X-0100456Y0168541D01*
X-0100702Y0169002D01*
X-0098770Y0170934D01*
X-0098181Y0170916D01*
X-0098022Y0170810D01*
X-0097369Y0170680D01*
X-0096716Y0170810D01*
X-0096163Y0171179D01*
X-0095866Y0171624D01*
X-0093153D01*
X-0092911Y0171262D01*
X-0092357Y0170892D01*
X-0091704Y0170762D01*
X-0091052Y0170892D01*
X-0090498Y0171262D01*
X-0090128Y0171815D01*
X-0089999Y0172468D01*
X-0090128Y0173121D01*
X-0090498Y0173674D01*
X-0091052Y0174044D01*
X-0091704Y0174174D01*
X-0092357Y0174044D01*
X-0092911Y0173674D01*
X-0093208Y0173230D01*
X-0095921D01*
X-0096163Y0173592D01*
X-0096357Y0173722D01*
X-0096406Y0174219D01*
X-0080358Y0190267D01*
X-0080315Y0190297D01*
X-0080312Y0190298D01*
X-0079729Y0190364D01*
X-0079343Y0190106D01*
X-0078690Y0189977D01*
X-0078038Y0190106D01*
X-0077484Y0190476D01*
X-0077114Y0191030D01*
X-0076984Y0191683D01*
X-0077114Y0192335D01*
X-0077484Y0192889D01*
X-0078038Y0193259D01*
X-0078560Y0193363D01*
X-0078826Y0193565D01*
X-0079028Y0193831D01*
X-0079132Y0194354D01*
X-0079502Y0194907D01*
X-0080056Y0195277D01*
X-0080709Y0195407D01*
X-0081362Y0195277D01*
X-0081389Y0195258D01*
X-0081946Y0195488D01*
X-0081974Y0195630D01*
X-0081185Y0196420D01*
X-0080708Y0196325D01*
X-0080056Y0196455D01*
X-0079502Y0196825D01*
X-0079132Y0197378D01*
X-0079002Y0198031D01*
X-0079132Y0198684D01*
X-0079502Y0199237D01*
X-0080056Y0199607D01*
X-0080708Y0199737D01*
X-0081361Y0199607D01*
X-0081915Y0199237D01*
X-0082285Y0198684D01*
X-0082415Y0198031D01*
X-0082320Y0197555D01*
X-0083639Y0196236D01*
X-0083813Y0195976D01*
X-0083874Y0195669D01*
Y0192084D01*
X-0094665Y0181293D01*
X-0095044Y0181496D01*
X-0096669D01*
Y0179871D01*
X-0096467Y0179491D01*
X-0098636Y0177322D01*
X-0099081D01*
X-0099081Y0177322D01*
X-0099389Y0177261D01*
X-0099649Y0177087D01*
X-0099649Y0177087D01*
X-0102071Y0174666D01*
X-0102245Y0174405D01*
X-0102306Y0174098D01*
Y0173652D01*
X-0104853Y0171105D01*
X-0105315Y0171296D01*
Y0186860D01*
X-0104815Y0187065D01*
X-0104311Y0186728D01*
X-0103937Y0186654D01*
Y0188583D01*
Y0190511D01*
X-0104311Y0190437D01*
X-0104815Y0190100D01*
X-0105315Y0190305D01*
Y0194249D01*
X-0096376Y0203189D01*
X-0095900Y0203094D01*
X-0095247Y0203224D01*
X-0094694Y0203594D01*
X-0094324Y0204147D01*
X-0094194Y0204800D01*
X-0094324Y0205453D01*
X-0094436Y0205621D01*
X-0094169Y0206120D01*
X-0084453D01*
X-0084207Y0205874D01*
X-0084207Y0205874D01*
X-0083945Y0205612D01*
X-0083990Y0205387D01*
X-0083860Y0204734D01*
X-0083490Y0204181D01*
X-0082936Y0203811D01*
X-0082284Y0203681D01*
X-0081631Y0203811D01*
X-0081077Y0204181D01*
X-0080707Y0204734D01*
X-0080577Y0205387D01*
X-0080707Y0206040D01*
X-0081077Y0206593D01*
X-0081631Y0206963D01*
X-0082284Y0207093D01*
X-0082300Y0207090D01*
X-0082646Y0207435D01*
X-0082646Y0207435D01*
X-0083027Y0207816D01*
X-0083027Y0207816D01*
X-0083215Y0208005D01*
X-0083574Y0208244D01*
X-0083996Y0208328D01*
X-0096457D01*
X-0096879Y0208244D01*
X-0097060Y0208123D01*
X-0097260Y0208084D01*
X-0097618Y0207844D01*
X-0107659Y0197803D01*
X-0111310Y0201454D01*
X-0111286Y0201575D01*
X-0111416Y0202228D01*
X-0111786Y0202781D01*
X-0111965Y0202901D01*
Y0205410D01*
X-0111939Y0205428D01*
X-0111569Y0205981D01*
X-0111440Y0206634D01*
X-0111569Y0207287D01*
X-0111939Y0207840D01*
X-0112493Y0208210D01*
X-0113146Y0208340D01*
D02*
G37*
G36*
X-0153543Y0204941D02*
Y0203405D01*
X-0152008D01*
X-0152083Y0203780D01*
X-0152518Y0204431D01*
X-0153169Y0204866D01*
X-0153543Y0204941D01*
D02*
G37*
G36*
X-0154331D02*
X-0154705Y0204866D01*
X-0155356Y0204431D01*
X-0155791Y0203780D01*
X-0155866Y0203405D01*
X-0154331D01*
Y0204941D01*
D02*
G37*
G36*
X-0143844Y0214180D02*
X-0144496Y0214050D01*
X-0145050Y0213680D01*
X-0145420Y0213126D01*
X-0145550Y0212474D01*
X-0145420Y0211821D01*
X-0145050Y0211267D01*
X-0144496Y0210897D01*
X-0143844Y0210768D01*
X-0143368Y0210862D01*
X-0138109Y0205604D01*
X-0138144Y0205553D01*
X-0138274Y0204900D01*
X-0138144Y0204247D01*
X-0137774Y0203694D01*
X-0137220Y0203324D01*
X-0136568Y0203194D01*
X-0135915Y0203324D01*
X-0135361Y0203694D01*
X-0134991Y0204247D01*
X-0134862Y0204900D01*
X-0134991Y0205553D01*
X-0135361Y0206106D01*
X-0135915Y0206476D01*
X-0136568Y0206606D01*
X-0136795Y0206561D01*
X-0142232Y0211998D01*
X-0142138Y0212474D01*
X-0142267Y0213126D01*
X-0142637Y0213680D01*
X-0143191Y0214050D01*
X-0143844Y0214180D01*
D02*
G37*
G36*
X-0010000Y0210156D02*
X-0010912Y0210036D01*
X-0011761Y0209684D01*
X-0012491Y0209124D01*
X-0013050Y0208395D01*
X-0013402Y0207545D01*
X-0013522Y0206634D01*
X-0013402Y0205722D01*
X-0013050Y0204873D01*
X-0012491Y0204143D01*
X-0011761Y0203584D01*
X-0010912Y0203232D01*
X-0010000Y0203112D01*
X-0009088Y0203232D01*
X-0008239Y0203584D01*
X-0007509Y0204143D01*
X-0006950Y0204873D01*
X-0006598Y0205722D01*
X-0006478Y0206634D01*
X-0006598Y0207545D01*
X-0006950Y0208395D01*
X-0007509Y0209124D01*
X-0008239Y0209684D01*
X-0009088Y0210036D01*
X-0010000Y0210156D01*
D02*
G37*
G36*
X-0199311Y0206135D02*
X-0199964Y0206005D01*
X-0200517Y0205635D01*
X-0200887Y0205082D01*
X-0201017Y0204429D01*
X-0200887Y0203776D01*
X-0200517Y0203223D01*
X-0199964Y0202853D01*
X-0199311Y0202723D01*
X-0198658Y0202853D01*
X-0198105Y0203223D01*
X-0197735Y0203776D01*
X-0197605Y0204429D01*
X-0197735Y0205082D01*
X-0198105Y0205635D01*
X-0198658Y0206005D01*
X-0199311Y0206135D01*
D02*
G37*
G36*
X-0037567Y0202629D02*
Y0201094D01*
X-0036032D01*
X-0036106Y0201468D01*
X-0036541Y0202119D01*
X-0037193Y0202554D01*
X-0037567Y0202629D01*
D02*
G37*
G36*
X-0038354D02*
X-0038729Y0202554D01*
X-0039380Y0202119D01*
X-0039815Y0201468D01*
X-0039889Y0201094D01*
X-0038354D01*
Y0202629D01*
D02*
G37*
G36*
X-0152008Y0202618D02*
X-0153543D01*
Y0201083D01*
X-0153169Y0201157D01*
X-0152518Y0201593D01*
X-0152083Y0202244D01*
X-0152008Y0202618D01*
D02*
G37*
G36*
X-0154331D02*
X-0155866D01*
X-0155791Y0202244D01*
X-0155356Y0201593D01*
X-0154705Y0201157D01*
X-0154331Y0201083D01*
Y0202618D01*
D02*
G37*
G36*
X-0016142Y0211155D02*
X-0016795Y0211025D01*
X-0017348Y0210655D01*
X-0017718Y0210102D01*
X-0017848Y0209449D01*
X-0017718Y0208796D01*
X-0017348Y0208243D01*
X-0016795Y0207873D01*
X-0016651Y0207844D01*
Y0203641D01*
X-0016954Y0203439D01*
X-0017324Y0202885D01*
X-0017454Y0202232D01*
X-0017324Y0201580D01*
X-0016954Y0201026D01*
X-0016401Y0200656D01*
X-0015748Y0200526D01*
X-0015095Y0200656D01*
X-0014542Y0201026D01*
X-0014172Y0201580D01*
X-0014042Y0202232D01*
X-0014172Y0202885D01*
X-0014542Y0203439D01*
X-0014845Y0203641D01*
Y0208378D01*
X-0014566Y0208796D01*
X-0014436Y0209449D01*
X-0014566Y0210102D01*
X-0014935Y0210655D01*
X-0015489Y0211025D01*
X-0016142Y0211155D01*
D02*
G37*
G36*
X-0133406Y0201536D02*
Y0200001D01*
X-0131871D01*
X-0131946Y0200375D01*
X-0132381Y0201027D01*
X-0133032Y0201462D01*
X-0133406Y0201536D01*
D02*
G37*
G36*
X-0134194D02*
X-0134568Y0201462D01*
X-0135219Y0201027D01*
X-0135654Y0200375D01*
X-0135729Y0200001D01*
X-0134194D01*
Y0201536D01*
D02*
G37*
G36*
X-0121006Y0201229D02*
Y0199694D01*
X-0119471D01*
X-0119546Y0200068D01*
X-0119981Y0200719D01*
X-0120632Y0201154D01*
X-0121006Y0201229D01*
D02*
G37*
G36*
X-0121794D02*
X-0122168Y0201154D01*
X-0122819Y0200719D01*
X-0123254Y0200068D01*
X-0123329Y0199694D01*
X-0121794D01*
Y0201229D01*
D02*
G37*
G36*
X-0178206Y0200829D02*
Y0199294D01*
X-0176671D01*
X-0176746Y0199668D01*
X-0177181Y0200319D01*
X-0177832Y0200754D01*
X-0178206Y0200829D01*
D02*
G37*
G36*
X-0178994D02*
X-0179368Y0200754D01*
X-0180019Y0200319D01*
X-0180454Y0199668D01*
X-0180529Y0199294D01*
X-0178994D01*
Y0200829D01*
D02*
G37*
G36*
X-0164665Y0200649D02*
Y0199114D01*
X-0163130D01*
X-0163205Y0199488D01*
X-0163640Y0200140D01*
X-0164291Y0200575D01*
X-0164665Y0200649D01*
D02*
G37*
G36*
X-0165453D02*
X-0165827Y0200575D01*
X-0166478Y0200140D01*
X-0166913Y0199488D01*
X-0166988Y0199114D01*
X-0165453D01*
Y0200649D01*
D02*
G37*
G36*
X-0036032Y0200306D02*
X-0037567D01*
Y0198771D01*
X-0037193Y0198846D01*
X-0036541Y0199281D01*
X-0036106Y0199932D01*
X-0036032Y0200306D01*
D02*
G37*
G36*
X-0038354D02*
X-0039889D01*
X-0039815Y0199932D01*
X-0039380Y0199281D01*
X-0038729Y0198846D01*
X-0038354Y0198771D01*
Y0200306D01*
D02*
G37*
G36*
X-0161811Y0198385D02*
X-0162185Y0198311D01*
X-0162691Y0197973D01*
X-0163147Y0198243D01*
X-0163130Y0198327D01*
X-0164665D01*
Y0196792D01*
X-0164291Y0196866D01*
X-0163786Y0197204D01*
X-0163329Y0196934D01*
X-0163346Y0196850D01*
X-0161811D01*
Y0198385D01*
D02*
G37*
G36*
X-0131871Y0199214D02*
X-0133406D01*
Y0197678D01*
X-0133032Y0197753D01*
X-0132381Y0198188D01*
X-0131946Y0198839D01*
X-0131871Y0199214D01*
D02*
G37*
G36*
X-0134194D02*
X-0135729D01*
X-0135654Y0198839D01*
X-0135219Y0198188D01*
X-0134568Y0197753D01*
X-0134194Y0197678D01*
Y0199214D01*
D02*
G37*
G36*
X-0026378Y0199202D02*
Y0197667D01*
X-0024843D01*
X-0024917Y0198041D01*
X-0025352Y0198693D01*
X-0026004Y0199128D01*
X-0026378Y0199202D01*
D02*
G37*
G36*
X-0027165D02*
X-0027540Y0199128D01*
X-0028191Y0198693D01*
X-0028626Y0198041D01*
X-0028700Y0197667D01*
X-0027165D01*
Y0199202D01*
D02*
G37*
G36*
X-0119471Y0198906D02*
X-0121006D01*
Y0197371D01*
X-0120632Y0197446D01*
X-0119981Y0197881D01*
X-0119546Y0198532D01*
X-0119471Y0198906D01*
D02*
G37*
G36*
X-0121794D02*
X-0123329D01*
X-0123254Y0198532D01*
X-0122819Y0197881D01*
X-0122168Y0197446D01*
X-0121794Y0197371D01*
Y0198906D01*
D02*
G37*
G36*
X-0199311Y0200525D02*
X-0199964Y0200395D01*
X-0200517Y0200025D01*
X-0200887Y0199472D01*
X-0201017Y0198819D01*
X-0200887Y0198166D01*
X-0200517Y0197613D01*
X-0199964Y0197243D01*
X-0199311Y0197113D01*
X-0198658Y0197243D01*
X-0198105Y0197613D01*
X-0197735Y0198166D01*
X-0197605Y0198819D01*
X-0197735Y0199472D01*
X-0198105Y0200025D01*
X-0198658Y0200395D01*
X-0199311Y0200525D01*
D02*
G37*
G36*
X-0176671Y0198506D02*
X-0178206D01*
Y0196971D01*
X-0177832Y0197046D01*
X-0177181Y0197481D01*
X-0176746Y0198132D01*
X-0176671Y0198506D01*
D02*
G37*
G36*
X-0178994D02*
X-0180529D01*
X-0180454Y0198132D01*
X-0180019Y0197481D01*
X-0179368Y0197046D01*
X-0178994Y0196971D01*
Y0198506D01*
D02*
G37*
G36*
X-0096669Y0198385D02*
Y0196850D01*
X-0095134D01*
X-0095209Y0197225D01*
X-0095644Y0197876D01*
X-0096295Y0198311D01*
X-0096669Y0198385D01*
D02*
G37*
G36*
X-0097457D02*
X-0097831Y0198311D01*
X-0098482Y0197876D01*
X-0098917Y0197225D01*
X-0098992Y0196850D01*
X-0097457D01*
Y0198385D01*
D02*
G37*
G36*
X-0149291D02*
Y0196850D01*
X-0147756D01*
X-0147831Y0197225D01*
X-0148266Y0197876D01*
X-0148917Y0198311D01*
X-0149291Y0198385D01*
D02*
G37*
G36*
X-0150079D02*
X-0150453Y0198311D01*
X-0151104Y0197876D01*
X-0151539Y0197225D01*
X-0151614Y0196850D01*
X-0150079D01*
Y0198385D01*
D02*
G37*
G36*
X-0161024D02*
Y0196850D01*
X-0159489D01*
X-0159563Y0197225D01*
X-0159998Y0197876D01*
X-0160649Y0198311D01*
X-0161024Y0198385D01*
D02*
G37*
G36*
X-0165453Y0198327D02*
X-0166988D01*
X-0166913Y0197952D01*
X-0166478Y0197301D01*
X-0165827Y0196866D01*
X-0165453Y0196792D01*
Y0198327D01*
D02*
G37*
G36*
X-0024843Y0196880D02*
X-0026378D01*
Y0195345D01*
X-0026004Y0195419D01*
X-0025352Y0195854D01*
X-0024917Y0196505D01*
X-0024843Y0196880D01*
D02*
G37*
G36*
X-0027165D02*
X-0028700D01*
X-0028626Y0196505D01*
X-0028191Y0195854D01*
X-0027540Y0195419D01*
X-0027165Y0195345D01*
Y0196880D01*
D02*
G37*
G36*
X-0095134Y0196063D02*
X-0096669D01*
Y0194528D01*
X-0096295Y0194602D01*
X-0095644Y0195037D01*
X-0095209Y0195689D01*
X-0095134Y0196063D01*
D02*
G37*
G36*
X-0097457D02*
X-0098992D01*
X-0098917Y0195689D01*
X-0098482Y0195037D01*
X-0097831Y0194602D01*
X-0097457Y0194528D01*
Y0196063D01*
D02*
G37*
G36*
X-0159489D02*
X-0161024D01*
Y0194528D01*
X-0160649Y0194602D01*
X-0159998Y0195037D01*
X-0159563Y0195689D01*
X-0159489Y0196063D01*
D02*
G37*
G36*
X-0161811D02*
X-0163346D01*
X-0163272Y0195689D01*
X-0162837Y0195037D01*
X-0162185Y0194602D01*
X-0161811Y0194528D01*
Y0196063D01*
D02*
G37*
G36*
X-0164665Y0194744D02*
Y0193209D01*
X-0163130D01*
X-0163205Y0193583D01*
X-0163640Y0194234D01*
X-0164291Y0194669D01*
X-0164665Y0194744D01*
D02*
G37*
G36*
X-0165453D02*
X-0165827Y0194669D01*
X-0166478Y0194234D01*
X-0166913Y0193583D01*
X-0166988Y0193209D01*
X-0165453D01*
Y0194744D01*
D02*
G37*
G36*
X-0125591Y0194724D02*
Y0193189D01*
X-0124056D01*
X-0124130Y0193563D01*
X-0124565Y0194214D01*
X-0125216Y0194650D01*
X-0125591Y0194724D01*
D02*
G37*
G36*
X-0126378D02*
X-0126752Y0194650D01*
X-0127403Y0194214D01*
X-0127839Y0193563D01*
X-0127913Y0193189D01*
X-0126378D01*
Y0194724D01*
D02*
G37*
G36*
X-0006508Y0200126D02*
X-0013492D01*
Y0193142D01*
X-0006508D01*
Y0200126D01*
D02*
G37*
G36*
X-0135174Y0193596D02*
Y0192061D01*
X-0133639D01*
X-0133713Y0192435D01*
X-0134148Y0193087D01*
X-0134800Y0193522D01*
X-0135174Y0193596D01*
D02*
G37*
G36*
X-0135961D02*
X-0136336Y0193522D01*
X-0136987Y0193087D01*
X-0137422Y0192435D01*
X-0137496Y0192061D01*
X-0135961D01*
Y0193596D01*
D02*
G37*
G36*
X-0061506Y0193129D02*
Y0191594D01*
X-0059971D01*
X-0060046Y0191968D01*
X-0060481Y0192619D01*
X-0061132Y0193054D01*
X-0061506Y0193129D01*
D02*
G37*
G36*
X-0062294D02*
X-0062668Y0193054D01*
X-0063319Y0192619D01*
X-0063754Y0191968D01*
X-0063829Y0191594D01*
X-0062294D01*
Y0193129D01*
D02*
G37*
G36*
X-0163130Y0192421D02*
X-0164665D01*
Y0190886D01*
X-0164291Y0190961D01*
X-0163640Y0191396D01*
X-0163205Y0192047D01*
X-0163130Y0192421D01*
D02*
G37*
G36*
X-0165453D02*
X-0166988D01*
X-0166913Y0192047D01*
X-0166478Y0191396D01*
X-0165827Y0190961D01*
X-0165453Y0190886D01*
Y0192421D01*
D02*
G37*
G36*
X-0124056Y0192402D02*
X-0125591D01*
Y0190867D01*
X-0125216Y0190941D01*
X-0124565Y0191376D01*
X-0124130Y0192027D01*
X-0124056Y0192402D01*
D02*
G37*
G36*
X-0126378D02*
X-0127913D01*
X-0127839Y0192027D01*
X-0127403Y0191376D01*
X-0126752Y0190941D01*
X-0126378Y0190867D01*
Y0192402D01*
D02*
G37*
G36*
X-0142900Y0190348D02*
X-0143348Y0190259D01*
X-0143570Y0190303D01*
X-0143877Y0190242D01*
X-0144138Y0190068D01*
X-0145434Y0188771D01*
X-0145452Y0188759D01*
X-0146992Y0187220D01*
X-0149476D01*
X-0149500Y0187709D01*
X-0149500D01*
Y0189088D01*
X-0155209D01*
X-0160918D01*
Y0187709D01*
X-0160623D01*
Y0184855D01*
X-0160623D01*
Y0184659D01*
X-0160623D01*
Y0181706D01*
X-0160623D01*
Y0181509D01*
X-0160623D01*
Y0180774D01*
X-0160773Y0180744D01*
X-0161131Y0180505D01*
X-0162454Y0179181D01*
X-0162694Y0178823D01*
X-0162778Y0178401D01*
Y0162937D01*
X-0162694Y0162514D01*
X-0162454Y0162156D01*
X-0161820Y0161522D01*
X-0161462Y0161283D01*
X-0161173Y0161225D01*
X-0160623Y0160675D01*
X-0160623Y0159658D01*
X-0160623Y0159158D01*
Y0156607D01*
X-0160918D01*
Y0155229D01*
X-0155209D01*
X-0149500D01*
Y0156607D01*
X-0149796D01*
Y0157168D01*
X-0149508D01*
X-0149162Y0157236D01*
X-0148869Y0157432D01*
X-0146605Y0159696D01*
X-0146410Y0159989D01*
X-0146341Y0160335D01*
Y0160796D01*
X-0146038Y0160998D01*
X-0145668Y0161552D01*
X-0145538Y0162205D01*
X-0145668Y0162858D01*
X-0146038Y0163411D01*
X-0146591Y0163781D01*
X-0147244Y0163911D01*
X-0147897Y0163781D01*
X-0148450Y0163411D01*
X-0148820Y0162858D01*
X-0148950Y0162205D01*
X-0148820Y0161552D01*
X-0148450Y0160998D01*
X-0148456Y0160400D01*
X-0149365Y0159491D01*
X-0149796Y0159767D01*
X-0149796Y0159962D01*
Y0162513D01*
X-0149500D01*
Y0163891D01*
X-0155209D01*
Y0164678D01*
X-0149500D01*
Y0166056D01*
X-0149796D01*
Y0166717D01*
X-0140097D01*
X-0139629Y0166404D01*
X-0138976Y0166274D01*
X-0138323Y0166404D01*
X-0137770Y0166774D01*
X-0137400Y0167327D01*
X-0137270Y0167980D01*
X-0137400Y0168633D01*
X-0137770Y0169187D01*
X-0138323Y0169556D01*
X-0138976Y0169686D01*
X-0139629Y0169556D01*
X-0140183Y0169187D01*
X-0140552Y0168633D01*
X-0140614Y0168323D01*
X-0149796D01*
Y0168911D01*
X-0149796D01*
Y0169107D01*
X-0149796D01*
Y0170555D01*
X-0143799D01*
X-0143492Y0170616D01*
X-0143231Y0170790D01*
X-0137484Y0176538D01*
X-0137008Y0176443D01*
X-0136355Y0176573D01*
X-0135801Y0176943D01*
X-0135432Y0177497D01*
X-0135302Y0178149D01*
X-0135432Y0178802D01*
X-0135480Y0178874D01*
X-0135244Y0179315D01*
X-0132082D01*
X-0131775Y0179376D01*
X-0131515Y0179550D01*
X-0129076Y0181989D01*
X-0128600Y0181894D01*
X-0127947Y0182024D01*
X-0127398Y0182391D01*
X-0127393Y0182394D01*
X-0126795Y0182389D01*
X-0126632Y0182144D01*
X-0125981Y0181709D01*
X-0125606Y0181634D01*
Y0183563D01*
Y0185492D01*
X-0125981Y0185417D01*
X-0126632Y0184982D01*
X-0126771Y0184774D01*
X-0127372D01*
X-0127394Y0184806D01*
X-0127947Y0185176D01*
X-0128600Y0185306D01*
X-0129253Y0185176D01*
X-0129806Y0184806D01*
X-0130176Y0184253D01*
X-0130306Y0183600D01*
X-0130211Y0183124D01*
X-0132415Y0180921D01*
X-0137823D01*
X-0138130Y0180860D01*
X-0138391Y0180685D01*
X-0138391Y0180685D01*
X-0143851Y0175225D01*
X-0149370D01*
X-0149796Y0175406D01*
Y0176104D01*
X-0149610Y0176141D01*
X-0149350Y0176315D01*
X-0147668Y0177997D01*
X-0145276D01*
X-0145006Y0177594D01*
X-0144453Y0177224D01*
X-0143800Y0177094D01*
X-0143147Y0177224D01*
X-0142594Y0177594D01*
X-0142224Y0178147D01*
X-0142094Y0178800D01*
X-0142224Y0179453D01*
X-0142594Y0180006D01*
X-0143147Y0180376D01*
X-0143800Y0180506D01*
X-0144453Y0180376D01*
X-0145006Y0180006D01*
X-0145276Y0179603D01*
X-0148000D01*
X-0148000Y0179603D01*
X-0148307Y0179542D01*
X-0148568Y0179368D01*
X-0148568Y0179368D01*
X-0149296Y0178640D01*
X-0149796Y0178847D01*
Y0181509D01*
X-0149796D01*
Y0181664D01*
X-0149695Y0182164D01*
X-0149214D01*
X-0148792Y0182248D01*
X-0148434Y0182487D01*
X-0147305Y0183617D01*
X-0145369D01*
X-0145301Y0183514D01*
X-0144747Y0183144D01*
X-0144095Y0183015D01*
X-0143442Y0183144D01*
X-0142888Y0183514D01*
X-0142518Y0184068D01*
X-0142388Y0184721D01*
X-0142518Y0185373D01*
X-0142888Y0185927D01*
X-0143442Y0186297D01*
X-0144095Y0186426D01*
X-0144747Y0186297D01*
X-0144995Y0186131D01*
X-0145079Y0186154D01*
X-0145227Y0186714D01*
X-0144627Y0187314D01*
X-0144106Y0187435D01*
X-0143553Y0187065D01*
X-0142900Y0186936D01*
X-0142247Y0187065D01*
X-0141694Y0187435D01*
X-0141324Y0187989D01*
X-0141194Y0188642D01*
X-0141324Y0189295D01*
X-0141694Y0189848D01*
X-0142247Y0190218D01*
X-0142900Y0190348D01*
D02*
G37*
G36*
X-0147756Y0196063D02*
X-0151614D01*
X-0151539Y0195689D01*
X-0151104Y0195037D01*
X-0150453Y0194602D01*
X-0150526Y0194107D01*
X-0160623D01*
Y0191253D01*
X-0160918D01*
Y0189875D01*
X-0155209D01*
X-0149500D01*
Y0191253D01*
X-0149796D01*
Y0193962D01*
X-0149749Y0194167D01*
X-0149503Y0194486D01*
X-0148917Y0194602D01*
X-0148266Y0195037D01*
X-0147831Y0195689D01*
X-0147756Y0196063D01*
D02*
G37*
G36*
X-0133639Y0191274D02*
X-0135174D01*
Y0189739D01*
X-0134800Y0189813D01*
X-0134148Y0190248D01*
X-0133713Y0190899D01*
X-0133639Y0191274D01*
D02*
G37*
G36*
X-0135961D02*
X-0137496D01*
X-0137422Y0190899D01*
X-0136987Y0190248D01*
X-0136336Y0189813D01*
X-0135961Y0189739D01*
Y0191274D01*
D02*
G37*
G36*
X-0059971Y0190806D02*
X-0061506D01*
Y0189271D01*
X-0061132Y0189346D01*
X-0060481Y0189781D01*
X-0060046Y0190432D01*
X-0059971Y0190806D01*
D02*
G37*
G36*
X-0062294D02*
X-0063829D01*
X-0063754Y0190432D01*
X-0063319Y0189781D01*
X-0062668Y0189346D01*
X-0062294Y0189271D01*
Y0190806D01*
D02*
G37*
G36*
X-0076378Y0199737D02*
X-0077031Y0199607D01*
X-0077584Y0199237D01*
X-0077954Y0198684D01*
X-0078084Y0198031D01*
X-0077954Y0197378D01*
X-0077584Y0196825D01*
X-0077031Y0196455D01*
X-0076495Y0196348D01*
X-0075513Y0195367D01*
Y0192219D01*
X-0075616Y0192151D01*
X-0075985Y0191597D01*
X-0076115Y0190945D01*
X-0075985Y0190292D01*
X-0075616Y0189738D01*
X-0075062Y0189368D01*
X-0074409Y0189239D01*
X-0073756Y0189368D01*
X-0073203Y0189738D01*
X-0072833Y0190292D01*
X-0072703Y0190945D01*
X-0072833Y0191597D01*
X-0073203Y0192151D01*
X-0073305Y0192219D01*
Y0195824D01*
X-0073389Y0196246D01*
X-0073629Y0196604D01*
X-0074735Y0197711D01*
X-0074672Y0198031D01*
X-0074802Y0198684D01*
X-0075172Y0199237D01*
X-0075725Y0199607D01*
X-0076378Y0199737D01*
D02*
G37*
G36*
X-0096850Y0190511D02*
Y0188976D01*
X-0095315D01*
X-0095390Y0189351D01*
X-0095825Y0190002D01*
X-0096476Y0190437D01*
X-0096850Y0190511D01*
D02*
G37*
G36*
X-0097638D02*
X-0098012Y0190437D01*
X-0098663Y0190002D01*
X-0099098Y0189351D01*
X-0099173Y0188976D01*
X-0097638D01*
Y0190511D01*
D02*
G37*
G36*
X-0103150D02*
Y0188976D01*
X-0101614D01*
X-0101689Y0189351D01*
X-0102124Y0190002D01*
X-0102775Y0190437D01*
X-0103150Y0190511D01*
D02*
G37*
G36*
X-0091631Y0190484D02*
Y0188949D01*
X-0090096D01*
X-0090171Y0189323D01*
X-0090606Y0189974D01*
X-0091257Y0190409D01*
X-0091631Y0190484D01*
D02*
G37*
G36*
X-0092419D02*
X-0092793Y0190409D01*
X-0093444Y0189974D01*
X-0093879Y0189323D01*
X-0093954Y0188949D01*
X-0092419D01*
Y0190484D01*
D02*
G37*
G36*
X-0053306Y0189629D02*
Y0188094D01*
X-0051771D01*
X-0051846Y0188468D01*
X-0052281Y0189119D01*
X-0052932Y0189554D01*
X-0053306Y0189629D01*
D02*
G37*
G36*
X-0054094D02*
X-0054468Y0189554D01*
X-0055119Y0189119D01*
X-0055554Y0188468D01*
X-0055629Y0188094D01*
X-0054094D01*
Y0189629D01*
D02*
G37*
G36*
X-0019875Y0189329D02*
Y0187794D01*
X-0018340D01*
X-0018415Y0188168D01*
X-0018850Y0188819D01*
X-0019501Y0189254D01*
X-0019875Y0189329D01*
D02*
G37*
G36*
X-0020662D02*
X-0021037Y0189254D01*
X-0021688Y0188819D01*
X-0022123Y0188168D01*
X-0022198Y0187794D01*
X-0020662D01*
Y0189329D01*
D02*
G37*
G36*
X-0187706D02*
Y0187794D01*
X-0186171D01*
X-0186246Y0188168D01*
X-0186681Y0188819D01*
X-0187332Y0189254D01*
X-0187706Y0189329D01*
D02*
G37*
G36*
X-0188494D02*
X-0188868Y0189254D01*
X-0189519Y0188819D01*
X-0189954Y0188168D01*
X-0190029Y0187794D01*
X-0188494D01*
Y0189329D01*
D02*
G37*
G36*
X-0004044Y0189000D02*
Y0187465D01*
X-0002510D01*
X-0002584Y0187839D01*
X-0003019Y0188490D01*
X-0003670Y0188925D01*
X-0004044Y0189000D01*
D02*
G37*
G36*
X-0004832D02*
X-0005206Y0188925D01*
X-0005857Y0188490D01*
X-0006293Y0187839D01*
X-0006367Y0187465D01*
X-0004832D01*
Y0189000D01*
D02*
G37*
G36*
X-0095315Y0188189D02*
X-0096850D01*
Y0186654D01*
X-0096476Y0186728D01*
X-0095825Y0187163D01*
X-0095390Y0187815D01*
X-0095315Y0188189D01*
D02*
G37*
G36*
X-0097638D02*
X-0099173D01*
X-0099098Y0187815D01*
X-0098663Y0187163D01*
X-0098012Y0186728D01*
X-0097638Y0186654D01*
Y0188189D01*
D02*
G37*
G36*
X-0101614D02*
X-0103150D01*
Y0186654D01*
X-0102775Y0186728D01*
X-0102124Y0187163D01*
X-0101689Y0187815D01*
X-0101614Y0188189D01*
D02*
G37*
G36*
X-0090096Y0188161D02*
X-0091631D01*
Y0186626D01*
X-0091257Y0186701D01*
X-0090606Y0187136D01*
X-0090171Y0187787D01*
X-0090096Y0188161D01*
D02*
G37*
G36*
X-0092419D02*
X-0093954D01*
X-0093879Y0187787D01*
X-0093444Y0187136D01*
X-0092793Y0186701D01*
X-0092419Y0186626D01*
Y0188161D01*
D02*
G37*
G36*
X-0051771Y0187306D02*
X-0053306D01*
Y0185771D01*
X-0052932Y0185846D01*
X-0052281Y0186281D01*
X-0051846Y0186932D01*
X-0051771Y0187306D01*
D02*
G37*
G36*
X-0054094D02*
X-0055629D01*
X-0055554Y0186932D01*
X-0055119Y0186281D01*
X-0054468Y0185846D01*
X-0054094Y0185771D01*
Y0187306D01*
D02*
G37*
G36*
X-0018340Y0187006D02*
X-0019875D01*
Y0185471D01*
X-0019501Y0185546D01*
X-0018850Y0185981D01*
X-0018415Y0186632D01*
X-0018340Y0187006D01*
D02*
G37*
G36*
X-0020662D02*
X-0022198D01*
X-0022123Y0186632D01*
X-0021688Y0185981D01*
X-0021037Y0185546D01*
X-0020662Y0185471D01*
Y0187006D01*
D02*
G37*
G36*
X-0186171D02*
X-0187706D01*
Y0185471D01*
X-0187332Y0185546D01*
X-0186681Y0185981D01*
X-0186246Y0186632D01*
X-0186171Y0187006D01*
D02*
G37*
G36*
X-0188494D02*
X-0190029D01*
X-0189954Y0186632D01*
X-0189519Y0185981D01*
X-0188868Y0185546D01*
X-0188494Y0185471D01*
Y0187006D01*
D02*
G37*
G36*
X-0002510Y0186677D02*
X-0004044D01*
Y0185142D01*
X-0003670Y0185217D01*
X-0003019Y0185652D01*
X-0002584Y0186303D01*
X-0002510Y0186677D01*
D02*
G37*
G36*
X-0004832D02*
X-0006367D01*
X-0006293Y0186303D01*
X-0005857Y0185652D01*
X-0005206Y0185217D01*
X-0004832Y0185142D01*
Y0186677D01*
D02*
G37*
G36*
X-0069965Y0186468D02*
Y0184933D01*
X-0068429D01*
X-0068504Y0185307D01*
X-0068939Y0185958D01*
X-0069590Y0186393D01*
X-0069965Y0186468D01*
D02*
G37*
G36*
X-0070752D02*
X-0071126Y0186393D01*
X-0071777Y0185958D01*
X-0072213Y0185307D01*
X-0072287Y0184933D01*
X-0070752D01*
Y0186468D01*
D02*
G37*
G36*
X-0135853Y0186181D02*
Y0184646D01*
X-0134318D01*
X-0134392Y0185020D01*
X-0134827Y0185671D01*
X-0135478Y0186106D01*
X-0135853Y0186181D01*
D02*
G37*
G36*
X-0136640D02*
X-0137015Y0186106D01*
X-0137666Y0185671D01*
X-0138101Y0185020D01*
X-0138175Y0184646D01*
X-0136640D01*
Y0186181D01*
D02*
G37*
G36*
X-0124819Y0185492D02*
Y0183957D01*
X-0123284D01*
X-0123358Y0184331D01*
X-0123793Y0184982D01*
X-0124444Y0185417D01*
X-0124819Y0185492D01*
D02*
G37*
G36*
X-0068429Y0184145D02*
X-0069965D01*
Y0182610D01*
X-0069590Y0182685D01*
X-0068939Y0183120D01*
X-0068504Y0183771D01*
X-0068429Y0184145D01*
D02*
G37*
G36*
X-0070752D02*
X-0072287D01*
X-0072213Y0183771D01*
X-0071777Y0183120D01*
X-0071126Y0182685D01*
X-0070752Y0182610D01*
Y0184145D01*
D02*
G37*
G36*
X-0134318Y0183858D02*
X-0135853D01*
Y0182323D01*
X-0135478Y0182398D01*
X-0134827Y0182833D01*
X-0134392Y0183484D01*
X-0134318Y0183858D01*
D02*
G37*
G36*
X-0136640D02*
X-0138175D01*
X-0138101Y0183484D01*
X-0137666Y0182833D01*
X-0137015Y0182398D01*
X-0136640Y0182323D01*
Y0183858D01*
D02*
G37*
G36*
X-0096669Y0183818D02*
Y0182283D01*
X-0095134D01*
X-0095209Y0182658D01*
X-0095644Y0183309D01*
X-0096295Y0183744D01*
X-0096669Y0183818D01*
D02*
G37*
G36*
X-0097457D02*
X-0097831Y0183744D01*
X-0098482Y0183309D01*
X-0098917Y0182658D01*
X-0098992Y0182283D01*
X-0097457D01*
Y0183818D01*
D02*
G37*
G36*
X-0123284Y0183169D02*
X-0124819D01*
Y0181634D01*
X-0124444Y0181709D01*
X-0123793Y0182144D01*
X-0123358Y0182795D01*
X-0123284Y0183169D01*
D02*
G37*
G36*
X-0019587Y0182021D02*
X-0020239Y0181891D01*
X-0020793Y0181521D01*
X-0021056Y0181127D01*
X-0021235D01*
X-0021788Y0181497D01*
X-0022441Y0181627D01*
X-0023094Y0181497D01*
X-0023647Y0181127D01*
X-0024017Y0180574D01*
X-0024147Y0179921D01*
X-0024017Y0179268D01*
X-0023647Y0178715D01*
X-0023094Y0178345D01*
X-0022557Y0178238D01*
Y0175424D01*
X-0022860Y0175222D01*
X-0023230Y0174668D01*
X-0023359Y0174015D01*
X-0023230Y0173363D01*
X-0022860Y0172809D01*
X-0022306Y0172439D01*
X-0021654Y0172309D01*
X-0021001Y0172439D01*
X-0020931Y0172486D01*
X-0020490Y0172250D01*
Y0168383D01*
X-0021899Y0166974D01*
X-0021940Y0166912D01*
X-0022466Y0166561D01*
X-0022836Y0166007D01*
X-0022966Y0165354D01*
X-0022836Y0164701D01*
X-0022466Y0164148D01*
X-0021913Y0163778D01*
X-0021260Y0163648D01*
X-0020607Y0163778D01*
X-0020517Y0163838D01*
X-0019918Y0163675D01*
X-0019897Y0163651D01*
X-0019908Y0163508D01*
X-0020080Y0163251D01*
X-0020210Y0162598D01*
X-0020080Y0161945D01*
X-0019710Y0161392D01*
X-0019157Y0161022D01*
X-0018504Y0160892D01*
X-0018297Y0160933D01*
X-0017848Y0160630D01*
X-0017718Y0159977D01*
X-0017348Y0159423D01*
X-0016795Y0159053D01*
X-0016142Y0158924D01*
X-0015489Y0159053D01*
X-0014935Y0159423D01*
X-0014871Y0159520D01*
X-0014227Y0159583D01*
X-0013045Y0158402D01*
X-0013050Y0158395D01*
X-0013402Y0157545D01*
X-0013522Y0156634D01*
X-0013402Y0155722D01*
X-0013050Y0154873D01*
X-0012491Y0154143D01*
X-0011761Y0153584D01*
X-0010912Y0153232D01*
X-0010000Y0153112D01*
X-0009088Y0153232D01*
X-0008239Y0153584D01*
X-0007509Y0154143D01*
X-0006950Y0154873D01*
X-0006598Y0155722D01*
X-0006478Y0156634D01*
X-0006598Y0157545D01*
X-0006950Y0158395D01*
X-0007509Y0159125D01*
X-0008239Y0159684D01*
X-0009088Y0160036D01*
X-0010000Y0160156D01*
X-0010912Y0160036D01*
X-0011761Y0159684D01*
X-0011768Y0159679D01*
X-0012983Y0160894D01*
Y0164007D01*
X-0012671Y0164112D01*
X-0012483Y0164137D01*
X-0011761Y0163584D01*
X-0010912Y0163232D01*
X-0010000Y0163112D01*
X-0009088Y0163232D01*
X-0008239Y0163584D01*
X-0007509Y0164143D01*
X-0006950Y0164873D01*
X-0006598Y0165722D01*
X-0006478Y0166634D01*
X-0006598Y0167545D01*
X-0006950Y0168395D01*
X-0007509Y0169124D01*
X-0008239Y0169684D01*
X-0009088Y0170036D01*
X-0010000Y0170156D01*
X-0010912Y0170036D01*
X-0011761Y0169684D01*
X-0012483Y0169131D01*
X-0012671Y0169155D01*
X-0012983Y0169261D01*
Y0174007D01*
X-0012671Y0174112D01*
X-0012483Y0174137D01*
X-0011761Y0173583D01*
X-0010912Y0173232D01*
X-0010000Y0173112D01*
X-0009088Y0173232D01*
X-0008239Y0173583D01*
X-0007509Y0174143D01*
X-0006950Y0174873D01*
X-0006598Y0175722D01*
X-0006478Y0176634D01*
X-0006598Y0177545D01*
X-0006950Y0178395D01*
X-0007509Y0179124D01*
X-0008239Y0179684D01*
X-0009088Y0180036D01*
X-0010000Y0180156D01*
X-0010912Y0180036D01*
X-0011510Y0179788D01*
X-0012028Y0180013D01*
X-0012076Y0180073D01*
X-0012105Y0180215D01*
X-0012474Y0180768D01*
X-0013028Y0181138D01*
X-0013681Y0181268D01*
X-0014334Y0181138D01*
X-0014887Y0180768D01*
X-0015147Y0180380D01*
X-0015257Y0180215D01*
X-0015763Y0180236D01*
X-0015882Y0180316D01*
X-0016535Y0180446D01*
X-0017188Y0180316D01*
X-0017399Y0180175D01*
X-0017568Y0180224D01*
X-0017905Y0180438D01*
X-0018010Y0180968D01*
X-0018380Y0181521D01*
X-0018934Y0181891D01*
X-0019587Y0182021D01*
D02*
G37*
G36*
X-0097457Y0181496D02*
X-0098992D01*
X-0098917Y0181122D01*
X-0098482Y0180471D01*
X-0097831Y0180035D01*
X-0097457Y0179961D01*
Y0181496D01*
D02*
G37*
G36*
X-0175591Y0182372D02*
X-0176243Y0182242D01*
X-0176797Y0181872D01*
X-0177167Y0181319D01*
X-0177297Y0180666D01*
X-0177167Y0180013D01*
X-0176797Y0179459D01*
X-0176243Y0179090D01*
X-0175591Y0178960D01*
X-0174938Y0179090D01*
X-0174384Y0179459D01*
X-0174014Y0180013D01*
X-0173884Y0180666D01*
X-0174014Y0181319D01*
X-0174384Y0181872D01*
X-0174938Y0182242D01*
X-0175591Y0182372D01*
D02*
G37*
G36*
X-0184646D02*
X-0185299Y0182242D01*
X-0185852Y0181872D01*
X-0186222Y0181319D01*
X-0186352Y0180666D01*
X-0186222Y0180013D01*
X-0185852Y0179459D01*
X-0185299Y0179090D01*
X-0184646Y0178960D01*
X-0183993Y0179090D01*
X-0183439Y0179459D01*
X-0183070Y0180013D01*
X-0182940Y0180666D01*
X-0183070Y0181319D01*
X-0183439Y0181872D01*
X-0183993Y0182242D01*
X-0184646Y0182372D01*
D02*
G37*
G36*
X-0198506Y0180078D02*
Y0178543D01*
X-0196971D01*
X-0197046Y0178917D01*
X-0197481Y0179569D01*
X-0198132Y0180004D01*
X-0198506Y0180078D01*
D02*
G37*
G36*
X-0199294D02*
X-0199668Y0180004D01*
X-0200319Y0179569D01*
X-0200754Y0178917D01*
X-0200829Y0178543D01*
X-0199294D01*
Y0180078D01*
D02*
G37*
G36*
X-0196971Y0177756D02*
X-0198506D01*
Y0176221D01*
X-0198132Y0176295D01*
X-0197481Y0176730D01*
X-0197046Y0177381D01*
X-0196971Y0177756D01*
D02*
G37*
G36*
X-0199294D02*
X-0200829D01*
X-0200754Y0177381D01*
X-0200319Y0176730D01*
X-0199668Y0176295D01*
X-0199294Y0176221D01*
Y0177756D01*
D02*
G37*
G36*
X-0054106Y0173829D02*
Y0172294D01*
X-0052571D01*
X-0052646Y0172668D01*
X-0053081Y0173319D01*
X-0053732Y0173754D01*
X-0054106Y0173829D01*
D02*
G37*
G36*
X-0054894D02*
X-0055268Y0173754D01*
X-0055919Y0173319D01*
X-0056354Y0172668D01*
X-0056429Y0172294D01*
X-0054894D01*
Y0173829D01*
D02*
G37*
G36*
X-0077906Y0173729D02*
Y0172194D01*
X-0076371D01*
X-0076446Y0172568D01*
X-0076881Y0173219D01*
X-0077532Y0173654D01*
X-0077906Y0173729D01*
D02*
G37*
G36*
X-0078694D02*
X-0079068Y0173654D01*
X-0079719Y0173219D01*
X-0080154Y0172568D01*
X-0080229Y0172194D01*
X-0078694D01*
Y0173729D01*
D02*
G37*
G36*
X-0026906Y0173483D02*
Y0171948D01*
X-0025371D01*
X-0025446Y0172322D01*
X-0025881Y0172973D01*
X-0026532Y0173408D01*
X-0026906Y0173483D01*
D02*
G37*
G36*
X-0027694D02*
X-0028068Y0173408D01*
X-0028719Y0172973D01*
X-0029154Y0172322D01*
X-0029229Y0171948D01*
X-0027694D01*
Y0173483D01*
D02*
G37*
G36*
X-0129306Y0172629D02*
Y0171094D01*
X-0127771D01*
X-0127846Y0171468D01*
X-0128281Y0172119D01*
X-0128932Y0172554D01*
X-0129306Y0172629D01*
D02*
G37*
G36*
X-0130094D02*
X-0130468Y0172554D01*
X-0131119Y0172119D01*
X-0131554Y0171468D01*
X-0131629Y0171094D01*
X-0130094D01*
Y0172629D01*
D02*
G37*
G36*
X-0052571Y0171506D02*
X-0054106D01*
Y0169971D01*
X-0053732Y0170046D01*
X-0053081Y0170481D01*
X-0052646Y0171132D01*
X-0052571Y0171506D01*
D02*
G37*
G36*
X-0054894D02*
X-0056429D01*
X-0056354Y0171132D01*
X-0055919Y0170481D01*
X-0055268Y0170046D01*
X-0054894Y0169971D01*
Y0171506D01*
D02*
G37*
G36*
X-0076371Y0171406D02*
X-0077906D01*
Y0169871D01*
X-0077532Y0169946D01*
X-0076881Y0170381D01*
X-0076446Y0171032D01*
X-0076371Y0171406D01*
D02*
G37*
G36*
X-0078694D02*
X-0080229D01*
X-0080154Y0171032D01*
X-0079719Y0170381D01*
X-0079068Y0169946D01*
X-0078694Y0169871D01*
Y0171406D01*
D02*
G37*
G36*
X-0025371Y0171160D02*
X-0026906D01*
Y0169625D01*
X-0026532Y0169700D01*
X-0025881Y0170135D01*
X-0025446Y0170786D01*
X-0025371Y0171160D01*
D02*
G37*
G36*
X-0027694D02*
X-0029229D01*
X-0029154Y0170786D01*
X-0028719Y0170135D01*
X-0028068Y0169700D01*
X-0027694Y0169625D01*
Y0171160D01*
D02*
G37*
G36*
X-0127771Y0170306D02*
X-0129306D01*
Y0168771D01*
X-0128932Y0168846D01*
X-0128281Y0169281D01*
X-0127846Y0169932D01*
X-0127771Y0170306D01*
D02*
G37*
G36*
X-0130094D02*
X-0131629D01*
X-0131554Y0169932D01*
X-0131119Y0169281D01*
X-0130468Y0168846D01*
X-0130094Y0168771D01*
Y0170306D01*
D02*
G37*
G36*
X-0098520Y0166142D02*
X-0100055D01*
Y0164607D01*
X-0099681Y0164681D01*
X-0099029Y0165116D01*
X-0098594Y0165767D01*
X-0098520Y0166142D01*
D02*
G37*
G36*
X-0052806Y0166129D02*
Y0164594D01*
X-0051271D01*
X-0051346Y0164968D01*
X-0051781Y0165619D01*
X-0052432Y0166054D01*
X-0052806Y0166129D01*
D02*
G37*
G36*
X-0053594D02*
X-0053968Y0166054D01*
X-0054619Y0165619D01*
X-0055054Y0164968D01*
X-0055129Y0164594D01*
X-0053594D01*
Y0166129D01*
D02*
G37*
G36*
X-0079303Y0165795D02*
Y0164260D01*
X-0077768D01*
X-0077842Y0164634D01*
X-0078277Y0165285D01*
X-0078928Y0165720D01*
X-0079303Y0165795D01*
D02*
G37*
G36*
X-0080090D02*
X-0080464Y0165720D01*
X-0081116Y0165285D01*
X-0081551Y0164634D01*
X-0081625Y0164260D01*
X-0080090D01*
Y0165795D01*
D02*
G37*
G36*
X-0025906Y0164829D02*
Y0163294D01*
X-0024371D01*
X-0024446Y0163668D01*
X-0024881Y0164319D01*
X-0025532Y0164754D01*
X-0025906Y0164829D01*
D02*
G37*
G36*
X-0026694D02*
X-0027068Y0164754D01*
X-0027719Y0164319D01*
X-0028154Y0163668D01*
X-0028229Y0163294D01*
X-0026694D01*
Y0164829D01*
D02*
G37*
G36*
X-0051271Y0163806D02*
X-0052806D01*
Y0162271D01*
X-0052432Y0162346D01*
X-0051781Y0162781D01*
X-0051346Y0163432D01*
X-0051271Y0163806D01*
D02*
G37*
G36*
X-0053594D02*
X-0055129D01*
X-0055054Y0163432D01*
X-0054619Y0162781D01*
X-0053968Y0162346D01*
X-0053594Y0162271D01*
Y0163806D01*
D02*
G37*
G36*
X-0077768Y0163472D02*
X-0079303D01*
Y0161937D01*
X-0078928Y0162012D01*
X-0078277Y0162447D01*
X-0077842Y0163098D01*
X-0077768Y0163472D01*
D02*
G37*
G36*
X-0080090D02*
X-0081625D01*
X-0081551Y0163098D01*
X-0081116Y0162447D01*
X-0080464Y0162012D01*
X-0080090Y0161937D01*
Y0163472D01*
D02*
G37*
G36*
X-0024371Y0162506D02*
X-0025906D01*
Y0160971D01*
X-0025532Y0161046D01*
X-0024881Y0161481D01*
X-0024446Y0162132D01*
X-0024371Y0162506D01*
D02*
G37*
G36*
X-0026694D02*
X-0028229D01*
X-0028154Y0162132D01*
X-0027719Y0161481D01*
X-0027068Y0161046D01*
X-0026694Y0160971D01*
Y0162506D01*
D02*
G37*
G36*
X-0175591Y0155643D02*
X-0176243Y0155513D01*
X-0176797Y0155143D01*
X-0177167Y0154590D01*
X-0177297Y0153937D01*
X-0177167Y0153284D01*
X-0176797Y0152731D01*
X-0176243Y0152361D01*
X-0175591Y0152231D01*
X-0174938Y0152361D01*
X-0174384Y0152731D01*
X-0174014Y0153284D01*
X-0173884Y0153937D01*
X-0174014Y0154590D01*
X-0174384Y0155143D01*
X-0174938Y0155513D01*
X-0175591Y0155643D01*
D02*
G37*
G36*
X-0184646D02*
X-0185299Y0155513D01*
X-0185852Y0155143D01*
X-0186222Y0154590D01*
X-0186352Y0153937D01*
X-0186222Y0153284D01*
X-0185852Y0152731D01*
X-0185299Y0152361D01*
X-0184646Y0152231D01*
X-0183993Y0152361D01*
X-0183439Y0152731D01*
X-0183070Y0153284D01*
X-0182940Y0153937D01*
X-0183070Y0154590D01*
X-0183439Y0155143D01*
X-0183993Y0155513D01*
X-0184646Y0155643D01*
D02*
G37*
G36*
X-0197644Y0152629D02*
Y0151094D01*
X-0196109D01*
X-0196184Y0151468D01*
X-0196619Y0152119D01*
X-0197270Y0152554D01*
X-0197644Y0152629D01*
D02*
G37*
G36*
X-0198432D02*
X-0198806Y0152554D01*
X-0199457Y0152119D01*
X-0199892Y0151468D01*
X-0199967Y0151094D01*
X-0198432D01*
Y0152629D01*
D02*
G37*
G36*
X-0149500Y0154442D02*
X-0155209D01*
X-0160918D01*
Y0153063D01*
X-0160623D01*
Y0150210D01*
X-0149796D01*
Y0153063D01*
X-0149500D01*
Y0154442D01*
D02*
G37*
G36*
X-0196109Y0150306D02*
X-0197644D01*
Y0148771D01*
X-0197270Y0148846D01*
X-0196619Y0149281D01*
X-0196184Y0149932D01*
X-0196109Y0150306D01*
D02*
G37*
G36*
X-0198432D02*
X-0199967D01*
X-0199892Y0149932D01*
X-0199457Y0149281D01*
X-0198806Y0148846D01*
X-0198432Y0148771D01*
Y0150306D01*
D02*
G37*
G36*
X-0095918Y0150129D02*
Y0148594D01*
X-0094383D01*
X-0094457Y0148968D01*
X-0094892Y0149619D01*
X-0095543Y0150054D01*
X-0095918Y0150129D01*
D02*
G37*
G36*
X-0096705D02*
X-0097079Y0150054D01*
X-0097731Y0149619D01*
X-0098166Y0148968D01*
X-0098240Y0148594D01*
X-0096705D01*
Y0150129D01*
D02*
G37*
G36*
X-0111980D02*
Y0148594D01*
X-0110444D01*
X-0110519Y0148968D01*
X-0110954Y0149619D01*
X-0111605Y0150054D01*
X-0111980Y0150129D01*
D02*
G37*
G36*
X-0112767D02*
X-0113141Y0150054D01*
X-0113793Y0149619D01*
X-0114227Y0148968D01*
X-0114302Y0148594D01*
X-0112767D01*
Y0150129D01*
D02*
G37*
G36*
X-0094383Y0147806D02*
X-0095918D01*
Y0146271D01*
X-0095543Y0146346D01*
X-0094892Y0146781D01*
X-0094457Y0147432D01*
X-0094383Y0147806D01*
D02*
G37*
G36*
X-0096705D02*
X-0098240D01*
X-0098166Y0147432D01*
X-0097731Y0146781D01*
X-0097079Y0146346D01*
X-0096705Y0146271D01*
Y0147806D01*
D02*
G37*
G36*
X-0110444D02*
X-0111980D01*
Y0146271D01*
X-0111605Y0146346D01*
X-0110954Y0146781D01*
X-0110519Y0147432D01*
X-0110444Y0147806D01*
D02*
G37*
G36*
X-0112767D02*
X-0114302D01*
X-0114227Y0147432D01*
X-0113793Y0146781D01*
X-0113141Y0146346D01*
X-0112767Y0146271D01*
Y0147806D01*
D02*
G37*
G36*
X-0010000Y0150156D02*
X-0010912Y0150036D01*
X-0011761Y0149684D01*
X-0012491Y0149125D01*
X-0013050Y0148395D01*
X-0013402Y0147546D01*
X-0013522Y0146634D01*
X-0013402Y0145722D01*
X-0013050Y0144873D01*
X-0012491Y0144143D01*
X-0011761Y0143584D01*
X-0010912Y0143232D01*
X-0010000Y0143112D01*
X-0009088Y0143232D01*
X-0008239Y0143584D01*
X-0007509Y0144143D01*
X-0006950Y0144873D01*
X-0006598Y0145722D01*
X-0006478Y0146634D01*
X-0006598Y0147546D01*
X-0006950Y0148395D01*
X-0007509Y0149125D01*
X-0008239Y0149684D01*
X-0009088Y0150036D01*
X-0010000Y0150156D01*
D02*
G37*
G36*
X-0172926Y0143546D02*
X-0173502Y0143431D01*
X-0173990Y0143105D01*
X-0174317Y0142617D01*
X-0174431Y0142040D01*
X-0174317Y0141464D01*
X-0173990Y0140976D01*
X-0173502Y0140649D01*
X-0172926Y0140535D01*
X-0172349Y0140649D01*
X-0171861Y0140976D01*
X-0171535Y0141464D01*
X-0171420Y0142040D01*
X-0171535Y0142617D01*
X-0171861Y0143105D01*
X-0172349Y0143431D01*
X-0172926Y0143546D01*
D02*
G37*
G36*
X-0025906Y0140529D02*
Y0138994D01*
X-0024371D01*
X-0024446Y0139368D01*
X-0024881Y0140019D01*
X-0025532Y0140454D01*
X-0025906Y0140529D01*
D02*
G37*
G36*
X-0026694D02*
X-0027068Y0140454D01*
X-0027719Y0140019D01*
X-0028154Y0139368D01*
X-0028229Y0138994D01*
X-0026694D01*
Y0140529D01*
D02*
G37*
G36*
X-0024371Y0138206D02*
X-0025906D01*
Y0136671D01*
X-0025532Y0136746D01*
X-0024881Y0137181D01*
X-0024446Y0137832D01*
X-0024371Y0138206D01*
D02*
G37*
G36*
X-0026694D02*
X-0028229D01*
X-0028154Y0137832D01*
X-0027719Y0137181D01*
X-0027068Y0136746D01*
X-0026694Y0136671D01*
Y0138206D01*
D02*
G37*
G36*
X-0010000Y0140156D02*
X-0010912Y0140036D01*
X-0011761Y0139684D01*
X-0012491Y0139125D01*
X-0013050Y0138395D01*
X-0013402Y0137546D01*
X-0013522Y0136634D01*
X-0013402Y0135722D01*
X-0013050Y0134873D01*
X-0012491Y0134143D01*
X-0011761Y0133583D01*
X-0010912Y0133232D01*
X-0010000Y0133112D01*
X-0009088Y0133232D01*
X-0008239Y0133583D01*
X-0007509Y0134143D01*
X-0006950Y0134873D01*
X-0006598Y0135722D01*
X-0006478Y0136634D01*
X-0006598Y0137546D01*
X-0006950Y0138395D01*
X-0007509Y0139125D01*
X-0008239Y0139684D01*
X-0009088Y0140036D01*
X-0010000Y0140156D01*
D02*
G37*
G36*
X-0160090Y0127629D02*
Y0126094D01*
X-0158555D01*
X-0158630Y0126468D01*
X-0159065Y0127119D01*
X-0159716Y0127554D01*
X-0160090Y0127629D01*
D02*
G37*
G36*
X-0160878D02*
X-0161252Y0127554D01*
X-0161903Y0127119D01*
X-0162338Y0126468D01*
X-0162413Y0126094D01*
X-0160878D01*
Y0127629D01*
D02*
G37*
G36*
X-0158555Y0125306D02*
X-0160090D01*
Y0123771D01*
X-0159716Y0123846D01*
X-0159065Y0124281D01*
X-0158630Y0124932D01*
X-0158555Y0125306D01*
D02*
G37*
G36*
X-0160878D02*
X-0162413D01*
X-0162338Y0124932D01*
X-0161903Y0124281D01*
X-0161252Y0123846D01*
X-0160878Y0123771D01*
Y0125306D01*
D02*
G37*
G36*
X-0010000Y0130156D02*
X-0010912Y0130036D01*
X-0011761Y0129684D01*
X-0012491Y0129124D01*
X-0013050Y0128395D01*
X-0013402Y0127545D01*
X-0013522Y0126634D01*
X-0013402Y0125722D01*
X-0013050Y0124873D01*
X-0012491Y0124143D01*
X-0011761Y0123583D01*
X-0010912Y0123232D01*
X-0010000Y0123112D01*
X-0009088Y0123232D01*
X-0008239Y0123583D01*
X-0007509Y0124143D01*
X-0006950Y0124873D01*
X-0006598Y0125722D01*
X-0006478Y0126634D01*
X-0006598Y0127545D01*
X-0006950Y0128395D01*
X-0007509Y0129124D01*
X-0008239Y0129684D01*
X-0009088Y0130036D01*
X-0010000Y0130156D01*
D02*
G37*
G36*
X-0018606Y0119529D02*
Y0117994D01*
X-0017071D01*
X-0017146Y0118368D01*
X-0017581Y0119019D01*
X-0018232Y0119454D01*
X-0018606Y0119529D01*
D02*
G37*
G36*
X-0019394D02*
X-0019768Y0119454D01*
X-0020419Y0119019D01*
X-0020854Y0118368D01*
X-0020929Y0117994D01*
X-0019394D01*
Y0119529D01*
D02*
G37*
G36*
X-0006213Y0120421D02*
X-0009606D01*
Y0117028D01*
X-0006213D01*
Y0120421D01*
D02*
G37*
G36*
X-0010394D02*
X-0013787D01*
Y0117028D01*
X-0010394D01*
Y0120421D01*
D02*
G37*
G36*
X-0017071Y0117206D02*
X-0018606D01*
Y0115671D01*
X-0018232Y0115746D01*
X-0017581Y0116181D01*
X-0017146Y0116832D01*
X-0017071Y0117206D01*
D02*
G37*
G36*
X-0019394D02*
X-0020929D01*
X-0020854Y0116832D01*
X-0020419Y0116181D01*
X-0019768Y0115746D01*
X-0019394Y0115671D01*
Y0117206D01*
D02*
G37*
G36*
X-0006213Y0116240D02*
X-0009606D01*
Y0112847D01*
X-0006213D01*
Y0116240D01*
D02*
G37*
G36*
X-0010394D02*
X-0013787D01*
Y0112847D01*
X-0010394D01*
Y0116240D01*
D02*
G37*
G36*
X-0096428Y0110363D02*
Y0108828D01*
X-0094893D01*
X-0094967Y0109202D01*
X-0095402Y0109853D01*
X-0096053Y0110288D01*
X-0096428Y0110363D01*
D02*
G37*
G36*
X-0097215D02*
X-0097589Y0110288D01*
X-0098241Y0109853D01*
X-0098676Y0109202D01*
X-0098750Y0108828D01*
X-0097215D01*
Y0110363D01*
D02*
G37*
G36*
X-0111464D02*
Y0108828D01*
X-0109929D01*
X-0110003Y0109202D01*
X-0110438Y0109853D01*
X-0111089Y0110288D01*
X-0111464Y0110363D01*
D02*
G37*
G36*
X-0112251D02*
X-0112626Y0110288D01*
X-0113277Y0109853D01*
X-0113712Y0109202D01*
X-0113786Y0108828D01*
X-0112251D01*
Y0110363D01*
D02*
G37*
G36*
X-0094893Y0108040D02*
X-0096428D01*
Y0106505D01*
X-0096053Y0106580D01*
X-0095402Y0107015D01*
X-0094967Y0107666D01*
X-0094893Y0108040D01*
D02*
G37*
G36*
X-0097215D02*
X-0098750D01*
X-0098676Y0107666D01*
X-0098241Y0107015D01*
X-0097589Y0106580D01*
X-0097215Y0106505D01*
Y0108040D01*
D02*
G37*
G36*
X-0109929D02*
X-0111464D01*
Y0106505D01*
X-0111089Y0106580D01*
X-0110438Y0107015D01*
X-0110003Y0107666D01*
X-0109929Y0108040D01*
D02*
G37*
G36*
X-0112251D02*
X-0113786D01*
X-0113712Y0107666D01*
X-0113277Y0107015D01*
X-0112626Y0106580D01*
X-0112251Y0106505D01*
Y0108040D01*
D02*
G37*
G36*
X-0143522Y0103129D02*
Y0101594D01*
X-0141987D01*
X-0142061Y0101968D01*
X-0142497Y0102619D01*
X-0143148Y0103054D01*
X-0143522Y0103129D01*
D02*
G37*
G36*
X-0144309D02*
X-0144684Y0103054D01*
X-0145335Y0102619D01*
X-0145770Y0101968D01*
X-0145844Y0101594D01*
X-0144309D01*
Y0103129D01*
D02*
G37*
G36*
X-0141987Y0100806D02*
X-0143522D01*
Y0099271D01*
X-0143148Y0099346D01*
X-0142497Y0099781D01*
X-0142061Y0100432D01*
X-0141987Y0100806D01*
D02*
G37*
G36*
X-0144309D02*
X-0145844D01*
X-0145770Y0100432D01*
X-0145335Y0099781D01*
X-0144684Y0099346D01*
X-0144309Y0099271D01*
Y0100806D01*
D02*
G37*
G36*
X-0006206Y0099429D02*
Y0097894D01*
X-0004671D01*
X-0004746Y0098268D01*
X-0005181Y0098919D01*
X-0005832Y0099354D01*
X-0006206Y0099429D01*
D02*
G37*
G36*
X-0006994D02*
X-0007368Y0099354D01*
X-0008019Y0098919D01*
X-0008454Y0098268D01*
X-0008529Y0097894D01*
X-0006994D01*
Y0099429D01*
D02*
G37*
G36*
X-0062894Y0103445D02*
X-0071358D01*
Y0097342D01*
X-0062894D01*
Y0103445D01*
D02*
G37*
G36*
X-0192506Y0098829D02*
Y0097294D01*
X-0190971D01*
X-0191046Y0097668D01*
X-0191481Y0098319D01*
X-0192132Y0098754D01*
X-0192506Y0098829D01*
D02*
G37*
G36*
X-0193294D02*
X-0193668Y0098754D01*
X-0194319Y0098319D01*
X-0194754Y0097668D01*
X-0194829Y0097294D01*
X-0193294D01*
Y0098829D01*
D02*
G37*
G36*
X-0004671Y0097106D02*
X-0006206D01*
Y0095571D01*
X-0005832Y0095646D01*
X-0005181Y0096081D01*
X-0004746Y0096732D01*
X-0004671Y0097106D01*
D02*
G37*
G36*
X-0006994D02*
X-0008529D01*
X-0008454Y0096732D01*
X-0008019Y0096081D01*
X-0007368Y0095646D01*
X-0006994Y0095571D01*
Y0097106D01*
D02*
G37*
G36*
X-0190971Y0096506D02*
X-0192506D01*
Y0094971D01*
X-0192132Y0095046D01*
X-0191481Y0095481D01*
X-0191046Y0096132D01*
X-0190971Y0096506D01*
D02*
G37*
G36*
X-0193294D02*
X-0194829D01*
X-0194754Y0096132D01*
X-0194319Y0095481D01*
X-0193668Y0095046D01*
X-0193294Y0094971D01*
Y0096506D01*
D02*
G37*
G36*
X-0100000Y0094329D02*
Y0092794D01*
X-0098465D01*
X-0098539Y0093168D01*
X-0098975Y0093819D01*
X-0099626Y0094254D01*
X-0100000Y0094329D01*
D02*
G37*
G36*
X-0100787D02*
X-0101162Y0094254D01*
X-0101813Y0093819D01*
X-0102248Y0093168D01*
X-0102322Y0092794D01*
X-0100787D01*
Y0094329D01*
D02*
G37*
G36*
X-0098465Y0092006D02*
X-0100000D01*
Y0090471D01*
X-0099626Y0090546D01*
X-0098975Y0090981D01*
X-0098539Y0091632D01*
X-0098465Y0092006D01*
D02*
G37*
G36*
X-0100787D02*
X-0102322D01*
X-0102248Y0091632D01*
X-0101813Y0090981D01*
X-0101162Y0090546D01*
X-0100787Y0090471D01*
Y0092006D01*
D02*
G37*
G36*
X-0043106Y0089229D02*
Y0087694D01*
X-0041571D01*
X-0041646Y0088068D01*
X-0042081Y0088719D01*
X-0042732Y0089154D01*
X-0043106Y0089229D01*
D02*
G37*
G36*
X-0043894D02*
X-0044268Y0089154D01*
X-0044919Y0088719D01*
X-0045354Y0088068D01*
X-0045429Y0087694D01*
X-0043894D01*
Y0089229D01*
D02*
G37*
G36*
X-0041571Y0086906D02*
X-0043106D01*
Y0085371D01*
X-0042732Y0085446D01*
X-0042081Y0085881D01*
X-0041646Y0086532D01*
X-0041571Y0086906D01*
D02*
G37*
G36*
X-0043894D02*
X-0045429D01*
X-0045354Y0086532D01*
X-0044919Y0085881D01*
X-0044268Y0085446D01*
X-0043894Y0085371D01*
Y0086906D01*
D02*
G37*
G36*
X-0001772Y0076870D02*
X-0010236D01*
Y0070768D01*
X-0001772D01*
Y0076870D01*
D02*
G37*
G36*
X-0159479Y0062647D02*
X-0162402Y0059724D01*
X-0160314Y0057637D01*
X-0157391Y0060560D01*
X-0159479Y0062647D01*
D02*
G37*
G36*
X-0150448Y0061551D02*
X-0152536Y0059463D01*
X-0149613Y0056540D01*
X-0147525Y0058628D01*
X-0150448Y0061551D01*
D02*
G37*
G36*
X-0196905D02*
X-0198993Y0059463D01*
X-0196070Y0056540D01*
X-0193982Y0058628D01*
X-0196905Y0061551D01*
D02*
G37*
G36*
X-0032776Y0059449D02*
X-0036909D01*
Y0056496D01*
X-0032776D01*
Y0059449D01*
D02*
G37*
G36*
X-0037697D02*
X-0041831D01*
Y0056496D01*
X-0037697D01*
Y0059449D01*
D02*
G37*
G36*
X-0162959Y0059168D02*
X-0165882Y0056245D01*
X-0163794Y0054157D01*
X-0160871Y0057080D01*
X-0162959Y0059168D01*
D02*
G37*
G36*
X-0156834Y0060003D02*
X-0159757Y0057080D01*
X-0157669Y0054992D01*
X-0155567Y0057095D01*
X-0155181Y0056818D01*
X-0155158Y0056796D01*
X-0152258Y0053895D01*
X-0150170Y0055983D01*
X-0153093Y0058906D01*
X-0154361Y0057639D01*
X-0154746Y0057915D01*
X-0154769Y0057938D01*
X-0156834Y0060003D01*
D02*
G37*
G36*
X-0193425Y0058071D02*
X-0195513Y0055983D01*
X-0192590Y0053060D01*
X-0190502Y0055148D01*
X-0193425Y0058071D01*
D02*
G37*
G36*
X-0001772Y0059153D02*
X-0010236D01*
Y0053051D01*
X-0001772D01*
Y0059153D01*
D02*
G37*
G36*
X-0032776Y0055709D02*
X-0036909D01*
Y0052756D01*
X-0032776D01*
Y0055709D01*
D02*
G37*
G36*
X-0037697D02*
X-0041831D01*
Y0052756D01*
X-0037697D01*
Y0055709D01*
D02*
G37*
G36*
X-0076906Y0054029D02*
Y0052494D01*
X-0075371D01*
X-0075446Y0052868D01*
X-0075881Y0053519D01*
X-0076532Y0053954D01*
X-0076906Y0054029D01*
D02*
G37*
G36*
X-0077694D02*
X-0078068Y0053954D01*
X-0078719Y0053519D01*
X-0079154Y0052868D01*
X-0079229Y0052494D01*
X-0077694D01*
Y0054029D01*
D02*
G37*
G36*
X-0155366Y0053222D02*
Y0051687D01*
X-0153831D01*
X-0153905Y0052061D01*
X-0154340Y0052713D01*
X-0154991Y0053148D01*
X-0155366Y0053222D01*
D02*
G37*
G36*
X-0156153D02*
X-0156528Y0053148D01*
X-0157179Y0052713D01*
X-0157614Y0052061D01*
X-0157688Y0051687D01*
X-0156153D01*
Y0053222D01*
D02*
G37*
G36*
X-0160314Y0056523D02*
X-0163237Y0053600D01*
X-0161149Y0051512D01*
X-0158226Y0054435D01*
X-0160314Y0056523D01*
D02*
G37*
G36*
X-0196070Y0055427D02*
X-0198158Y0053339D01*
X-0195235Y0050415D01*
X-0193147Y0052503D01*
X-0196070Y0055427D01*
D02*
G37*
G36*
X-0075371Y0051706D02*
X-0076906D01*
Y0050171D01*
X-0076532Y0050246D01*
X-0075881Y0050681D01*
X-0075446Y0051332D01*
X-0075371Y0051706D01*
D02*
G37*
G36*
X-0077694D02*
X-0079229D01*
X-0079154Y0051332D01*
X-0078719Y0050681D01*
X-0078068Y0050246D01*
X-0077694Y0050171D01*
Y0051706D01*
D02*
G37*
G36*
X-0153831Y0050900D02*
X-0155366D01*
Y0049365D01*
X-0154991Y0049439D01*
X-0154340Y0049874D01*
X-0153905Y0050525D01*
X-0153831Y0050900D01*
D02*
G37*
G36*
X-0156153D02*
X-0157688D01*
X-0157614Y0050525D01*
X-0157179Y0049874D01*
X-0156528Y0049439D01*
X-0156153Y0049365D01*
Y0050900D01*
D02*
G37*
G36*
X-0115789Y0051529D02*
X-0120104Y0047214D01*
X-0114119Y0041229D01*
X-0109804Y0045544D01*
X-0115789Y0051529D01*
D02*
G37*
G36*
X-0026806Y0038629D02*
Y0037094D01*
X-0025271D01*
X-0025346Y0037468D01*
X-0025781Y0038119D01*
X-0026432Y0038554D01*
X-0026806Y0038629D01*
D02*
G37*
G36*
X-0027594D02*
X-0027968Y0038554D01*
X-0028619Y0038119D01*
X-0029054Y0037468D01*
X-0029129Y0037094D01*
X-0027594D01*
Y0038629D01*
D02*
G37*
G36*
X-0037205Y0041437D02*
X-0045669D01*
Y0035335D01*
X-0037205D01*
Y0041437D01*
D02*
G37*
G36*
X-0025271Y0036306D02*
X-0026806D01*
Y0034771D01*
X-0026432Y0034846D01*
X-0025781Y0035281D01*
X-0025346Y0035932D01*
X-0025271Y0036306D01*
D02*
G37*
G36*
X-0027594D02*
X-0029129D01*
X-0029054Y0035932D01*
X-0028619Y0035281D01*
X-0027968Y0034846D01*
X-0027594Y0034771D01*
Y0036306D01*
D02*
G37*
G36*
X-0128316Y0039002D02*
X-0132631Y0034687D01*
X-0126646Y0028701D01*
X-0122331Y0033016D01*
X-0128316Y0039002D01*
D02*
G37*
G36*
X-0137347Y0037905D02*
X-0143332Y0031920D01*
X-0139017Y0027605D01*
X-0133032Y0033590D01*
X-0137347Y0037905D01*
D02*
G37*
G36*
X-0068209Y0024016D02*
X-0072342D01*
Y0021063D01*
X-0068209D01*
Y0024016D01*
D02*
G37*
G36*
X-0073130D02*
X-0077264D01*
Y0021063D01*
X-0073130D01*
Y0024016D01*
D02*
G37*
G36*
X-0037205Y0023720D02*
X-0045669D01*
Y0017618D01*
X-0037205D01*
Y0023720D01*
D02*
G37*
G36*
X-0068209Y0020276D02*
X-0072342D01*
Y0017323D01*
X-0068209D01*
Y0020276D01*
D02*
G37*
G36*
X-0073130D02*
X-0077264D01*
Y0017323D01*
X-0073130D01*
Y0020276D01*
D02*
G37*
G36*
X-0061106Y0013029D02*
Y0011494D01*
X-0059571D01*
X-0059646Y0011868D01*
X-0060081Y0012519D01*
X-0060732Y0012954D01*
X-0061106Y0013029D01*
D02*
G37*
G36*
X-0061894D02*
X-0062268Y0012954D01*
X-0062919Y0012519D01*
X-0063354Y0011868D01*
X-0063429Y0011494D01*
X-0061894D01*
Y0013029D01*
D02*
G37*
G36*
X-0159479Y0016191D02*
X-0162402Y0013268D01*
X-0160314Y0011180D01*
X-0157391Y0014103D01*
X-0159479Y0016191D01*
D02*
G37*
G36*
X-0004306Y0010829D02*
Y0009294D01*
X-0002771D01*
X-0002846Y0009668D01*
X-0003281Y0010319D01*
X-0003932Y0010754D01*
X-0004306Y0010829D01*
D02*
G37*
G36*
X-0005094D02*
X-0005468Y0010754D01*
X-0006119Y0010319D01*
X-0006554Y0009668D01*
X-0006629Y0009294D01*
X-0005094D01*
Y0010829D01*
D02*
G37*
G36*
X-0059571Y0010706D02*
X-0061106D01*
Y0009171D01*
X-0060732Y0009246D01*
X-0060081Y0009681D01*
X-0059646Y0010332D01*
X-0059571Y0010706D01*
D02*
G37*
G36*
X-0061894D02*
X-0063429D01*
X-0063354Y0010332D01*
X-0062919Y0009681D01*
X-0062268Y0009246D01*
X-0061894Y0009171D01*
Y0010706D01*
D02*
G37*
G36*
X-0156834Y0013546D02*
X-0159757Y0010623D01*
X-0157669Y0008535D01*
X-0154746Y0011458D01*
X-0156834Y0013546D01*
D02*
G37*
G36*
X-0162959Y0012711D02*
X-0165882Y0009788D01*
X-0163794Y0007700D01*
X-0160871Y0010623D01*
X-0162959Y0012711D01*
D02*
G37*
G36*
X-0002771Y0008506D02*
X-0004306D01*
Y0006971D01*
X-0003932Y0007046D01*
X-0003281Y0007481D01*
X-0002846Y0008132D01*
X-0002771Y0008506D01*
D02*
G37*
G36*
X-0005094D02*
X-0006629D01*
X-0006554Y0008132D01*
X-0006119Y0007481D01*
X-0005468Y0007046D01*
X-0005094Y0006971D01*
Y0008506D01*
D02*
G37*
G36*
X-0196827Y0007229D02*
Y0005694D01*
X-0195292D01*
X-0195367Y0006068D01*
X-0195802Y0006719D01*
X-0196453Y0007154D01*
X-0196827Y0007229D01*
D02*
G37*
G36*
X-0197615D02*
X-0197989Y0007154D01*
X-0198640Y0006719D01*
X-0199075Y0006068D01*
X-0199150Y0005694D01*
X-0197615D01*
Y0007229D01*
D02*
G37*
G36*
X-0128006Y0006629D02*
Y0005094D01*
X-0126471D01*
X-0126546Y0005468D01*
X-0126981Y0006119D01*
X-0127632Y0006554D01*
X-0128006Y0006629D01*
D02*
G37*
G36*
X-0128794D02*
X-0129168Y0006554D01*
X-0129819Y0006119D01*
X-0130254Y0005468D01*
X-0130329Y0005094D01*
X-0128794D01*
Y0006629D01*
D02*
G37*
G36*
X-0160314Y0010066D02*
X-0163237Y0007143D01*
X-0161149Y0005055D01*
X-0158226Y0007978D01*
X-0160314Y0010066D01*
D02*
G37*
G36*
X-0195292Y0004906D02*
X-0196827D01*
Y0003371D01*
X-0196453Y0003446D01*
X-0195802Y0003881D01*
X-0195367Y0004532D01*
X-0195292Y0004906D01*
D02*
G37*
G36*
X-0197615D02*
X-0199150D01*
X-0199075Y0004532D01*
X-0198640Y0003881D01*
X-0197989Y0003446D01*
X-0197615Y0003371D01*
Y0004906D01*
D02*
G37*
G36*
X-0126471Y0004306D02*
X-0128006D01*
Y0002771D01*
X-0127632Y0002846D01*
X-0126981Y0003281D01*
X-0126546Y0003932D01*
X-0126471Y0004306D01*
D02*
G37*
G36*
X-0128794D02*
X-0130329D01*
X-0130254Y0003932D01*
X-0129819Y0003281D01*
X-0129168Y0002846D01*
X-0128794Y0002771D01*
Y0004306D01*
D02*
G37*
%LPD*%
D10*
X-0020276Y0180315D02*
X-0019587Y0179626D01*
X-0021654Y0174015D02*
Y0179921D01*
X-0013886Y0160520D02*
Y0179562D01*
X-0157638Y0158071D02*
X-0149508D01*
X-0147244Y0160335D02*
Y0162205D01*
X-0149508Y0158071D02*
X-0147244Y0160335D01*
X-0013886Y0179562D02*
X-0013681D01*
X-0016142Y0160630D02*
Y0161056D01*
X-0013886Y0160520D02*
X-0010000Y0156634D01*
X-0021260Y0166335D02*
X-0019587Y0168009D01*
X-0021260Y0165354D02*
Y0166335D01*
X-0157638Y0158071D02*
X-0157638Y0158071D01*
X-0016142Y0209449D02*
X-0015748Y0209055D01*
Y0202232D02*
Y0209055D01*
X-0016535Y0176151D02*
X-0015256Y0174872D01*
X-0016142Y0161056D02*
X-0015256Y0161942D01*
X-0020276Y0180315D02*
X-0019587D01*
Y0168009D02*
Y0179626D01*
X-0022441Y0179921D02*
X-0021654D01*
X-0021654Y0179921D01*
X-0016535Y0176151D02*
Y0178740D01*
X-0015256Y0161942D02*
Y0174872D01*
X-0000000Y0236221D02*
G03*
X-0007874Y0244094I-0007874J0000000D01*
G01*
X-0007874Y0000000D02*
G03*
X0000000Y0007874I0000000J0007874D01*
G01*
X-0195276Y0244094D02*
G03*
X-0203150Y0236221I0000000J-0007874D01*
G01*
Y0007874D02*
G03*
X-0195276Y0000000I0007874J0000000D01*
G01*
Y0244094D02*
X-0007874D01*
X-0195276Y0000000D02*
X-0007874D01*
X0000000Y0007874D02*
Y0236221D01*
X-0203150Y0007874D02*
Y0236221D01*
X-0000000D02*
X0000000D01*
X-0009843Y0244094D02*
X-0007874Y0244094D01*
X-0177165D02*
X-0177165Y0244094D01*
D12*
X-0155209Y0180032D02*
D03*
Y0176882D02*
D03*
Y0183182D02*
D03*
Y0170583D02*
D03*
Y0167434D02*
D03*
Y0173733D02*
D03*
Y0189481D02*
D03*
Y0186331D02*
D03*
Y0192630D02*
D03*
Y0154835D02*
D03*
Y0161134D02*
D03*
Y0157985D02*
D03*
Y0164284D02*
D03*
Y0151686D02*
D03*
D13*
X-0067126Y0082677D02*
D03*
Y0100394D02*
D03*
X-0098425Y0082677D02*
D03*
Y0100394D02*
D03*
X-0041437Y0020669D02*
D03*
Y0038386D02*
D03*
X-0072736Y0020669D02*
D03*
Y0038386D02*
D03*
X-0006004Y0056102D02*
D03*
Y0073819D02*
D03*
X-0037303Y0056102D02*
D03*
Y0073819D02*
D03*
D14*
X-0138182Y0032755D02*
D03*
X-0150710Y0045282D02*
D03*
X-0160314Y0010623D02*
D03*
X-0172842Y0023151D02*
D03*
X-0138182Y0079212D02*
D03*
X-0150710Y0091739D02*
D03*
X-0160314Y0057080D02*
D03*
X-0172842Y0069607D02*
D03*
D15*
X-0127481Y0033851D02*
D03*
X-0114954Y0046379D02*
D03*
X-0149613Y0055983D02*
D03*
X-0137086Y0068511D02*
D03*
X-0173938Y0033851D02*
D03*
X-0161410Y0046379D02*
D03*
X-0196070Y0055983D02*
D03*
X-0183542Y0068511D02*
D03*
D26*
X-0080905Y0191633D02*
X-0080856Y0191683D01*
X-0080905Y0190855D02*
Y0191633D01*
X-0097406Y0174354D02*
X-0080905Y0190855D01*
X-0081988Y0192421D02*
X-0080709Y0193701D01*
X-0081988Y0191303D02*
Y0192421D01*
X-0097855Y0175437D02*
X-0081988Y0191303D01*
X-0083071Y0191752D02*
Y0195669D01*
X-0098303Y0176520D02*
X-0083071Y0191752D01*
X-0099081Y0176520D02*
X-0098303D01*
X-0101503Y0174098D02*
X-0099081Y0176520D01*
X-0101503Y0173320D02*
Y0174098D01*
X-0109350Y0165472D02*
X-0101503Y0173320D01*
X-0098633Y0175437D02*
X-0097855D01*
X-0100420Y0173650D02*
X-0098633Y0175437D01*
X-0100420Y0172871D02*
Y0173650D01*
X-0108268Y0165024D02*
X-0100420Y0172871D01*
X-0098185Y0174354D02*
X-0097406D01*
X-0099338Y0173201D02*
X-0098185Y0174354D01*
X-0099338Y0171502D02*
Y0173201D01*
X-0112642Y0184252D02*
X-0110034Y0181644D01*
Y0173419D02*
Y0181644D01*
X-0112657Y0170795D02*
X-0110034Y0173419D01*
X-0108874Y0173048D02*
Y0184858D01*
X-0113386Y0189370D02*
X-0108874Y0184858D01*
X-0111575Y0170347D02*
X-0108874Y0173048D01*
X-0106118Y0194582D02*
X-0095900Y0204800D01*
X-0106118Y0170236D02*
Y0194582D01*
X-0110433Y0165921D02*
X-0106118Y0170236D01*
X-0114173Y0183858D02*
X-0113779Y0184252D01*
X-0179397Y0064366D02*
X-0173170D01*
X-0153082Y0084453D01*
X-0127445D01*
X-0153531Y0085536D02*
X-0127893D01*
X-0169459Y0069607D02*
X-0153531Y0085536D01*
X-0172842Y0069607D02*
X-0169459D01*
X-0108028Y0105402D02*
Y0155418D01*
X-0106945Y0104954D02*
Y0155867D01*
X-0105862Y0104505D02*
Y0156315D01*
X-0104780Y0104423D02*
Y0156764D01*
X-0103697Y0104871D02*
Y0157212D01*
X-0102614Y0105319D02*
Y0159701D01*
X-0099504Y0103740D02*
X-0094359D01*
X-0101531Y0105768D02*
Y0160614D01*
X-0127893Y0085536D02*
X-0108028Y0105402D01*
X-0127445Y0084453D02*
X-0106945Y0104954D01*
X-0127475Y0082892D02*
X-0105862Y0104505D01*
X-0104780Y0104423D02*
X-0104724Y0104368D01*
Y0104112D02*
Y0104368D01*
X-0103697Y0104871D02*
X-0103642Y0104816D01*
Y0103663D02*
Y0104816D01*
X-0102614Y0105319D02*
X-0102559Y0105264D01*
Y0104035D02*
Y0105264D01*
X-0101531Y0105768D02*
X-0099504Y0103740D01*
X-0099055Y0104823D02*
X-0093910D01*
X-0100449Y0106216D02*
X-0099055Y0104823D01*
X-0100449Y0106216D02*
Y0161429D01*
X-0137105Y0071731D02*
X-0104724Y0104112D01*
X-0142327Y0069672D02*
X-0129107Y0082892D01*
X-0150201Y0050524D02*
X-0148669D01*
X-0172842Y0023151D02*
X-0172006Y0023986D01*
Y0028718D02*
X-0150201Y0050524D01*
X-0129107Y0082892D02*
X-0127475D01*
X-0142327Y0056866D02*
Y0069672D01*
X-0148669Y0050524D02*
X-0142327Y0056866D01*
X-0172006Y0023986D02*
Y0028718D01*
X-0183542Y0068511D02*
X-0179397Y0064366D01*
X-0137105Y0068530D02*
Y0071731D01*
Y0068530D02*
X-0137086Y0068511D01*
X-0148000Y0178800D02*
X-0143800D01*
X-0149918Y0176882D02*
X-0148000Y0178800D01*
X-0157178Y0176882D02*
X-0149918D01*
X-0157178Y0173733D02*
X-0156488Y0174423D01*
X-0143518D02*
X-0137823Y0180118D01*
X-0132082D01*
X-0143799Y0171358D02*
X-0137008Y0178149D01*
X-0156488Y0174423D02*
X-0143518D01*
X-0132082Y0180118D02*
X-0128600Y0183600D01*
X-0142900Y0188642D02*
Y0188830D01*
X-0143570Y0189500D02*
X-0142900Y0188830D01*
X-0144881Y0188189D02*
X-0143570Y0189500D01*
X-0157638Y0186417D02*
X-0146659D01*
X-0143844Y0212474D02*
X-0136568Y0205198D01*
Y0204900D02*
Y0205198D01*
X-0080856Y0191683D02*
X-0078690D01*
X-0144885Y0188192D02*
X-0144881Y0188189D01*
X-0092593Y0099778D02*
Y0103505D01*
X-0093910Y0104823D02*
X-0092593Y0103505D01*
X-0093898Y0086024D02*
Y0097509D01*
X-0093898Y0097509D01*
Y0103279D01*
X-0094359Y0103740D02*
X-0093898Y0103279D01*
X-0092593Y0099778D02*
X-0068898Y0076083D01*
X-0110630Y0096675D02*
X-0103642Y0103663D01*
X-0102559Y0104035D02*
X-0101181Y0102657D01*
X-0102417Y0163397D02*
X-0100449Y0161429D01*
X-0102417Y0163397D02*
Y0168422D01*
X-0099338Y0171502D01*
X-0104724Y0165748D02*
X-0104598Y0165621D01*
Y0163681D02*
Y0165621D01*
Y0163681D02*
X-0101531Y0160614D01*
X-0098425Y0082677D02*
X-0097244D01*
X-0093898Y0086024D01*
X-0068898Y0076083D02*
X-0039567D01*
X-0156949Y0171358D02*
X-0143799D01*
X-0083071Y0195669D02*
X-0080708Y0198031D01*
X-0146659Y0186417D02*
X-0144885Y0188192D01*
X-0091736Y0172427D02*
X-0091704Y0172459D01*
Y0172468D01*
X-0101181Y0100394D02*
Y0102657D01*
X-0109350Y0162122D02*
Y0165472D01*
X-0110433Y0161673D02*
Y0165921D01*
X-0110433Y0160886D02*
X-0105862Y0156315D01*
X-0109350Y0161334D02*
X-0104780Y0156764D01*
X-0108267Y0161783D02*
X-0103697Y0157212D01*
X-0112598Y0159989D02*
X-0108028Y0155418D01*
X-0112598Y0159989D02*
Y0160776D01*
X-0112657Y0160835D02*
X-0112598Y0160776D01*
X-0111575Y0161284D02*
X-0111516Y0161225D01*
Y0160437D02*
Y0161225D01*
Y0160437D02*
X-0106945Y0155867D01*
X-0110433Y0160886D02*
Y0161673D01*
X-0110433Y0161673D02*
X-0110433Y0161673D01*
X-0109350Y0161334D02*
Y0162122D01*
X-0109350Y0162122D02*
X-0109350Y0162122D01*
X-0108268Y0162570D02*
X-0108267Y0162570D01*
Y0161783D02*
Y0162570D01*
X-0108268Y0162570D02*
Y0165024D01*
X-0111575Y0161284D02*
Y0170347D01*
X-0112657Y0160835D02*
Y0170795D01*
X-0106299Y0162598D02*
X-0105512D01*
X-0105512Y0162598D01*
X-0102614Y0159701D01*
X-0097328Y0172427D02*
X-0091736D01*
X-0097369Y0172386D02*
X-0097328Y0172427D01*
X-0157638Y0167520D02*
X-0139437D01*
X-0138976Y0167980D01*
X-0113779Y0184252D02*
X-0112642D01*
X-0110630Y0076279D02*
Y0096675D01*
X-0157638Y0170669D02*
X-0156949Y0171358D01*
X-0039567Y0076083D02*
X-0037303Y0073819D01*
X-0110630Y0076279D02*
X-0072736Y0038386D01*
D27*
X-0107496Y0171642D02*
Y0196047D01*
X-0107480Y0196063D01*
X-0109606Y0169532D02*
X-0107496Y0171642D01*
X-0046425Y0226772D02*
X-0026150D01*
X-0026772Y0133405D02*
Y0197273D01*
X-0069587Y0022638D02*
X-0035925Y0056299D01*
X-0157638Y0189567D02*
X-0147047D01*
X-0157539Y0164469D02*
X-0136468D01*
X-0157442Y0154527D02*
X-0157048Y0154921D01*
X-0047213Y0225984D02*
X-0046425Y0226772D01*
X-0045087Y0231496D02*
X-0044464Y0232118D01*
X-0054061Y0231496D02*
X-0045087D01*
X-0054061Y0231496D02*
X-0054061Y0231496D01*
X-0054484Y0231496D02*
X-0054061D01*
X-0055107Y0232118D02*
X-0054484Y0231496D01*
X-0062660Y0232118D02*
X-0055107D01*
X-0045780Y0233169D02*
X-0045158Y0233792D01*
X-0053368Y0233169D02*
X-0045780D01*
X-0053368Y0233169D02*
X-0053368Y0233169D01*
X-0053791Y0233169D02*
X-0053368D01*
X-0054414Y0233792D02*
X-0053791Y0233169D01*
X-0061967Y0233792D02*
X-0054414D01*
X-0067475Y0239300D02*
X-0061967Y0233792D01*
X-0069457Y0238915D02*
X-0062660Y0232118D01*
X-0015815Y0233169D02*
X-0013272Y0235712D01*
X-0026204Y0233169D02*
X-0015815D01*
X-0026897Y0231496D02*
X-0016378D01*
X-0011516Y0226634D01*
X-0044464Y0232118D02*
X-0027520D01*
X-0045158Y0233792D02*
X-0026827D01*
X-0027520Y0232118D02*
X-0026897Y0231496D01*
X-0026827Y0233792D02*
X-0026204Y0233169D01*
X-0069579Y0238915D02*
X-0069457D01*
X-0069739Y0238756D02*
X-0069579Y0238915D01*
X-0151109Y0241535D02*
X-0069317D01*
X-0067475Y0239694D01*
Y0239300D02*
Y0239694D01*
X-0011516Y0226634D02*
X-0010000D01*
X-0151155Y0241582D02*
X-0151109Y0241535D01*
X-0090945Y0221259D02*
Y0235600D01*
X-0087795Y0229740D02*
X-0087795Y0229740D01*
X-0013272Y0235712D02*
X-0010922D01*
X-0010000Y0236634D01*
X-0189079Y0063400D02*
Y0122919D01*
Y0062321D02*
Y0063400D01*
X-0182759Y0057080D01*
X-0164768D01*
X-0163933Y0056245D01*
X-0161149D01*
X-0160314Y0057080D01*
Y0010623D02*
X-0156764Y0014173D01*
X-0128249Y0033851D02*
X-0127481D01*
X-0193900Y0057500D02*
X-0189079Y0062321D01*
X-0165560Y0146438D02*
Y0150498D01*
X-0189079Y0122919D02*
X-0165560Y0146438D01*
Y0150498D02*
X-0161531Y0154527D01*
X-0157442D01*
X-0157048Y0154921D02*
X-0157048Y0154921D01*
X-0157638Y0183268D02*
X-0157092D01*
X-0158032Y0179724D02*
X-0157244Y0180512D01*
X-0125984Y0197256D02*
X-0110100Y0213140D01*
Y0213500D02*
X-0059322D01*
X-0058722Y0212900D01*
X-0110100Y0213500D02*
Y0221581D01*
X-0110795Y0222276D02*
X-0110100Y0221581D01*
Y0213140D02*
Y0213500D01*
X-0135932Y0164469D02*
X-0129700Y0170700D01*
X-0136468Y0164469D02*
X-0135932D01*
X-0136468D02*
X-0136369Y0164370D01*
Y0162700D02*
Y0164370D01*
X-0125984Y0192795D02*
X-0125213Y0192024D01*
Y0183563D02*
Y0192024D01*
X-0045600Y0216900D02*
Y0222018D01*
X-0026150Y0211706D02*
Y0225197D01*
X-0079696Y0163866D02*
Y0166490D01*
X-0057988Y0188199D01*
X-0110795Y0222276D02*
X-0107087Y0225984D01*
X-0058722Y0212900D02*
X-0057988Y0213634D01*
X-0087795Y0217095D02*
Y0229740D01*
Y0217095D02*
X-0087500Y0216800D01*
X-0107480Y0196063D02*
Y0196421D01*
X-0096838Y0207064D01*
X-0096479D02*
X-0096457Y0207087D01*
X-0096838Y0207064D02*
X-0096479D01*
X-0096457Y0207224D02*
X-0083996D01*
X-0096457Y0207087D02*
Y0207224D01*
X-0083996D02*
X-0083807Y0207035D01*
X-0074409Y0190945D02*
Y0195824D01*
X-0136247Y0184252D02*
X-0136147D01*
X-0133136Y0187262D01*
Y0187362D02*
X-0127929Y0192569D01*
X-0133136Y0187262D02*
Y0187362D01*
X-0035925Y0056299D02*
X-0031102D01*
X-0037106D02*
X-0035925D01*
X-0070768Y0022638D02*
X-0069587D01*
X-0157244Y0180512D02*
Y0183116D01*
X-0157178Y0183182D02*
X-0157092Y0183268D01*
X-0157244Y0183116D02*
X-0157178Y0183182D01*
X-0157092Y0183268D02*
X-0149214D01*
X-0147762Y0184721D02*
X-0144095D01*
X-0149214Y0183268D02*
X-0147762Y0184721D01*
X-0026772Y0197273D02*
Y0211084D01*
X-0157638Y0164370D02*
X-0157539Y0164469D01*
X-0026150Y0226772D02*
X-0026150Y0226772D01*
X-0166312Y0203012D02*
X-0153937D01*
X-0187800Y0224500D02*
X-0166312Y0203012D01*
X-0018504Y0162598D02*
Y0167003D01*
X-0017323Y0168184D02*
Y0174015D01*
X-0018504Y0167003D02*
X-0017323Y0168184D01*
X-0157638Y0189567D02*
X-0157638Y0189567D01*
X-0157048Y0154921D02*
X-0144148D01*
X-0160351Y0179724D02*
X-0158032D01*
X-0161674Y0178401D02*
X-0160351Y0179724D01*
X-0161674Y0162937D02*
Y0178401D01*
X-0161039Y0162303D02*
X-0160689D01*
X-0161674Y0162937D02*
X-0161039Y0162303D01*
X-0160689D02*
X-0159607Y0161220D01*
X-0157638D01*
Y0183268D02*
X-0157638Y0183268D01*
X-0100449Y0166535D02*
X-0100394Y0166480D01*
X-0144148Y0154921D02*
X-0136369Y0162700D01*
X-0161417Y0196457D02*
X-0149685D01*
X-0057988Y0188199D02*
Y0213634D01*
X-0031102Y0056299D02*
X-0012409Y0074992D01*
X-0156764Y0014173D02*
X-0079724D01*
X-0126210Y0192569D02*
X-0125984Y0192795D01*
X-0153937Y0203012D02*
X-0149911Y0198986D01*
X-0072736Y0020669D02*
X-0070768Y0022638D01*
X-0140157Y0196457D02*
X-0139358Y0197256D01*
X-0149685Y0196457D02*
X-0140157D01*
X-0147047Y0189567D02*
X-0140157Y0196457D01*
X-0139358Y0197256D02*
X-0125984D01*
X-0149911Y0196683D02*
Y0198986D01*
Y0196683D02*
X-0149685Y0196457D01*
X-0125984Y0192795D02*
Y0197256D01*
X-0127929Y0192569D02*
X-0126210D01*
X-0112992Y0201575D02*
X-0107480Y0196063D01*
X-0057988Y0213634D02*
X-0046425Y0225197D01*
X-0079724Y0014173D02*
X-0073228Y0020669D01*
X-0072736D01*
X-0012409Y0074992D02*
Y0114224D01*
X-0010000Y0116634D01*
X-0026772Y0133405D02*
X-0010000Y0116634D01*
X-0026772Y0211084D02*
X-0026150Y0211706D01*
X-0037303Y0056102D02*
X-0037106Y0056299D01*
X-0076378Y0197792D02*
X-0074409Y0195824D01*
X-0076378Y0197792D02*
Y0198031D01*
X-0083426Y0206655D02*
X-0082664Y0205893D01*
X-0083426Y0206655D02*
X-0083426D01*
X-0082664Y0205893D02*
X-0082284Y0205512D01*
X-0083807Y0207035D02*
X-0083426Y0206655D01*
X-0082284Y0205387D02*
Y0205512D01*
X-0113069Y0201652D02*
X-0112992Y0201575D01*
X-0113146Y0206634D02*
X-0113069Y0206557D01*
Y0201652D02*
Y0206557D01*
D28*
X-0010000Y0236634D02*
D03*
Y0206634D02*
D03*
Y0216634D02*
D03*
Y0226634D02*
D03*
Y0166634D02*
D03*
Y0156634D02*
D03*
Y0146634D02*
D03*
Y0136634D02*
D03*
Y0126634D02*
D03*
Y0176634D02*
D03*
D29*
Y0196634D02*
D03*
Y0116634D02*
D03*
D30*
X-0045539Y0226181D02*
D03*
X-0026445D02*
D03*
D31*
X-0049821Y0237992D02*
D03*
X-0022163D02*
D03*
D32*
X-0182226Y0235130D02*
D03*
Y0207571D02*
D03*
D33*
X-0172926Y0222552D02*
D03*
Y0142040D02*
D03*
D34*
X-0092025Y0188555D02*
D03*
X-0113386Y0189370D02*
D03*
X-0114173Y0183858D02*
D03*
X-0096821Y0108434D02*
D03*
X-0112373Y0148200D02*
D03*
X-0062176Y0238083D02*
D03*
X-0056856Y0237992D02*
D03*
X-0151155Y0241582D02*
D03*
X-0090945Y0235600D02*
D03*
X-0087795Y0229740D02*
D03*
X-0069739Y0238756D02*
D03*
X-0074891Y0235083D02*
D03*
X-0061300Y0217095D02*
D03*
X-0053700Y0187700D02*
D03*
X-0061900Y0191200D02*
D03*
X-0135828Y0236576D02*
D03*
X-0126800Y0230400D02*
D03*
X-0137500Y0219974D02*
D03*
X-0110100Y0213500D02*
D03*
X-0129700Y0170700D02*
D03*
X-0125213Y0183563D02*
D03*
X-0143800Y0178800D02*
D03*
X-0137008Y0178149D02*
D03*
X-0128600Y0183600D02*
D03*
X-0045600Y0222018D02*
D03*
Y0216900D02*
D03*
X-0160484Y0125700D02*
D03*
X-0111857Y0108434D02*
D03*
X-0061500Y0011100D02*
D03*
X-0128400Y0004700D02*
D03*
X-0155760Y0051293D02*
D03*
X-0197221Y0005300D02*
D03*
X-0192900Y0096900D02*
D03*
X-0143916Y0101200D02*
D03*
X-0100394Y0092400D02*
D03*
X-0077300Y0052100D02*
D03*
X-0027200Y0036700D02*
D03*
X-0004700Y0008900D02*
D03*
X-0043500Y0087300D02*
D03*
X-0006600Y0097500D02*
D03*
X-0019000Y0117600D02*
D03*
X-0026300Y0138600D02*
D03*
Y0162900D02*
D03*
X-0079696Y0163866D02*
D03*
X-0053200Y0164200D02*
D03*
X-0198038Y0150700D02*
D03*
X-0198900Y0178149D02*
D03*
X-0188100Y0187400D02*
D03*
X-0178600Y0198900D02*
D03*
X-0197300Y0238866D02*
D03*
X-0160707Y0229980D02*
D03*
X-0141500Y0231293D02*
D03*
X-0030374Y0210100D02*
D03*
X-0041700Y0212869D02*
D03*
X-0018342Y0223281D02*
D03*
X-0004438Y0187071D02*
D03*
X-0027300Y0171554D02*
D03*
X-0054500Y0171900D02*
D03*
X-0078300Y0171800D02*
D03*
X-0020269Y0187400D02*
D03*
X-0037961Y0200700D02*
D03*
X-0077800Y0209300D02*
D03*
X-0175175Y0240258D02*
D03*
X-0121877Y0236756D02*
D03*
X-0121400Y0199300D02*
D03*
X-0135568Y0191667D02*
D03*
X-0133800Y0199607D02*
D03*
X-0119400Y0208244D02*
D03*
X-0096311Y0148200D02*
D03*
X-0099161Y0237192D02*
D03*
X-0070358Y0184539D02*
D03*
X-0120000Y0223975D02*
D03*
X-0134134Y0210300D02*
D03*
X-0142900Y0188642D02*
D03*
X-0143844Y0212474D02*
D03*
X-0136568Y0204900D02*
D03*
X-0090100Y0220400D02*
D03*
X-0087500Y0216800D02*
D03*
X-0095900Y0204800D02*
D03*
X-0074409Y0190945D02*
D03*
X-0078690Y0191683D02*
D03*
X-0136247Y0184252D02*
D03*
X-0165059Y0198721D02*
D03*
Y0192815D02*
D03*
X-0199311Y0214469D02*
D03*
Y0220374D02*
D03*
Y0198819D02*
D03*
Y0204429D02*
D03*
X-0199409Y0226181D02*
D03*
X-0199311Y0232185D02*
D03*
X-0175591Y0153937D02*
D03*
X-0184646D02*
D03*
X-0175591Y0180666D02*
D03*
X-0184646D02*
D03*
X-0097063Y0181890D02*
D03*
X-0103543Y0188583D02*
D03*
X-0097244D02*
D03*
X-0097063Y0196457D02*
D03*
X-0147244Y0162205D02*
D03*
X-0187800Y0224500D02*
D03*
X-0013681Y0179562D02*
D03*
X-0016142Y0160630D02*
D03*
X-0018504Y0162598D02*
D03*
X-0021260Y0165354D02*
D03*
X-0100449Y0166535D02*
D03*
X-0161417Y0196457D02*
D03*
X-0107087Y0225984D02*
D03*
X-0016142Y0209449D02*
D03*
X-0015748Y0202232D02*
D03*
X-0026772Y0197273D02*
D03*
X-0125984Y0192795D02*
D03*
X-0153937Y0203012D02*
D03*
X-0149685Y0196457D02*
D03*
X-0076378Y0198031D02*
D03*
X-0019587Y0180315D02*
D03*
X-0016535Y0178740D02*
D03*
X-0021654Y0174015D02*
D03*
X-0017323D02*
D03*
X-0022441Y0179921D02*
D03*
X-0082284Y0205387D02*
D03*
X-0106299Y0162598D02*
D03*
X-0104724Y0165748D02*
D03*
X-0109606Y0169532D02*
D03*
X-0091704Y0172468D02*
D03*
X-0097369Y0172386D02*
D03*
X-0112992Y0201575D02*
D03*
X-0113146Y0206634D02*
D03*
X-0144095Y0184721D02*
D03*
X-0138976Y0167980D02*
D03*
X-0080708Y0198031D02*
D03*
X-0080709Y0193701D02*
D03*
M02*
