G04*
G04 #@! TF.GenerationSoftware,Altium Limited,Altium Designer,19.1.6 (110)*
G04*
G04 Layer_Physical_Order=2*
G04 Layer_Color=16711680*
%FSAX25Y25*%
%MOIN*%
G70*
G01*
G75*
%ADD10C,0.00787*%
%ADD13R,0.07480X0.05118*%
%ADD26C,0.01181*%
%ADD27C,0.00591*%
%ADD28C,0.06000*%
%ADD29R,0.06000X0.06000*%
%ADD30C,0.04921*%
%ADD31O,0.02067X0.04724*%
%ADD32C,0.04528*%
%ADD33C,0.01969*%
%ADD34C,0.02362*%
%ADD35C,0.03000*%
%ADD36R,0.01575X0.05315*%
%ADD37R,0.07087X0.07480*%
%ADD38R,0.02362X0.03937*%
%ADD39R,0.03150X0.02362*%
G04:AMPARAMS|DCode=40|XSize=23.62mil|YSize=25.59mil|CornerRadius=2.95mil|HoleSize=0mil|Usage=FLASHONLY|Rotation=90.000|XOffset=0mil|YOffset=0mil|HoleType=Round|Shape=RoundedRectangle|*
%AMROUNDEDRECTD40*
21,1,0.02362,0.01968,0,0,90.0*
21,1,0.01772,0.02559,0,0,90.0*
1,1,0.00591,0.00984,0.00886*
1,1,0.00591,0.00984,-0.00886*
1,1,0.00591,-0.00984,-0.00886*
1,1,0.00591,-0.00984,0.00886*
%
%ADD40ROUNDEDRECTD40*%
%ADD41C,0.05000*%
%ADD42R,0.02165X0.01181*%
%ADD43R,0.01181X0.02165*%
%ADD44R,0.20079X0.20079*%
%ADD45R,0.02756X0.02362*%
%ADD46R,0.02756X0.03937*%
%ADD47R,0.04528X0.02362*%
%ADD48R,0.05512X0.04724*%
%ADD49R,0.07480X0.03937*%
%ADD50R,0.03150X0.03543*%
%ADD51R,0.03543X0.03150*%
%ADD52R,0.09843X0.08661*%
%ADD53R,0.09055X0.08661*%
%ADD54R,0.13780X0.03937*%
%ADD55R,0.13386X0.05906*%
%ADD56R,0.03150X0.03150*%
G04:AMPARAMS|DCode=57|XSize=23.62mil|YSize=25.59mil|CornerRadius=2.95mil|HoleSize=0mil|Usage=FLASHONLY|Rotation=0.000|XOffset=0mil|YOffset=0mil|HoleType=Round|Shape=RoundedRectangle|*
%AMROUNDEDRECTD57*
21,1,0.02362,0.01968,0,0,0.0*
21,1,0.01772,0.02559,0,0,0.0*
1,1,0.00591,0.00886,-0.00984*
1,1,0.00591,-0.00886,-0.00984*
1,1,0.00591,-0.00886,0.00984*
1,1,0.00591,0.00886,0.00984*
%
%ADD57ROUNDEDRECTD57*%
%ADD58R,0.05000X0.06000*%
%ADD59R,0.08000X0.06000*%
G36*
X-0111799Y0242390D02*
X-0111910Y0242316D01*
X-0119989Y0234237D01*
X-0120228Y0233879D01*
X-0120286Y0233589D01*
X-0124549Y0229326D01*
X-0124946Y0229632D01*
X-0124871Y0230006D01*
X-0126406D01*
Y0228471D01*
X-0126032Y0228546D01*
X-0125726Y0228149D01*
X-0141684Y0212191D01*
X-0142145Y0212437D01*
X-0142138Y0212474D01*
X-0142267Y0213126D01*
X-0142637Y0213680D01*
X-0143041Y0213950D01*
Y0219760D01*
X-0143102Y0220067D01*
X-0143276Y0220327D01*
X-0143276Y0220327D01*
X-0145850Y0222902D01*
Y0224439D01*
X-0145911Y0224746D01*
X-0146086Y0225007D01*
X-0146317Y0225162D01*
X-0146346Y0225384D01*
Y0225463D01*
X-0146317Y0225685D01*
X-0146086Y0225840D01*
X-0145911Y0226101D01*
X-0145850Y0226408D01*
Y0228376D01*
X-0145911Y0228683D01*
X-0146086Y0228944D01*
X-0146346Y0229118D01*
X-0146622Y0229173D01*
Y0230527D01*
X-0145358D01*
Y0234661D01*
X-0149491D01*
Y0230527D01*
X-0148227D01*
Y0229179D01*
X-0148425D01*
X-0148732Y0229118D01*
X-0148993Y0228944D01*
X-0149167Y0228683D01*
X-0149228Y0228376D01*
Y0226408D01*
X-0149167Y0226101D01*
X-0148993Y0225840D01*
X-0148761Y0225685D01*
X-0148732Y0225463D01*
Y0225384D01*
X-0148761Y0225162D01*
X-0148993Y0225007D01*
X-0149167Y0224746D01*
X-0149228Y0224439D01*
Y0222471D01*
X-0149167Y0222164D01*
X-0148993Y0221903D01*
X-0148732Y0221729D01*
X-0148425Y0221668D01*
X-0146887D01*
X-0144646Y0219427D01*
Y0213950D01*
X-0145050Y0213680D01*
X-0145420Y0213126D01*
X-0145550Y0212474D01*
X-0145420Y0211821D01*
X-0145050Y0211267D01*
X-0144496Y0210897D01*
X-0143844Y0210768D01*
X-0143807Y0210775D01*
X-0143561Y0210314D01*
X-0144916Y0208958D01*
X-0149793D01*
X-0150215Y0208874D01*
X-0150574Y0208635D01*
X-0152454Y0206755D01*
X-0152693Y0206396D01*
X-0152777Y0205974D01*
Y0205160D01*
X-0153188Y0204936D01*
X-0153675Y0205130D01*
Y0205984D01*
X-0155841D01*
Y0206378D01*
X-0156234D01*
Y0209134D01*
X-0157303D01*
Y0210244D01*
X-0156149Y0211398D01*
X-0153970D01*
Y0214744D01*
X-0154737D01*
Y0236440D01*
X-0151276Y0239900D01*
X-0151155Y0239876D01*
X-0150503Y0240006D01*
X-0150287Y0240151D01*
X-0149787Y0239883D01*
Y0239484D01*
X-0147818D01*
Y0241453D01*
X-0149343D01*
X-0149450Y0241582D01*
X-0149579Y0242235D01*
X-0149683Y0242390D01*
X-0149416Y0242890D01*
X-0111951D01*
X-0111799Y0242390D01*
D02*
G37*
G36*
X-0005928Y0242634D02*
X-0004715Y0242131D01*
X-0003622Y0241401D01*
X-0002693Y0240472D01*
X-0002045Y0239501D01*
X-0002057Y0239356D01*
X-0002309Y0239227D01*
X-0002574Y0239174D01*
X-0003239Y0239684D01*
X-0004088Y0240036D01*
X-0004963Y0240151D01*
X-0005000Y0240166D01*
X-0010000D01*
X-0010037Y0240151D01*
X-0010912Y0240036D01*
X-0011761Y0239684D01*
X-0012491Y0239124D01*
X-0013050Y0238395D01*
X-0013402Y0237545D01*
X-0013522Y0236634D01*
X-0013402Y0235722D01*
X-0013050Y0234873D01*
X-0012491Y0234143D01*
X-0011761Y0233583D01*
X-0010912Y0233232D01*
X-0010037Y0233116D01*
X-0010000Y0233101D01*
X-0005000D01*
X-0004963Y0233116D01*
X-0004088Y0233232D01*
X-0003239Y0233583D01*
X-0002509Y0234143D01*
X-0001950Y0234873D01*
X-0001704Y0235465D01*
X-0001204Y0235366D01*
Y0227902D01*
X-0001704Y0227802D01*
X-0001950Y0228395D01*
X-0002509Y0229124D01*
X-0003239Y0229684D01*
X-0004088Y0230036D01*
X-0004963Y0230151D01*
X-0005000Y0230167D01*
X-0010000D01*
X-0010037Y0230151D01*
X-0010912Y0230036D01*
X-0011761Y0229684D01*
X-0012491Y0229124D01*
X-0013050Y0228395D01*
X-0013402Y0227545D01*
X-0013522Y0226634D01*
X-0013402Y0225722D01*
X-0013050Y0224873D01*
X-0012491Y0224143D01*
X-0011761Y0223584D01*
X-0010912Y0223232D01*
X-0010037Y0223116D01*
X-0010000Y0223101D01*
X-0005000D01*
X-0004963Y0223116D01*
X-0004088Y0223232D01*
X-0003239Y0223584D01*
X-0002509Y0224143D01*
X-0001950Y0224873D01*
X-0001704Y0225465D01*
X-0001204Y0225366D01*
Y0217902D01*
X-0001704Y0217802D01*
X-0001950Y0218395D01*
X-0002509Y0219125D01*
X-0003239Y0219684D01*
X-0004088Y0220036D01*
X-0004963Y0220151D01*
X-0005000Y0220166D01*
X-0010000D01*
X-0010037Y0220151D01*
X-0010912Y0220036D01*
X-0011761Y0219684D01*
X-0012491Y0219125D01*
X-0013050Y0218395D01*
X-0013323Y0217738D01*
X-0013954D01*
X-0015503Y0219286D01*
X-0015861Y0219526D01*
X-0016284Y0219609D01*
X-0024661D01*
X-0025083Y0219526D01*
X-0025441Y0219286D01*
X-0026788Y0217939D01*
X-0043364D01*
X-0043571Y0218439D01*
X-0043141Y0218869D01*
X-0037211D01*
X-0036904Y0218930D01*
X-0036643Y0219104D01*
X-0035951Y0219796D01*
X-0035951Y0219796D01*
X-0035777Y0220057D01*
X-0035716Y0220364D01*
X-0035716Y0220364D01*
Y0222113D01*
X-0035425Y0222405D01*
X-0035424Y0222405D01*
X-0035250Y0222665D01*
X-0035189Y0222972D01*
X-0035189Y0222972D01*
Y0224311D01*
X-0032449D01*
Y0224016D01*
X-0031268D01*
Y0227461D01*
X-0030480D01*
Y0224016D01*
X-0029299D01*
X-0029299Y0224016D01*
Y0224016D01*
X-0028809Y0223927D01*
X-0028761Y0223865D01*
X-0028083Y0223344D01*
X-0027293Y0223017D01*
X-0026839Y0222957D01*
Y0226181D01*
Y0229405D01*
X-0027293Y0229345D01*
X-0028083Y0229018D01*
X-0028761Y0228498D01*
X-0028799Y0228448D01*
X-0029299Y0228618D01*
Y0230118D01*
X-0021228D01*
Y0234252D01*
X-0025756D01*
Y0241732D01*
X-0021228D01*
Y0242890D01*
X-0007874D01*
X-0007217Y0242890D01*
X-0005928Y0242634D01*
D02*
G37*
G36*
X-0050756Y0241732D02*
X-0046228D01*
Y0234252D01*
X-0050756D01*
Y0230118D01*
X-0042390D01*
Y0228233D01*
X-0042890Y0228064D01*
X-0043223Y0228498D01*
X-0043901Y0229018D01*
X-0044692Y0229345D01*
X-0045146Y0229405D01*
Y0226181D01*
X-0045539D01*
Y0225787D01*
X-0048764D01*
X-0048704Y0225333D01*
X-0048377Y0224543D01*
X-0048145Y0224242D01*
X-0048392Y0223742D01*
X-0052947D01*
X-0053626Y0224420D01*
Y0225463D01*
X-0053449Y0225728D01*
X-0053365Y0226150D01*
Y0232549D01*
X-0053449Y0232972D01*
X-0053688Y0233330D01*
X-0055049Y0234691D01*
X-0054917Y0235010D01*
X-0054917D01*
Y0237598D01*
X-0056856D01*
Y0237766D01*
X-0057083D01*
Y0237372D01*
X-0059248D01*
Y0237268D01*
X-0059710Y0237076D01*
X-0060511Y0237878D01*
X-0060470Y0238083D01*
X-0060600Y0238736D01*
X-0060970Y0239289D01*
X-0061523Y0239659D01*
X-0062176Y0239789D01*
X-0062586Y0239707D01*
X-0063086Y0240042D01*
Y0240226D01*
X-0066827D01*
Y0238244D01*
X-0071335Y0233736D01*
X-0072833D01*
Y0229781D01*
X-0074034Y0228580D01*
X-0076564D01*
X-0076967Y0228815D01*
Y0233736D01*
X-0078155D01*
X-0078170Y0233812D01*
X-0078409Y0234170D01*
X-0080619Y0236381D01*
X-0080978Y0236620D01*
X-0081400Y0236704D01*
X-0089670D01*
X-0089739Y0236806D01*
X-0090292Y0237176D01*
X-0090945Y0237306D01*
X-0091598Y0237176D01*
X-0092151Y0236806D01*
X-0092521Y0236253D01*
X-0092651Y0235600D01*
X-0092521Y0234947D01*
X-0092151Y0234394D01*
X-0092072Y0234341D01*
X-0092224Y0233841D01*
X-0093311D01*
Y0237106D01*
X-0097084D01*
X-0097154Y0237192D01*
X-0097307Y0237960D01*
X-0097742Y0238611D01*
X-0098393Y0239046D01*
X-0098768Y0239120D01*
Y0237192D01*
Y0235263D01*
X-0098393Y0235337D01*
X-0098280Y0235413D01*
X-0097839Y0235178D01*
Y0233841D01*
X-0098419D01*
X-0098419Y0233841D01*
X-0098842Y0233757D01*
X-0099200Y0233518D01*
X-0100742Y0231975D01*
X-0104693D01*
Y0228908D01*
X-0104988Y0228530D01*
X-0104988Y0228251D01*
Y0227287D01*
X-0105488Y0227135D01*
X-0105667Y0227403D01*
X-0106318Y0227838D01*
X-0106693Y0227913D01*
Y0225984D01*
Y0224056D01*
X-0106318Y0224130D01*
X-0105667Y0224565D01*
X-0105488Y0224833D01*
X-0104988Y0224681D01*
Y0224593D01*
X-0104693Y0224216D01*
Y0221148D01*
X-0099181D01*
Y0222058D01*
X-0097947D01*
X-0097868Y0222018D01*
X-0097538Y0221620D01*
X-0097561Y0221507D01*
Y0218082D01*
X-0097748Y0218045D01*
X-0097955Y0217907D01*
X-0098123Y0217890D01*
X-0098548Y0217963D01*
X-0098629Y0218084D01*
X-0098987Y0218323D01*
X-0099410Y0218407D01*
X-0100000D01*
Y0216417D01*
Y0214428D01*
X-0099410D01*
X-0098987Y0214512D01*
X-0098629Y0214751D01*
X-0098548Y0214872D01*
X-0098123Y0214944D01*
X-0097955Y0214928D01*
X-0097748Y0214790D01*
X-0097561Y0214753D01*
Y0212141D01*
X-0097748Y0212104D01*
X-0098009Y0211930D01*
X-0098164Y0211698D01*
X-0098386Y0211669D01*
X-0098465D01*
X-0098687Y0211698D01*
X-0098842Y0211930D01*
X-0099102Y0212104D01*
X-0099410Y0212165D01*
X-0101378D01*
X-0101685Y0212104D01*
X-0101946Y0211930D01*
X-0102120Y0211669D01*
X-0102181Y0211362D01*
Y0211279D01*
X-0104906D01*
Y0211362D01*
X-0104967Y0211669D01*
X-0105141Y0211930D01*
X-0105401Y0212104D01*
X-0105709Y0212165D01*
X-0107677D01*
X-0107984Y0212104D01*
X-0108128Y0212008D01*
X-0108489Y0212368D01*
X-0108246Y0212732D01*
X-0108171Y0213106D01*
X-0112029D01*
X-0111954Y0212732D01*
X-0112234Y0212250D01*
X-0112395Y0212143D01*
X-0112634Y0211785D01*
X-0112718Y0211362D01*
Y0210870D01*
X-0110630D01*
Y0210476D01*
X-0110236D01*
Y0208487D01*
X-0109646D01*
X-0109223Y0208571D01*
X-0108865Y0208810D01*
X-0108784Y0208931D01*
X-0108359Y0209003D01*
X-0108191Y0208987D01*
X-0107984Y0208849D01*
X-0107677Y0208788D01*
X-0105709D01*
X-0105401Y0208849D01*
X-0105141Y0209023D01*
X-0104967Y0209283D01*
X-0104906Y0209591D01*
Y0209674D01*
X-0102181D01*
Y0209591D01*
X-0102120Y0209283D01*
X-0101946Y0209023D01*
X-0101685Y0208849D01*
X-0101378Y0208788D01*
X-0100234D01*
X-0098850Y0207404D01*
Y0203488D01*
X-0103150D01*
Y0203853D01*
X-0103211Y0204160D01*
X-0103385Y0204420D01*
X-0103385Y0204420D01*
X-0104158Y0205194D01*
X-0104419Y0205368D01*
X-0104726Y0205429D01*
X-0111408D01*
X-0111644Y0205870D01*
X-0111569Y0205981D01*
X-0111440Y0206634D01*
X-0111569Y0207287D01*
X-0111939Y0207840D01*
X-0112493Y0208210D01*
X-0113058Y0208322D01*
X-0114022Y0209286D01*
Y0221148D01*
X-0111553D01*
Y0218108D01*
X-0111634D01*
X-0111941Y0218046D01*
X-0112201Y0217872D01*
X-0112376Y0217612D01*
X-0112437Y0217305D01*
Y0215533D01*
X-0112376Y0215226D01*
X-0112201Y0214965D01*
X-0111941Y0214791D01*
X-0111812Y0214480D01*
X-0111954Y0214268D01*
X-0112029Y0213894D01*
X-0108171D01*
X-0108196Y0214019D01*
X-0107815Y0214450D01*
X-0107811Y0214452D01*
X-0107697Y0214429D01*
X-0107106D01*
Y0216419D01*
Y0218409D01*
X-0107697D01*
X-0108119Y0218325D01*
X-0108477Y0218085D01*
X-0108558Y0217965D01*
X-0108983Y0217892D01*
X-0109152Y0217909D01*
X-0109358Y0218046D01*
X-0109665Y0218108D01*
X-0109746D01*
Y0221148D01*
X-0109024D01*
Y0224205D01*
X-0108580Y0224577D01*
X-0108506Y0224565D01*
X-0107855Y0224130D01*
X-0107480Y0224056D01*
Y0225590D01*
X-0109015D01*
X-0108941Y0225216D01*
X-0108705Y0224863D01*
X-0109060Y0224495D01*
X-0114022D01*
Y0226498D01*
X-0111892Y0228629D01*
X-0109024D01*
Y0230786D01*
X-0109002Y0230893D01*
Y0233929D01*
X-0107161D01*
Y0238456D01*
X-0111295D01*
Y0233929D01*
X-0111210D01*
Y0231975D01*
X-0114535D01*
Y0231406D01*
X-0118693D01*
X-0118885Y0231868D01*
X-0118428Y0232325D01*
X-0118189Y0232683D01*
X-0118131Y0232973D01*
X-0110672Y0240432D01*
X-0076573D01*
Y0238264D01*
X-0073227D01*
Y0239620D01*
X-0072164D01*
X-0071421Y0238877D01*
X-0071445Y0238756D01*
X-0071315Y0238103D01*
X-0070945Y0237550D01*
X-0070392Y0237180D01*
X-0069739Y0237050D01*
X-0069086Y0237180D01*
X-0068532Y0237550D01*
X-0068163Y0238103D01*
X-0068033Y0238756D01*
X-0068163Y0239409D01*
X-0068532Y0239962D01*
X-0069086Y0240332D01*
X-0069739Y0240462D01*
X-0069859Y0240438D01*
X-0070927Y0241505D01*
X-0071285Y0241744D01*
X-0071707Y0241828D01*
X-0073227D01*
Y0242890D01*
X-0050756D01*
Y0241732D01*
D02*
G37*
G36*
X-0195276Y0242890D02*
X-0152895D01*
X-0152628Y0242390D01*
X-0152732Y0242235D01*
X-0152861Y0241582D01*
X-0152838Y0241462D01*
X-0156621Y0237678D01*
X-0156860Y0237320D01*
X-0156944Y0236897D01*
Y0214754D01*
X-0159291D01*
Y0215114D01*
X-0159352Y0215421D01*
X-0159527Y0215682D01*
X-0159787Y0215856D01*
X-0160094Y0215917D01*
X-0162063D01*
X-0162370Y0215856D01*
X-0162630Y0215682D01*
X-0162785Y0215450D01*
X-0163007Y0215421D01*
X-0163086D01*
X-0163309Y0215450D01*
X-0163463Y0215682D01*
X-0163724Y0215856D01*
X-0164031Y0215917D01*
X-0166000D01*
X-0166307Y0215856D01*
X-0166567Y0215682D01*
X-0166741Y0215421D01*
X-0166803Y0215114D01*
Y0214002D01*
X-0166823Y0213982D01*
X-0167062Y0213624D01*
X-0167146Y0213201D01*
Y0211021D01*
X-0168109D01*
Y0207674D01*
X-0163976D01*
Y0208383D01*
X-0162360D01*
Y0208340D01*
X-0162299Y0208033D01*
X-0162161Y0207826D01*
X-0162144Y0207658D01*
X-0162217Y0207232D01*
X-0162337Y0207152D01*
X-0162577Y0206794D01*
X-0162661Y0206371D01*
Y0205781D01*
X-0160671D01*
Y0205387D01*
X-0160277D01*
Y0203299D01*
X-0159785D01*
X-0159511Y0203074D01*
Y0198047D01*
X-0159930Y0197900D01*
X-0160011Y0197885D01*
X-0160649Y0198311D01*
X-0161024Y0198385D01*
Y0196457D01*
X-0161811D01*
Y0198385D01*
X-0162185Y0198311D01*
X-0162435Y0198144D01*
X-0162935Y0198412D01*
Y0200878D01*
X-0168250D01*
Y0195760D01*
Y0190642D01*
X-0163563D01*
X-0163356Y0190142D01*
X-0167867Y0185631D01*
X-0168106Y0185273D01*
X-0168190Y0184851D01*
Y0162611D01*
X-0168106Y0162188D01*
X-0167867Y0161830D01*
X-0165197Y0159160D01*
X-0164839Y0158921D01*
X-0164417Y0158837D01*
X-0164416Y0158837D01*
X-0144276D01*
X-0143853Y0158921D01*
X-0143495Y0159160D01*
X-0140460Y0162196D01*
X-0140220Y0162554D01*
X-0140136Y0162977D01*
X-0139840Y0163365D01*
X-0134372D01*
Y0161909D01*
X-0135335D01*
Y0158563D01*
X-0131201D01*
Y0161909D01*
X-0132164D01*
Y0166437D01*
X-0131201D01*
Y0168734D01*
X-0130701Y0169001D01*
X-0130468Y0168846D01*
X-0130094Y0168771D01*
Y0170700D01*
X-0129700D01*
Y0171094D01*
X-0127771D01*
X-0127846Y0171468D01*
X-0127917Y0171575D01*
X-0127682Y0172016D01*
X-0111694D01*
X-0111503Y0171554D01*
X-0112142Y0170915D01*
X-0112316Y0170654D01*
X-0112378Y0170347D01*
Y0167424D01*
X-0112316Y0167117D01*
X-0112142Y0166857D01*
X-0107985Y0162699D01*
X-0108005Y0162598D01*
X-0107875Y0161945D01*
X-0107831Y0161879D01*
X-0108067Y0161438D01*
X-0121358D01*
Y0161909D01*
X-0125492D01*
Y0158563D01*
X-0121358D01*
Y0159230D01*
X-0105361D01*
X-0104939Y0159315D01*
X-0104581Y0159554D01*
X-0103255Y0160880D01*
X-0103015Y0161238D01*
X-0102931Y0161660D01*
Y0165059D01*
X-0103015Y0165481D01*
X-0103058Y0165546D01*
X-0103018Y0165748D01*
X-0103148Y0166401D01*
X-0103518Y0166954D01*
X-0103649Y0167042D01*
X-0103498Y0167542D01*
X-0103362D01*
Y0169532D01*
X-0102575D01*
Y0167361D01*
X-0102355Y0167042D01*
X-0102377Y0166929D01*
X-0100449D01*
Y0166535D01*
X-0100055D01*
Y0164607D01*
X-0099681Y0164681D01*
X-0099465Y0164825D01*
X-0098965Y0164558D01*
Y0161512D01*
X-0092469D01*
Y0167220D01*
X-0094914D01*
Y0167843D01*
X-0093969D01*
X-0093661Y0167904D01*
X-0093401Y0168078D01*
X-0093227Y0168338D01*
X-0093166Y0168646D01*
X-0092677Y0168646D01*
X-0092616Y0168338D01*
X-0092442Y0168078D01*
X-0092181Y0167904D01*
X-0091874Y0167843D01*
X-0091450D01*
Y0161265D01*
X-0091388Y0160958D01*
X-0091214Y0160697D01*
X-0090303Y0159786D01*
Y0154819D01*
X-0083807D01*
Y0160528D01*
X-0088575D01*
X-0088719Y0160717D01*
X-0088471Y0161217D01*
X-0087449D01*
Y0164366D01*
X-0087055D01*
Y0164760D01*
X-0083512D01*
Y0167516D01*
X-0084866D01*
X-0084890Y0167542D01*
X-0085087Y0168016D01*
X-0084949Y0168223D01*
X-0084865Y0168646D01*
Y0169138D01*
X-0086953D01*
Y0169925D01*
X-0084865D01*
Y0170417D01*
X-0084949Y0170840D01*
X-0084676Y0171331D01*
X-0084478Y0171374D01*
X-0084456Y0171368D01*
X-0080166Y0167078D01*
X-0079873Y0166882D01*
X-0079528Y0166813D01*
X-0022899D01*
X-0022631Y0166313D01*
X-0022836Y0166007D01*
X-0022966Y0165354D01*
X-0022836Y0164701D01*
X-0022466Y0164148D01*
X-0021913Y0163778D01*
X-0021868Y0163769D01*
Y0137598D01*
X-0021799Y0137253D01*
X-0021603Y0136960D01*
X-0013045Y0128402D01*
X-0013050Y0128395D01*
X-0013402Y0127545D01*
X-0013522Y0126634D01*
X-0013402Y0125722D01*
X-0013050Y0124873D01*
X-0012491Y0124143D01*
X-0011761Y0123583D01*
X-0010912Y0123232D01*
X-0010037Y0123117D01*
X-0010000Y0123101D01*
X-0005000D01*
X-0004963Y0123117D01*
X-0004088Y0123232D01*
X-0003239Y0123583D01*
X-0002509Y0124143D01*
X-0001950Y0124873D01*
X-0001704Y0125465D01*
X-0001204Y0125366D01*
Y0007874D01*
Y0007217D01*
X-0001460Y0005928D01*
X-0001963Y0004715D01*
X-0002693Y0003622D01*
X-0003622Y0002693D01*
X-0004715Y0001963D01*
X-0005928Y0001460D01*
X-0007217Y0001204D01*
X-0007874Y0001204D01*
X-0195932D01*
X-0197221Y0001460D01*
X-0198435Y0001963D01*
X-0199527Y0002693D01*
X-0200456Y0003622D01*
X-0201186Y0004715D01*
X-0201689Y0005928D01*
X-0201945Y0007217D01*
Y0007874D01*
Y0185431D01*
X-0201445Y0185530D01*
X-0201432Y0185499D01*
X-0200953Y0184874D01*
X-0200328Y0184394D01*
X-0199600Y0184093D01*
X-0198819Y0183990D01*
X-0198038Y0184093D01*
X-0197310Y0184394D01*
X-0196685Y0184874D01*
X-0196205Y0185499D01*
X-0195904Y0186227D01*
X-0195864Y0186529D01*
X-0179858Y0202535D01*
X-0168109D01*
Y0202163D01*
X-0165629D01*
X-0165600Y0202017D01*
X-0165404Y0201724D01*
X-0165111Y0201528D01*
X-0164765Y0201459D01*
X-0164420Y0201528D01*
X-0164127Y0201724D01*
X-0163931Y0202017D01*
X-0163862Y0202362D01*
Y0202655D01*
X-0163931Y0203000D01*
X-0163976Y0203067D01*
Y0205509D01*
X-0168109D01*
Y0204743D01*
X-0180315D01*
X-0180315Y0204743D01*
X-0180315Y0204743D01*
X-0180604D01*
X-0180634Y0204798D01*
X-0180733Y0205243D01*
X-0180261Y0205606D01*
X-0179819Y0206181D01*
X-0179541Y0206852D01*
X-0179447Y0207571D01*
X-0179541Y0208291D01*
X-0179819Y0208961D01*
X-0180261Y0209537D01*
X-0180836Y0209978D01*
X-0181507Y0210256D01*
X-0182226Y0210351D01*
X-0182946Y0210256D01*
X-0183616Y0209978D01*
X-0184192Y0209537D01*
X-0184634Y0208961D01*
X-0184911Y0208291D01*
X-0184969Y0207850D01*
X-0185497Y0207670D01*
X-0185686Y0207859D01*
X-0186044Y0208099D01*
X-0186467Y0208183D01*
X-0194105D01*
X-0194420Y0208683D01*
X-0194376Y0208905D01*
Y0209398D01*
X-0196464D01*
Y0209791D01*
X-0196858D01*
Y0211781D01*
X-0197449D01*
X-0197871Y0211697D01*
X-0198229Y0211458D01*
X-0198762Y0211429D01*
X-0199036Y0211621D01*
Y0212591D01*
X-0191183D01*
Y0222236D01*
X-0201222D01*
Y0213823D01*
X-0201243Y0213717D01*
Y0211935D01*
X-0201445Y0211828D01*
X-0201945Y0212128D01*
Y0223932D01*
X-0201518Y0224107D01*
X-0201445Y0224107D01*
X-0196596D01*
Y0229225D01*
Y0234343D01*
X-0201445D01*
X-0201518Y0234343D01*
X-0201945Y0234517D01*
Y0236877D01*
X-0201689Y0238166D01*
X-0201186Y0239380D01*
X-0200456Y0240472D01*
X-0199527Y0241401D01*
X-0198435Y0242131D01*
X-0197221Y0242634D01*
X-0195932Y0242890D01*
X-0195276Y0242890D01*
D02*
G37*
G36*
X-0062284Y0227265D02*
Y0220895D01*
X-0062223Y0220587D01*
X-0062049Y0220327D01*
X-0061296Y0219574D01*
X-0061296Y0219567D01*
X-0061493Y0219064D01*
X-0062068Y0218950D01*
X-0062719Y0218514D01*
X-0063154Y0217863D01*
X-0063229Y0217489D01*
X-0059371D01*
X-0059446Y0217863D01*
X-0059784Y0218369D01*
X-0059595Y0218832D01*
X-0059562Y0218869D01*
X-0048059D01*
X-0047605Y0218415D01*
X-0047792Y0217915D01*
X-0056004D01*
Y0211813D01*
X-0047539D01*
Y0215890D01*
X-0047039Y0216042D01*
X-0046806Y0215694D01*
X-0046253Y0215324D01*
X-0045600Y0215194D01*
X-0044947Y0215324D01*
X-0044394Y0215694D01*
X-0044368Y0215732D01*
X-0026331D01*
X-0025909Y0215815D01*
X-0025550Y0216055D01*
X-0025166Y0216439D01*
X-0024704Y0216248D01*
Y0211813D01*
X-0018740D01*
X-0017442Y0210515D01*
X-0017718Y0210102D01*
X-0017848Y0209449D01*
X-0017718Y0208796D01*
X-0017348Y0208243D01*
X-0017341Y0208238D01*
X-0017493Y0207738D01*
X-0029597D01*
X-0029646Y0208238D01*
X-0029606Y0208246D01*
X-0028955Y0208681D01*
X-0028520Y0209332D01*
X-0028445Y0209706D01*
X-0032303D01*
X-0032228Y0209332D01*
X-0031793Y0208681D01*
X-0031142Y0208246D01*
X-0031102Y0208238D01*
X-0031151Y0207738D01*
X-0054940D01*
X-0061900Y0214698D01*
X-0061694Y0215084D01*
Y0216702D01*
X-0063311D01*
X-0063697Y0216495D01*
X-0064105Y0216903D01*
Y0219174D01*
Y0223253D01*
X-0063468D01*
Y0226600D01*
X-0067084D01*
Y0229006D01*
X-0066827Y0229399D01*
X-0064419D01*
X-0062284Y0227265D01*
D02*
G37*
G36*
X-0114945Y0228698D02*
X-0115907Y0227736D01*
X-0116146Y0227378D01*
X-0116230Y0226956D01*
Y0208829D01*
X-0116146Y0208407D01*
X-0115907Y0208049D01*
X-0114792Y0206934D01*
X-0114852Y0206634D01*
X-0114722Y0205981D01*
X-0114684Y0205924D01*
X-0114951Y0205424D01*
X-0134966D01*
X-0134991Y0205553D01*
X-0135361Y0206106D01*
X-0135915Y0206476D01*
X-0136568Y0206606D01*
X-0137220Y0206476D01*
X-0137774Y0206106D01*
X-0138144Y0205553D01*
X-0138274Y0204900D01*
X-0138144Y0204247D01*
X-0137774Y0203694D01*
X-0137220Y0203324D01*
X-0136937Y0203268D01*
X-0136773Y0202725D01*
X-0138166Y0201331D01*
X-0138340Y0201071D01*
X-0138401Y0200764D01*
Y0195534D01*
X-0143468Y0190467D01*
X-0143642Y0190207D01*
X-0143653Y0190151D01*
X-0144106Y0189848D01*
X-0144476Y0189295D01*
X-0144606Y0188642D01*
X-0144476Y0187989D01*
X-0144106Y0187435D01*
X-0143553Y0187065D01*
X-0142900Y0186936D01*
X-0142247Y0187065D01*
X-0141694Y0187435D01*
X-0141324Y0187989D01*
X-0141194Y0188642D01*
X-0141324Y0189295D01*
X-0141694Y0189848D01*
X-0141705Y0189960D01*
X-0137031Y0194633D01*
X-0137031Y0194633D01*
X-0136857Y0194894D01*
X-0136796Y0195201D01*
X-0136796Y0195201D01*
Y0200431D01*
X-0134491Y0202736D01*
X-0117758D01*
X-0117671Y0202669D01*
X-0117399Y0202236D01*
X-0117421Y0202125D01*
Y0200156D01*
X-0117360Y0199849D01*
X-0117222Y0199643D01*
X-0117206Y0199474D01*
X-0117278Y0199049D01*
X-0117399Y0198969D01*
X-0117638Y0198610D01*
X-0117722Y0198188D01*
Y0197597D01*
X-0115732D01*
Y0196810D01*
X-0117722D01*
Y0196220D01*
X-0117638Y0195797D01*
X-0117399Y0195439D01*
X-0117372Y0195421D01*
X-0117524Y0194921D01*
X-0117933D01*
Y0190394D01*
X-0115270D01*
X-0114988Y0189894D01*
X-0115092Y0189370D01*
X-0115055Y0189186D01*
X-0115067Y0189131D01*
X-0115468Y0188697D01*
X-0117126D01*
X-0117433Y0188635D01*
X-0117694Y0188461D01*
X-0117849Y0188230D01*
X-0118071Y0188201D01*
X-0118150D01*
X-0118372Y0188230D01*
X-0118527Y0188461D01*
X-0118787Y0188635D01*
X-0119095Y0188697D01*
X-0121063D01*
X-0121370Y0188635D01*
X-0121631Y0188461D01*
X-0121786Y0188230D01*
X-0122008Y0188201D01*
X-0122087D01*
X-0122309Y0188230D01*
X-0122464Y0188461D01*
X-0122724Y0188635D01*
X-0123031Y0188697D01*
X-0125000D01*
X-0125307Y0188635D01*
X-0125514Y0188497D01*
X-0125682Y0188481D01*
X-0126107Y0188554D01*
X-0126188Y0188674D01*
X-0126546Y0188914D01*
X-0126969Y0188998D01*
X-0127559D01*
Y0187008D01*
X-0127953D01*
Y0186614D01*
X-0130041D01*
Y0186122D01*
X-0129957Y0185700D01*
X-0129718Y0185342D01*
Y0184948D01*
X-0129809Y0184802D01*
X-0130176Y0184253D01*
X-0130306Y0183600D01*
X-0130176Y0182947D01*
X-0129806Y0182394D01*
X-0129736Y0182347D01*
X-0129957Y0182017D01*
X-0130041Y0181595D01*
Y0181102D01*
X-0127953D01*
Y0180315D01*
X-0130041D01*
Y0179823D01*
X-0130271Y0179543D01*
X-0131809D01*
X-0132951Y0180685D01*
X-0133212Y0180860D01*
X-0133519Y0180921D01*
X-0137823D01*
X-0137967Y0181038D01*
Y0181720D01*
X-0140329D01*
Y0182114D01*
X-0140722D01*
Y0184673D01*
X-0142350D01*
X-0142388Y0184721D01*
X-0142518Y0185373D01*
X-0142888Y0185927D01*
X-0143442Y0186297D01*
X-0143876Y0186383D01*
X-0146318Y0188824D01*
Y0203917D01*
X-0146096D01*
Y0205077D01*
X-0143766D01*
X-0143344Y0205161D01*
X-0142986Y0205400D01*
X-0119188Y0229198D01*
X-0115152D01*
X-0114945Y0228698D01*
D02*
G37*
G36*
X-0087811Y0200043D02*
X-0086827D01*
Y0200339D01*
X-0085351D01*
Y0198370D01*
Y0196402D01*
Y0194433D01*
Y0192465D01*
Y0190496D01*
Y0188528D01*
Y0186559D01*
Y0184591D01*
Y0182622D01*
Y0181146D01*
X-0085646D01*
Y0180161D01*
X-0083776D01*
Y0179374D01*
X-0085646D01*
Y0178390D01*
X-0085351D01*
Y0176929D01*
X-0085941D01*
X-0086019Y0176913D01*
X-0098638D01*
Y0177209D01*
X-0099622D01*
Y0175339D01*
X-0100409D01*
Y0177209D01*
X-0101394D01*
Y0176913D01*
X-0108776D01*
Y0178685D01*
Y0180654D01*
Y0182622D01*
Y0184591D01*
Y0186559D01*
Y0188528D01*
Y0190496D01*
Y0192465D01*
Y0194433D01*
Y0196106D01*
X-0108480D01*
Y0197091D01*
X-0110350D01*
Y0197878D01*
X-0108480D01*
Y0198862D01*
X-0108776D01*
Y0200339D01*
X-0089583D01*
Y0200043D01*
X-0088599D01*
Y0201913D01*
X-0087811D01*
Y0200043D01*
D02*
G37*
G36*
X-0149291Y0194528D02*
X-0149025Y0194581D01*
X-0148525Y0194309D01*
Y0193036D01*
X-0148799Y0192811D01*
X-0149292D01*
Y0190723D01*
X-0149685D01*
Y0190329D01*
X-0151675D01*
Y0189738D01*
X-0151591Y0189316D01*
X-0151351Y0188958D01*
X-0151231Y0188877D01*
X-0151158Y0188452D01*
X-0151175Y0188284D01*
X-0151313Y0188077D01*
X-0151374Y0187770D01*
Y0185801D01*
X-0151313Y0185494D01*
X-0151139Y0185234D01*
X-0150878Y0185060D01*
X-0150571Y0184999D01*
X-0148799D01*
X-0148492Y0185060D01*
X-0148232Y0185234D01*
X-0148058Y0185494D01*
X-0147996Y0185801D01*
Y0186550D01*
X-0147581Y0186966D01*
X-0145812Y0185196D01*
X-0145868Y0184668D01*
X-0146242Y0184378D01*
X-0148903D01*
X-0148990Y0184395D01*
X-0151685D01*
X-0153453Y0186163D01*
Y0187657D01*
X-0153514Y0187965D01*
X-0153652Y0188171D01*
X-0153669Y0188340D01*
X-0153596Y0188765D01*
X-0153475Y0188845D01*
X-0153236Y0189204D01*
X-0153152Y0189626D01*
Y0190217D01*
X-0155142D01*
Y0191004D01*
X-0153152D01*
Y0191594D01*
X-0153236Y0192017D01*
X-0153475Y0192375D01*
X-0153833Y0192614D01*
X-0154256Y0192698D01*
X-0154658D01*
X-0154849Y0193160D01*
X-0152094Y0195915D01*
X-0152048Y0195916D01*
X-0151563Y0195806D01*
X-0151539Y0195689D01*
X-0151104Y0195037D01*
X-0150453Y0194602D01*
X-0150079Y0194528D01*
Y0196457D01*
X-0149291D01*
Y0194528D01*
D02*
G37*
G36*
X-0090753Y0218824D02*
X-0090100Y0218694D01*
X-0089957Y0218722D01*
X-0089571Y0218405D01*
Y0218012D01*
X-0089304D01*
X-0089037Y0217512D01*
X-0089076Y0217453D01*
X-0089206Y0216800D01*
X-0089076Y0216147D01*
X-0088706Y0215594D01*
X-0088153Y0215224D01*
X-0087500Y0215094D01*
X-0086847Y0215224D01*
X-0086294Y0215594D01*
X-0086225Y0215696D01*
X-0068387D01*
X-0056871Y0204180D01*
X-0056513Y0203941D01*
X-0056090Y0203857D01*
X-0017229D01*
X-0017102Y0203663D01*
X-0017009Y0203357D01*
X-0017324Y0202885D01*
X-0017454Y0202232D01*
X-0017324Y0201580D01*
X-0016954Y0201026D01*
X-0016906Y0200994D01*
X-0017058Y0200494D01*
X-0020078D01*
Y0197147D01*
Y0193801D01*
X-0016061D01*
Y0182484D01*
X-0015992Y0182138D01*
X-0015796Y0181845D01*
X-0015050Y0181099D01*
X-0015130Y0180876D01*
X-0015703Y0180759D01*
X-0016389Y0181446D01*
X-0016682Y0181641D01*
X-0016720Y0181649D01*
X-0019415Y0184343D01*
X-0019708Y0184539D01*
X-0020053Y0184608D01*
X-0058616D01*
X-0062878Y0188870D01*
X-0062672Y0189319D01*
X-0062641Y0189340D01*
X-0062294Y0189271D01*
Y0190806D01*
X-0063829D01*
X-0063760Y0190459D01*
X-0063781Y0190428D01*
X-0064230Y0190222D01*
X-0067651Y0193643D01*
X-0067669Y0193736D01*
X-0067865Y0194029D01*
X-0071324Y0197489D01*
X-0071618Y0197684D01*
X-0071711Y0197703D01*
X-0073211Y0199203D01*
Y0200141D01*
X-0073280Y0200487D01*
X-0073475Y0200780D01*
X-0082484Y0209788D01*
X-0082777Y0209984D01*
X-0083123Y0210053D01*
X-0090647D01*
X-0090992Y0209984D01*
X-0091233Y0209823D01*
X-0091588Y0209914D01*
X-0091733Y0209974D01*
Y0218932D01*
X-0091523Y0219061D01*
X-0091233Y0219144D01*
X-0090753Y0218824D01*
D02*
G37*
G36*
X-0013492Y0198512D02*
Y0193142D01*
X-0010098D01*
X-0010000Y0193101D01*
X-0002000D01*
X-0001704Y0193224D01*
X-0001204Y0193023D01*
Y0177902D01*
X-0001704Y0177802D01*
X-0001950Y0178395D01*
X-0002509Y0179124D01*
X-0003239Y0179684D01*
X-0004088Y0180036D01*
X-0004963Y0180151D01*
X-0005000Y0180166D01*
X-0010000D01*
X-0010037Y0180151D01*
X-0010912Y0180036D01*
X-0011510Y0179788D01*
X-0012028Y0180013D01*
X-0012076Y0180073D01*
X-0012105Y0180215D01*
X-0012474Y0180768D01*
X-0012778Y0180971D01*
Y0181007D01*
X-0012846Y0181353D01*
X-0013042Y0181646D01*
X-0014254Y0182858D01*
Y0198543D01*
X-0013785Y0198748D01*
X-0013492Y0198512D01*
D02*
G37*
G36*
X-0059836Y0177845D02*
X-0060027Y0177383D01*
X-0068095D01*
X-0068111Y0177399D01*
X-0068469Y0177638D01*
X-0068891Y0177722D01*
X-0074093D01*
Y0179014D01*
X-0073629Y0179478D01*
X-0073389Y0179836D01*
X-0073305Y0180259D01*
Y0189670D01*
X-0073203Y0189738D01*
X-0072896Y0190198D01*
X-0072349Y0190358D01*
X-0059836Y0177845D01*
D02*
G37*
G36*
X-0069333Y0175499D02*
X-0069333Y0175499D01*
X-0068975Y0175259D01*
X-0068552Y0175175D01*
X-0023421D01*
X-0023186Y0174734D01*
X-0023230Y0174668D01*
X-0023359Y0174015D01*
X-0023230Y0173363D01*
X-0022860Y0172809D01*
X-0022306Y0172439D01*
X-0021654Y0172309D01*
X-0021001Y0172439D01*
X-0020741Y0172613D01*
X-0014123Y0165995D01*
X-0013830Y0165799D01*
X-0013484Y0165731D01*
X-0013403D01*
X-0013402Y0165722D01*
X-0013050Y0164873D01*
X-0012491Y0164143D01*
X-0011761Y0163584D01*
X-0010912Y0163232D01*
X-0010037Y0163117D01*
X-0010000Y0163101D01*
X-0005000D01*
X-0004963Y0163117D01*
X-0004088Y0163232D01*
X-0003239Y0163584D01*
X-0002509Y0164143D01*
X-0001950Y0164873D01*
X-0001704Y0165465D01*
X-0001204Y0165366D01*
Y0157902D01*
X-0001704Y0157802D01*
X-0001950Y0158395D01*
X-0002509Y0159125D01*
X-0003239Y0159684D01*
X-0004088Y0160036D01*
X-0004963Y0160151D01*
X-0005000Y0160167D01*
X-0010000D01*
X-0010037Y0160151D01*
X-0010912Y0160036D01*
X-0011220Y0159908D01*
X-0019667Y0168355D01*
X-0019960Y0168551D01*
X-0020306Y0168620D01*
X-0079153D01*
X-0083704Y0173170D01*
X-0083997Y0173366D01*
X-0084342Y0173434D01*
X-0084659Y0173371D01*
X-0084894D01*
X-0085154Y0173764D01*
Y0175323D01*
X-0080365D01*
X-0080194Y0175066D01*
X-0079933Y0174892D01*
X-0079626Y0174831D01*
X-0077854D01*
X-0077547Y0174892D01*
X-0077287Y0175066D01*
X-0077113Y0175327D01*
X-0077075Y0175514D01*
X-0069349D01*
X-0069333Y0175499D01*
D02*
G37*
G36*
X-0157132Y0190225D02*
Y0189626D01*
X-0157047Y0189204D01*
X-0156808Y0188845D01*
X-0156688Y0188765D01*
X-0156615Y0188340D01*
X-0156631Y0188171D01*
X-0156769Y0187965D01*
X-0156830Y0187657D01*
Y0185689D01*
X-0156769Y0185382D01*
X-0156595Y0185121D01*
X-0156335Y0184947D01*
X-0156028Y0184886D01*
X-0154730D01*
X-0152698Y0182853D01*
X-0152405Y0182658D01*
X-0152059Y0182589D01*
X-0149876D01*
Y0179850D01*
X-0148577D01*
X-0148551Y0179718D01*
X-0148377Y0179457D01*
X-0145885Y0176966D01*
X-0146077Y0176504D01*
X-0146136D01*
Y0171976D01*
X-0144895D01*
Y0169764D01*
X-0145185Y0169706D01*
X-0145446Y0169532D01*
X-0145620Y0169272D01*
X-0145681Y0168965D01*
Y0166996D01*
X-0145620Y0166689D01*
X-0145446Y0166428D01*
X-0145214Y0166273D01*
X-0145185Y0166051D01*
Y0165972D01*
X-0145214Y0165750D01*
X-0145446Y0165595D01*
X-0145620Y0165335D01*
X-0145681Y0165028D01*
Y0164061D01*
X-0145865D01*
X-0146211Y0163992D01*
X-0146504Y0163796D01*
X-0146548Y0163752D01*
X-0146591Y0163781D01*
X-0147244Y0163911D01*
X-0147897Y0163781D01*
X-0148450Y0163411D01*
X-0148820Y0162858D01*
X-0148950Y0162205D01*
X-0148820Y0161552D01*
X-0148776Y0161486D01*
X-0149012Y0161045D01*
X-0150059D01*
Y0165815D01*
X-0163261D01*
X-0164309Y0166863D01*
Y0168473D01*
X-0157834D01*
Y0171228D01*
Y0173984D01*
X-0164309D01*
Y0183701D01*
X-0157593Y0190416D01*
X-0157132Y0190225D01*
D02*
G37*
%LPC*%
G36*
X-0145062Y0241453D02*
X-0147031D01*
Y0239484D01*
X-0145062D01*
Y0241453D01*
D02*
G37*
G36*
X-0121484Y0238685D02*
Y0237150D01*
X-0119948D01*
X-0120023Y0237524D01*
X-0120458Y0238175D01*
X-0121109Y0238610D01*
X-0121484Y0238685D01*
D02*
G37*
G36*
X-0122271D02*
X-0122645Y0238610D01*
X-0123296Y0238175D01*
X-0123732Y0237524D01*
X-0123806Y0237150D01*
X-0122271D01*
Y0238685D01*
D02*
G37*
G36*
X-0135435Y0238504D02*
Y0236969D01*
X-0133900D01*
X-0133974Y0237344D01*
X-0134409Y0237995D01*
X-0135060Y0238430D01*
X-0135435Y0238504D01*
D02*
G37*
G36*
X-0136222D02*
X-0136597Y0238430D01*
X-0137248Y0237995D01*
X-0137683Y0237344D01*
X-0137757Y0236969D01*
X-0136222D01*
Y0238504D01*
D02*
G37*
G36*
X-0145062Y0238697D02*
X-0147031D01*
Y0236728D01*
X-0145062D01*
Y0238697D01*
D02*
G37*
G36*
X-0147818D02*
X-0149787D01*
Y0236728D01*
X-0147818D01*
Y0238697D01*
D02*
G37*
G36*
X-0119948Y0236362D02*
X-0121484D01*
Y0234827D01*
X-0121109Y0234902D01*
X-0120458Y0235337D01*
X-0120023Y0235988D01*
X-0119948Y0236362D01*
D02*
G37*
G36*
X-0122271D02*
X-0123806D01*
X-0123732Y0235988D01*
X-0123296Y0235337D01*
X-0122645Y0234902D01*
X-0122271Y0234827D01*
Y0236362D01*
D02*
G37*
G36*
X-0133900Y0236182D02*
X-0135435D01*
Y0234647D01*
X-0135060Y0234721D01*
X-0134409Y0235156D01*
X-0133974Y0235808D01*
X-0133900Y0236182D01*
D02*
G37*
G36*
X-0136222D02*
X-0137757D01*
X-0137683Y0235808D01*
X-0137248Y0235156D01*
X-0136597Y0234721D01*
X-0136222Y0234647D01*
Y0236182D01*
D02*
G37*
G36*
X-0141106Y0233221D02*
Y0231686D01*
X-0139571D01*
X-0139646Y0232061D01*
X-0140081Y0232712D01*
X-0140732Y0233147D01*
X-0141106Y0233221D01*
D02*
G37*
G36*
X-0141894D02*
X-0142268Y0233147D01*
X-0142919Y0232712D01*
X-0143354Y0232061D01*
X-0143429Y0231686D01*
X-0141894D01*
Y0233221D01*
D02*
G37*
G36*
X-0126406Y0232329D02*
Y0230794D01*
X-0124871D01*
X-0124946Y0231168D01*
X-0125381Y0231819D01*
X-0126032Y0232254D01*
X-0126406Y0232329D01*
D02*
G37*
G36*
X-0127194D02*
X-0127568Y0232254D01*
X-0128219Y0231819D01*
X-0128654Y0231168D01*
X-0128729Y0230794D01*
X-0127194D01*
Y0232329D01*
D02*
G37*
G36*
X-0139571Y0230899D02*
X-0141106D01*
Y0229364D01*
X-0140732Y0229438D01*
X-0140081Y0229873D01*
X-0139646Y0230525D01*
X-0139571Y0230899D01*
D02*
G37*
G36*
X-0141894D02*
X-0143429D01*
X-0143354Y0230525D01*
X-0142919Y0229873D01*
X-0142268Y0229438D01*
X-0141894Y0229364D01*
Y0230899D01*
D02*
G37*
G36*
X-0127194Y0230006D02*
X-0128729D01*
X-0128654Y0229632D01*
X-0128219Y0228981D01*
X-0127568Y0228546D01*
X-0127194Y0228471D01*
Y0230006D01*
D02*
G37*
G36*
X-0137106Y0221903D02*
Y0220368D01*
X-0135571D01*
X-0135646Y0220742D01*
X-0136081Y0221393D01*
X-0136732Y0221829D01*
X-0137106Y0221903D01*
D02*
G37*
G36*
X-0137894D02*
X-0138268Y0221829D01*
X-0138919Y0221393D01*
X-0139354Y0220742D01*
X-0139429Y0220368D01*
X-0137894D01*
Y0221903D01*
D02*
G37*
G36*
X-0135571Y0219581D02*
X-0137106D01*
Y0218045D01*
X-0136732Y0218120D01*
X-0136081Y0218555D01*
X-0135646Y0219206D01*
X-0135571Y0219581D01*
D02*
G37*
G36*
X-0137894D02*
X-0139429D01*
X-0139354Y0219206D01*
X-0138919Y0218555D01*
X-0138268Y0218120D01*
X-0137894Y0218045D01*
Y0219581D01*
D02*
G37*
G36*
X-0146096Y0214744D02*
X-0149837D01*
Y0211398D01*
X-0146096D01*
Y0214744D01*
D02*
G37*
G36*
X-0153675Y0209134D02*
X-0155447D01*
Y0206772D01*
X-0153675D01*
Y0209134D01*
D02*
G37*
G36*
X-0026051Y0229405D02*
Y0226575D01*
X-0023221D01*
X-0023280Y0227029D01*
X-0023608Y0227819D01*
X-0024128Y0228498D01*
X-0024807Y0229018D01*
X-0025597Y0229345D01*
X-0026051Y0229405D01*
D02*
G37*
G36*
X-0017948Y0225210D02*
Y0223675D01*
X-0016413D01*
X-0016487Y0224049D01*
X-0016922Y0224700D01*
X-0017574Y0225135D01*
X-0017948Y0225210D01*
D02*
G37*
G36*
X-0018735D02*
X-0019110Y0225135D01*
X-0019761Y0224700D01*
X-0020196Y0224049D01*
X-0020270Y0223675D01*
X-0018735D01*
Y0225210D01*
D02*
G37*
G36*
X-0023221Y0225787D02*
X-0026051D01*
Y0222957D01*
X-0025597Y0223017D01*
X-0024807Y0223344D01*
X-0024128Y0223865D01*
X-0023608Y0224543D01*
X-0023280Y0225333D01*
X-0023221Y0225787D01*
D02*
G37*
G36*
X-0016413Y0222887D02*
X-0017948D01*
Y0221352D01*
X-0017574Y0221427D01*
X-0016922Y0221862D01*
X-0016487Y0222513D01*
X-0016413Y0222887D01*
D02*
G37*
G36*
X-0018735D02*
X-0020270D01*
X-0020196Y0222513D01*
X-0019761Y0221862D01*
X-0019110Y0221427D01*
X-0018735Y0221352D01*
Y0222887D01*
D02*
G37*
G36*
X-0099555Y0239120D02*
X-0099930Y0239046D01*
X-0100458Y0238693D01*
X-0100567Y0238752D01*
Y0238752D01*
X-0102535D01*
Y0236193D01*
Y0233633D01*
X-0100567D01*
Y0235233D01*
X-0100126Y0235469D01*
X-0099930Y0235337D01*
X-0099555Y0235263D01*
Y0237192D01*
Y0239120D01*
D02*
G37*
G36*
X-0054917Y0240522D02*
X-0056689D01*
Y0238386D01*
X-0054917D01*
Y0240522D01*
D02*
G37*
G36*
X-0057476D02*
X-0059248D01*
Y0238159D01*
X-0057476D01*
Y0240522D01*
D02*
G37*
G36*
X-0103323Y0238752D02*
X-0105291D01*
Y0236586D01*
X-0103323D01*
Y0238752D01*
D02*
G37*
G36*
X-0074497Y0237012D02*
Y0235476D01*
X-0072962D01*
X-0073037Y0235851D01*
X-0073472Y0236502D01*
X-0074123Y0236937D01*
X-0074497Y0237012D01*
D02*
G37*
G36*
X-0075285D02*
X-0075659Y0236937D01*
X-0076310Y0236502D01*
X-0076745Y0235851D01*
X-0076820Y0235476D01*
X-0075285D01*
Y0237012D01*
D02*
G37*
G36*
X-0103323Y0235799D02*
X-0105291D01*
Y0233633D01*
X-0103323D01*
Y0235799D01*
D02*
G37*
G36*
X-0072962Y0234689D02*
X-0074497D01*
Y0233154D01*
X-0074123Y0233229D01*
X-0073472Y0233664D01*
X-0073037Y0234315D01*
X-0072962Y0234689D01*
D02*
G37*
G36*
X-0075285D02*
X-0076820D01*
X-0076745Y0234315D01*
X-0076310Y0233664D01*
X-0075659Y0233229D01*
X-0075285Y0233154D01*
Y0234689D01*
D02*
G37*
G36*
X-0045933Y0229405D02*
X-0046387Y0229345D01*
X-0047177Y0229018D01*
X-0047856Y0228498D01*
X-0048377Y0227819D01*
X-0048704Y0227029D01*
X-0048764Y0226575D01*
X-0045933D01*
Y0229405D01*
D02*
G37*
G36*
X-0107480Y0227913D02*
X-0107855Y0227838D01*
X-0108506Y0227403D01*
X-0108941Y0226752D01*
X-0109015Y0226378D01*
X-0107480D01*
Y0227913D01*
D02*
G37*
G36*
X-0105728Y0218409D02*
X-0106319D01*
Y0216813D01*
X-0104624D01*
Y0217305D01*
X-0104709Y0217727D01*
X-0104948Y0218085D01*
X-0105306Y0218325D01*
X-0105728Y0218409D01*
D02*
G37*
G36*
X-0100787Y0218407D02*
X-0101378D01*
X-0101800Y0218323D01*
X-0102158Y0218084D01*
X-0102398Y0217726D01*
X-0102482Y0217303D01*
Y0216811D01*
X-0100787D01*
Y0218407D01*
D02*
G37*
G36*
X-0104624Y0216025D02*
X-0106319D01*
Y0214429D01*
X-0105728D01*
X-0105306Y0214513D01*
X-0104948Y0214753D01*
X-0104709Y0215111D01*
X-0104624Y0215533D01*
Y0216025D01*
D02*
G37*
G36*
X-0100787Y0216024D02*
X-0102482D01*
Y0215531D01*
X-0102398Y0215109D01*
X-0102158Y0214751D01*
X-0101800Y0214512D01*
X-0101378Y0214428D01*
X-0100787D01*
Y0216024D01*
D02*
G37*
G36*
X-0111024Y0210083D02*
X-0112718D01*
Y0209591D01*
X-0112634Y0209168D01*
X-0112395Y0208810D01*
X-0112037Y0208571D01*
X-0111614Y0208487D01*
X-0111024D01*
Y0210083D01*
D02*
G37*
G36*
X-0174781Y0242187D02*
Y0240652D01*
X-0173246D01*
X-0173320Y0241026D01*
X-0173756Y0241678D01*
X-0174407Y0242113D01*
X-0174781Y0242187D01*
D02*
G37*
G36*
X-0175568D02*
X-0175943Y0242113D01*
X-0176594Y0241678D01*
X-0177029Y0241026D01*
X-0177104Y0240652D01*
X-0175568D01*
Y0242187D01*
D02*
G37*
G36*
X-0196906Y0240795D02*
Y0239260D01*
X-0195371D01*
X-0195446Y0239634D01*
X-0195881Y0240285D01*
X-0196532Y0240721D01*
X-0196906Y0240795D01*
D02*
G37*
G36*
X-0197694D02*
X-0198068Y0240721D01*
X-0198719Y0240285D01*
X-0199154Y0239634D01*
X-0199229Y0239260D01*
X-0197694D01*
Y0240795D01*
D02*
G37*
G36*
X-0173246Y0239865D02*
X-0174781D01*
Y0238330D01*
X-0174407Y0238404D01*
X-0173756Y0238839D01*
X-0173320Y0239490D01*
X-0173246Y0239865D01*
D02*
G37*
G36*
X-0175568D02*
X-0177104D01*
X-0177029Y0239490D01*
X-0176594Y0238839D01*
X-0175943Y0238404D01*
X-0175568Y0238330D01*
Y0239865D01*
D02*
G37*
G36*
X-0195371Y0238473D02*
X-0196906D01*
Y0236937D01*
X-0196532Y0237012D01*
X-0195881Y0237447D01*
X-0195446Y0238098D01*
X-0195371Y0238473D01*
D02*
G37*
G36*
X-0197694D02*
X-0199229D01*
X-0199154Y0238098D01*
X-0198719Y0237447D01*
X-0198068Y0237012D01*
X-0197694Y0236937D01*
Y0238473D01*
D02*
G37*
G36*
X-0182226Y0237910D02*
X-0182946Y0237815D01*
X-0183616Y0237537D01*
X-0184192Y0237096D01*
X-0184634Y0236520D01*
X-0184911Y0235849D01*
X-0185006Y0235130D01*
X-0184911Y0234411D01*
X-0184634Y0233740D01*
X-0184192Y0233165D01*
X-0183616Y0232723D01*
X-0182946Y0232445D01*
X-0182226Y0232350D01*
X-0181507Y0232445D01*
X-0180836Y0232723D01*
X-0180261Y0233165D01*
X-0179819Y0233740D01*
X-0179541Y0234411D01*
X-0179447Y0235130D01*
X-0179541Y0235849D01*
X-0179819Y0236520D01*
X-0180261Y0237096D01*
X-0180836Y0237537D01*
X-0181507Y0237815D01*
X-0182226Y0237910D01*
D02*
G37*
G36*
X-0160314Y0231909D02*
Y0230374D01*
X-0158779D01*
X-0158853Y0230749D01*
X-0159288Y0231400D01*
X-0159939Y0231835D01*
X-0160314Y0231909D01*
D02*
G37*
G36*
X-0161101D02*
X-0161475Y0231835D01*
X-0162127Y0231400D01*
X-0162562Y0230749D01*
X-0162636Y0230374D01*
X-0161101D01*
Y0231909D01*
D02*
G37*
G36*
X-0195809Y0234343D02*
Y0229618D01*
X-0190888D01*
Y0234343D01*
X-0195809D01*
D02*
G37*
G36*
X-0158779Y0229587D02*
X-0160314D01*
Y0228052D01*
X-0159939Y0228126D01*
X-0159288Y0228561D01*
X-0158853Y0229212D01*
X-0158779Y0229587D01*
D02*
G37*
G36*
X-0161101D02*
X-0162636D01*
X-0162562Y0229212D01*
X-0162127Y0228561D01*
X-0161475Y0228126D01*
X-0161101Y0228052D01*
Y0229587D01*
D02*
G37*
G36*
X-0187406Y0226429D02*
Y0224894D01*
X-0185871D01*
X-0185946Y0225268D01*
X-0186381Y0225919D01*
X-0187032Y0226354D01*
X-0187406Y0226429D01*
D02*
G37*
G36*
X-0188194D02*
X-0188568Y0226354D01*
X-0189219Y0225919D01*
X-0189654Y0225268D01*
X-0189729Y0224894D01*
X-0188194D01*
Y0226429D01*
D02*
G37*
G36*
X-0190888Y0228831D02*
X-0195809D01*
Y0224107D01*
X-0190888D01*
Y0228831D01*
D02*
G37*
G36*
X-0185871Y0224106D02*
X-0187406D01*
Y0222571D01*
X-0187032Y0222646D01*
X-0186381Y0223081D01*
X-0185946Y0223732D01*
X-0185871Y0224106D01*
D02*
G37*
G36*
X-0188194D02*
X-0189729D01*
X-0189654Y0223732D01*
X-0189219Y0223081D01*
X-0188568Y0222646D01*
X-0188194Y0222571D01*
Y0224106D01*
D02*
G37*
G36*
X-0172926Y0224058D02*
X-0173502Y0223943D01*
X-0173990Y0223617D01*
X-0174317Y0223129D01*
X-0174431Y0222552D01*
X-0174317Y0221976D01*
X-0173990Y0221488D01*
X-0173502Y0221162D01*
X-0172926Y0221047D01*
X-0172349Y0221162D01*
X-0171861Y0221488D01*
X-0171535Y0221976D01*
X-0171420Y0222552D01*
X-0171535Y0223129D01*
X-0171861Y0223617D01*
X-0172349Y0223943D01*
X-0172926Y0224058D01*
D02*
G37*
G36*
X-0195480Y0211781D02*
X-0196071D01*
Y0210185D01*
X-0194376D01*
Y0210677D01*
X-0194460Y0211100D01*
X-0194699Y0211458D01*
X-0195057Y0211697D01*
X-0195480Y0211781D01*
D02*
G37*
G36*
X-0161065Y0204993D02*
X-0162661D01*
Y0204403D01*
X-0162577Y0203980D01*
X-0162337Y0203622D01*
X-0161979Y0203383D01*
X-0161557Y0203299D01*
X-0161065D01*
Y0204993D01*
D02*
G37*
G36*
X-0178206Y0200829D02*
Y0199294D01*
X-0176671D01*
X-0176746Y0199668D01*
X-0177181Y0200319D01*
X-0177832Y0200754D01*
X-0178206Y0200829D01*
D02*
G37*
G36*
X-0178994D02*
X-0179368Y0200754D01*
X-0180019Y0200319D01*
X-0180454Y0199668D01*
X-0180529Y0199294D01*
X-0178994D01*
Y0200829D01*
D02*
G37*
G36*
X-0176671Y0198506D02*
X-0178206D01*
Y0196971D01*
X-0177832Y0197046D01*
X-0177181Y0197481D01*
X-0176746Y0198132D01*
X-0176671Y0198506D01*
D02*
G37*
G36*
X-0178994D02*
X-0180529D01*
X-0180454Y0198132D01*
X-0180019Y0197481D01*
X-0179368Y0197046D01*
X-0178994Y0196971D01*
Y0198506D01*
D02*
G37*
G36*
X-0169037Y0200878D02*
X-0174352D01*
Y0196154D01*
X-0169037D01*
Y0200878D01*
D02*
G37*
G36*
Y0195366D02*
X-0174352D01*
Y0190642D01*
X-0169037D01*
Y0195366D01*
D02*
G37*
G36*
X-0187706Y0189329D02*
Y0187794D01*
X-0186171D01*
X-0186246Y0188168D01*
X-0186681Y0188819D01*
X-0187332Y0189254D01*
X-0187706Y0189329D01*
D02*
G37*
G36*
X-0188494D02*
X-0188868Y0189254D01*
X-0189519Y0188819D01*
X-0189954Y0188168D01*
X-0190029Y0187794D01*
X-0188494D01*
Y0189329D01*
D02*
G37*
G36*
X-0186171Y0187006D02*
X-0187706D01*
Y0185471D01*
X-0187332Y0185546D01*
X-0186681Y0185981D01*
X-0186246Y0186632D01*
X-0186171Y0187006D01*
D02*
G37*
G36*
X-0188494D02*
X-0190029D01*
X-0189954Y0186632D01*
X-0189519Y0185981D01*
X-0188868Y0185546D01*
X-0188494Y0185471D01*
Y0187006D01*
D02*
G37*
G36*
X-0198506Y0180078D02*
Y0178543D01*
X-0196971D01*
X-0197046Y0178917D01*
X-0197481Y0179569D01*
X-0198132Y0180004D01*
X-0198506Y0180078D01*
D02*
G37*
G36*
X-0199294D02*
X-0199668Y0180004D01*
X-0200319Y0179569D01*
X-0200754Y0178917D01*
X-0200829Y0178543D01*
X-0199294D01*
Y0180078D01*
D02*
G37*
G36*
X-0172893Y0183925D02*
X-0187263D01*
Y0177035D01*
X-0172893D01*
Y0183925D01*
D02*
G37*
G36*
X-0196971Y0177756D02*
X-0198506D01*
Y0176221D01*
X-0198132Y0176295D01*
X-0197481Y0176730D01*
X-0197046Y0177381D01*
X-0196971Y0177756D01*
D02*
G37*
G36*
X-0199294D02*
X-0200829D01*
X-0200754Y0177381D01*
X-0200319Y0176730D01*
X-0199668Y0176295D01*
X-0199294Y0176221D01*
Y0177756D01*
D02*
G37*
G36*
X-0127771Y0170306D02*
X-0129306D01*
Y0168771D01*
X-0128932Y0168846D01*
X-0128281Y0169281D01*
X-0127846Y0169932D01*
X-0127771Y0170306D01*
D02*
G37*
G36*
X-0121063Y0170079D02*
X-0123031D01*
Y0168504D01*
X-0121063D01*
Y0170079D01*
D02*
G37*
G36*
X-0123819D02*
X-0125787D01*
Y0168504D01*
X-0123819D01*
Y0170079D01*
D02*
G37*
G36*
X-0121063Y0167717D02*
X-0123031D01*
Y0166142D01*
X-0121063D01*
Y0167717D01*
D02*
G37*
G36*
X-0123819D02*
X-0125787D01*
Y0166142D01*
X-0123819D01*
Y0167717D01*
D02*
G37*
G36*
X-0100842Y0166142D02*
X-0102377D01*
X-0102303Y0165767D01*
X-0101868Y0165116D01*
X-0101217Y0164681D01*
X-0100842Y0164607D01*
Y0166142D01*
D02*
G37*
G36*
X-0052806Y0166129D02*
Y0164594D01*
X-0051271D01*
X-0051346Y0164968D01*
X-0051781Y0165619D01*
X-0052432Y0166054D01*
X-0052806Y0166129D01*
D02*
G37*
G36*
X-0053594D02*
X-0053968Y0166054D01*
X-0054619Y0165619D01*
X-0055054Y0164968D01*
X-0055129Y0164594D01*
X-0053594D01*
Y0166129D01*
D02*
G37*
G36*
X-0079303Y0165795D02*
Y0164260D01*
X-0077768D01*
X-0077842Y0164634D01*
X-0078277Y0165285D01*
X-0078928Y0165720D01*
X-0079303Y0165795D01*
D02*
G37*
G36*
X-0080090D02*
X-0080464Y0165720D01*
X-0081116Y0165285D01*
X-0081551Y0164634D01*
X-0081625Y0164260D01*
X-0080090D01*
Y0165795D01*
D02*
G37*
G36*
X-0025906Y0164829D02*
Y0163294D01*
X-0024371D01*
X-0024446Y0163668D01*
X-0024881Y0164319D01*
X-0025532Y0164754D01*
X-0025906Y0164829D01*
D02*
G37*
G36*
X-0026694D02*
X-0027068Y0164754D01*
X-0027719Y0164319D01*
X-0028154Y0163668D01*
X-0028229Y0163294D01*
X-0026694D01*
Y0164829D01*
D02*
G37*
G36*
X-0051271Y0163806D02*
X-0052806D01*
Y0162271D01*
X-0052432Y0162346D01*
X-0051781Y0162781D01*
X-0051346Y0163432D01*
X-0051271Y0163806D01*
D02*
G37*
G36*
X-0053594D02*
X-0055129D01*
X-0055054Y0163432D01*
X-0054619Y0162781D01*
X-0053968Y0162346D01*
X-0053594Y0162271D01*
Y0163806D01*
D02*
G37*
G36*
X-0077768Y0163472D02*
X-0079303D01*
Y0161937D01*
X-0078928Y0162012D01*
X-0078277Y0162447D01*
X-0077842Y0163098D01*
X-0077768Y0163472D01*
D02*
G37*
G36*
X-0080090D02*
X-0081625D01*
X-0081551Y0163098D01*
X-0081116Y0162447D01*
X-0080464Y0162012D01*
X-0080090Y0161937D01*
Y0163472D01*
D02*
G37*
G36*
X-0083512Y0163972D02*
X-0086661D01*
Y0161217D01*
X-0083512D01*
Y0163972D01*
D02*
G37*
G36*
X-0024371Y0162506D02*
X-0025906D01*
Y0160971D01*
X-0025532Y0161046D01*
X-0024881Y0161481D01*
X-0024446Y0162132D01*
X-0024371Y0162506D01*
D02*
G37*
G36*
X-0026694D02*
X-0028229D01*
X-0028154Y0162132D01*
X-0027719Y0161481D01*
X-0027068Y0161046D01*
X-0026694Y0160971D01*
Y0162506D01*
D02*
G37*
G36*
X-0092173Y0160823D02*
X-0095323D01*
Y0158067D01*
X-0092173D01*
Y0160823D01*
D02*
G37*
G36*
X-0096110D02*
X-0099260D01*
Y0158067D01*
X-0096110D01*
Y0160823D01*
D02*
G37*
G36*
X-0092173Y0157280D02*
X-0095323D01*
Y0154524D01*
X-0092173D01*
Y0157280D01*
D02*
G37*
G36*
X-0096110D02*
X-0099260D01*
Y0154524D01*
X-0096110D01*
Y0157280D01*
D02*
G37*
G36*
X-0197644Y0152629D02*
Y0151094D01*
X-0196109D01*
X-0196184Y0151468D01*
X-0196619Y0152119D01*
X-0197270Y0152554D01*
X-0197644Y0152629D01*
D02*
G37*
G36*
X-0198432D02*
X-0198806Y0152554D01*
X-0199457Y0152119D01*
X-0199892Y0151468D01*
X-0199967Y0151094D01*
X-0198432D01*
Y0152629D01*
D02*
G37*
G36*
X-0172893Y0157547D02*
X-0187263D01*
Y0150658D01*
X-0172893D01*
Y0157547D01*
D02*
G37*
G36*
X-0196109Y0150306D02*
X-0197644D01*
Y0148771D01*
X-0197270Y0148846D01*
X-0196619Y0149281D01*
X-0196184Y0149932D01*
X-0196109Y0150306D01*
D02*
G37*
G36*
X-0198432D02*
X-0199967D01*
X-0199892Y0149932D01*
X-0199457Y0149281D01*
X-0198806Y0148846D01*
X-0198432Y0148771D01*
Y0150306D01*
D02*
G37*
G36*
X-0095918Y0150129D02*
Y0148594D01*
X-0094383D01*
X-0094457Y0148968D01*
X-0094892Y0149619D01*
X-0095543Y0150054D01*
X-0095918Y0150129D01*
D02*
G37*
G36*
X-0096705D02*
X-0097079Y0150054D01*
X-0097731Y0149619D01*
X-0098166Y0148968D01*
X-0098240Y0148594D01*
X-0096705D01*
Y0150129D01*
D02*
G37*
G36*
X-0111980D02*
Y0148594D01*
X-0110444D01*
X-0110519Y0148968D01*
X-0110954Y0149619D01*
X-0111605Y0150054D01*
X-0111980Y0150129D01*
D02*
G37*
G36*
X-0112767D02*
X-0113141Y0150054D01*
X-0113793Y0149619D01*
X-0114227Y0148968D01*
X-0114302Y0148594D01*
X-0112767D01*
Y0150129D01*
D02*
G37*
G36*
X-0094383Y0147806D02*
X-0095918D01*
Y0146271D01*
X-0095543Y0146346D01*
X-0094892Y0146781D01*
X-0094457Y0147432D01*
X-0094383Y0147806D01*
D02*
G37*
G36*
X-0096705D02*
X-0098240D01*
X-0098166Y0147432D01*
X-0097731Y0146781D01*
X-0097079Y0146346D01*
X-0096705Y0146271D01*
Y0147806D01*
D02*
G37*
G36*
X-0110444D02*
X-0111980D01*
Y0146271D01*
X-0111605Y0146346D01*
X-0110954Y0146781D01*
X-0110519Y0147432D01*
X-0110444Y0147806D01*
D02*
G37*
G36*
X-0112767D02*
X-0114302D01*
X-0114227Y0147432D01*
X-0113793Y0146781D01*
X-0113141Y0146346D01*
X-0112767Y0146271D01*
Y0147806D01*
D02*
G37*
G36*
X-0172926Y0143546D02*
X-0173502Y0143431D01*
X-0173990Y0143105D01*
X-0174317Y0142617D01*
X-0174431Y0142040D01*
X-0174317Y0141464D01*
X-0173990Y0140976D01*
X-0173502Y0140649D01*
X-0172926Y0140535D01*
X-0172349Y0140649D01*
X-0171861Y0140976D01*
X-0171535Y0141464D01*
X-0171420Y0142040D01*
X-0171535Y0142617D01*
X-0171861Y0143105D01*
X-0172349Y0143431D01*
X-0172926Y0143546D01*
D02*
G37*
G36*
X-0025906Y0140529D02*
Y0138994D01*
X-0024371D01*
X-0024446Y0139368D01*
X-0024881Y0140019D01*
X-0025532Y0140454D01*
X-0025906Y0140529D01*
D02*
G37*
G36*
X-0026694D02*
X-0027068Y0140454D01*
X-0027719Y0140019D01*
X-0028154Y0139368D01*
X-0028229Y0138994D01*
X-0026694D01*
Y0140529D01*
D02*
G37*
G36*
X-0024371Y0138206D02*
X-0025906D01*
Y0136671D01*
X-0025532Y0136746D01*
X-0024881Y0137181D01*
X-0024446Y0137832D01*
X-0024371Y0138206D01*
D02*
G37*
G36*
X-0026694D02*
X-0028229D01*
X-0028154Y0137832D01*
X-0027719Y0137181D01*
X-0027068Y0136746D01*
X-0026694Y0136671D01*
Y0138206D01*
D02*
G37*
G36*
X-0160090Y0127629D02*
Y0126094D01*
X-0158555D01*
X-0158630Y0126468D01*
X-0159065Y0127119D01*
X-0159716Y0127554D01*
X-0160090Y0127629D01*
D02*
G37*
G36*
X-0160878D02*
X-0161252Y0127554D01*
X-0161903Y0127119D01*
X-0162338Y0126468D01*
X-0162413Y0126094D01*
X-0160878D01*
Y0127629D01*
D02*
G37*
G36*
X-0158555Y0125306D02*
X-0160090D01*
Y0123771D01*
X-0159716Y0123846D01*
X-0159065Y0124281D01*
X-0158630Y0124932D01*
X-0158555Y0125306D01*
D02*
G37*
G36*
X-0160878D02*
X-0162413D01*
X-0162338Y0124932D01*
X-0161903Y0124281D01*
X-0161252Y0123846D01*
X-0160878Y0123771D01*
Y0125306D01*
D02*
G37*
G36*
X-0018606Y0119529D02*
Y0117994D01*
X-0017071D01*
X-0017146Y0118368D01*
X-0017581Y0119019D01*
X-0018232Y0119454D01*
X-0018606Y0119529D01*
D02*
G37*
G36*
X-0019394D02*
X-0019768Y0119454D01*
X-0020419Y0119019D01*
X-0020854Y0118368D01*
X-0020929Y0117994D01*
X-0019394D01*
Y0119529D01*
D02*
G37*
G36*
X-0006213Y0120421D02*
X-0009606D01*
Y0117028D01*
X-0006213D01*
Y0120421D01*
D02*
G37*
G36*
X-0010394D02*
X-0013787D01*
Y0117028D01*
X-0010394D01*
Y0120421D01*
D02*
G37*
G36*
X-0017071Y0117206D02*
X-0018606D01*
Y0115671D01*
X-0018232Y0115746D01*
X-0017581Y0116181D01*
X-0017146Y0116832D01*
X-0017071Y0117206D01*
D02*
G37*
G36*
X-0019394D02*
X-0020929D01*
X-0020854Y0116832D01*
X-0020419Y0116181D01*
X-0019768Y0115746D01*
X-0019394Y0115671D01*
Y0117206D01*
D02*
G37*
G36*
X-0006213Y0116240D02*
X-0009606D01*
Y0112847D01*
X-0006213D01*
Y0116240D01*
D02*
G37*
G36*
X-0010394D02*
X-0013787D01*
Y0112847D01*
X-0010394D01*
Y0116240D01*
D02*
G37*
G36*
X-0096428Y0110363D02*
Y0108828D01*
X-0094893D01*
X-0094967Y0109202D01*
X-0095402Y0109853D01*
X-0096053Y0110288D01*
X-0096428Y0110363D01*
D02*
G37*
G36*
X-0097215D02*
X-0097589Y0110288D01*
X-0098241Y0109853D01*
X-0098676Y0109202D01*
X-0098750Y0108828D01*
X-0097215D01*
Y0110363D01*
D02*
G37*
G36*
X-0111464D02*
Y0108828D01*
X-0109929D01*
X-0110003Y0109202D01*
X-0110438Y0109853D01*
X-0111089Y0110288D01*
X-0111464Y0110363D01*
D02*
G37*
G36*
X-0112251D02*
X-0112626Y0110288D01*
X-0113277Y0109853D01*
X-0113712Y0109202D01*
X-0113786Y0108828D01*
X-0112251D01*
Y0110363D01*
D02*
G37*
G36*
X-0094893Y0108040D02*
X-0096428D01*
Y0106505D01*
X-0096053Y0106580D01*
X-0095402Y0107015D01*
X-0094967Y0107666D01*
X-0094893Y0108040D01*
D02*
G37*
G36*
X-0097215D02*
X-0098750D01*
X-0098676Y0107666D01*
X-0098241Y0107015D01*
X-0097589Y0106580D01*
X-0097215Y0106505D01*
Y0108040D01*
D02*
G37*
G36*
X-0109929D02*
X-0111464D01*
Y0106505D01*
X-0111089Y0106580D01*
X-0110438Y0107015D01*
X-0110003Y0107666D01*
X-0109929Y0108040D01*
D02*
G37*
G36*
X-0112251D02*
X-0113786D01*
X-0113712Y0107666D01*
X-0113277Y0107015D01*
X-0112626Y0106580D01*
X-0112251Y0106505D01*
Y0108040D01*
D02*
G37*
G36*
X-0143522Y0103129D02*
Y0101594D01*
X-0141987D01*
X-0142061Y0101968D01*
X-0142497Y0102619D01*
X-0143148Y0103054D01*
X-0143522Y0103129D01*
D02*
G37*
G36*
X-0144309D02*
X-0144684Y0103054D01*
X-0145335Y0102619D01*
X-0145770Y0101968D01*
X-0145844Y0101594D01*
X-0144309D01*
Y0103129D01*
D02*
G37*
G36*
X-0141987Y0100806D02*
X-0143522D01*
Y0099271D01*
X-0143148Y0099346D01*
X-0142497Y0099781D01*
X-0142061Y0100432D01*
X-0141987Y0100806D01*
D02*
G37*
G36*
X-0144309D02*
X-0145844D01*
X-0145770Y0100432D01*
X-0145335Y0099781D01*
X-0144684Y0099346D01*
X-0144309Y0099271D01*
Y0100806D01*
D02*
G37*
G36*
X-0006206Y0099429D02*
Y0097894D01*
X-0004671D01*
X-0004746Y0098268D01*
X-0005181Y0098919D01*
X-0005832Y0099354D01*
X-0006206Y0099429D01*
D02*
G37*
G36*
X-0006994D02*
X-0007368Y0099354D01*
X-0008019Y0098919D01*
X-0008454Y0098268D01*
X-0008529Y0097894D01*
X-0006994D01*
Y0099429D01*
D02*
G37*
G36*
X-0192506Y0098829D02*
Y0097294D01*
X-0190971D01*
X-0191046Y0097668D01*
X-0191481Y0098319D01*
X-0192132Y0098754D01*
X-0192506Y0098829D01*
D02*
G37*
G36*
X-0193294D02*
X-0193668Y0098754D01*
X-0194319Y0098319D01*
X-0194754Y0097668D01*
X-0194829Y0097294D01*
X-0193294D01*
Y0098829D01*
D02*
G37*
G36*
X-0004671Y0097106D02*
X-0006206D01*
Y0095571D01*
X-0005832Y0095646D01*
X-0005181Y0096081D01*
X-0004746Y0096732D01*
X-0004671Y0097106D01*
D02*
G37*
G36*
X-0006994D02*
X-0008529D01*
X-0008454Y0096732D01*
X-0008019Y0096081D01*
X-0007368Y0095646D01*
X-0006994Y0095571D01*
Y0097106D01*
D02*
G37*
G36*
X-0190971Y0096506D02*
X-0192506D01*
Y0094971D01*
X-0192132Y0095046D01*
X-0191481Y0095481D01*
X-0191046Y0096132D01*
X-0190971Y0096506D01*
D02*
G37*
G36*
X-0193294D02*
X-0194829D01*
X-0194754Y0096132D01*
X-0194319Y0095481D01*
X-0193668Y0095046D01*
X-0193294Y0094971D01*
Y0096506D01*
D02*
G37*
G36*
X-0100000Y0094329D02*
Y0092794D01*
X-0098465D01*
X-0098539Y0093168D01*
X-0098975Y0093819D01*
X-0099626Y0094254D01*
X-0100000Y0094329D01*
D02*
G37*
G36*
X-0100787D02*
X-0101162Y0094254D01*
X-0101813Y0093819D01*
X-0102248Y0093168D01*
X-0102322Y0092794D01*
X-0100787D01*
Y0094329D01*
D02*
G37*
G36*
X-0098465Y0092006D02*
X-0100000D01*
Y0090471D01*
X-0099626Y0090546D01*
X-0098975Y0090981D01*
X-0098539Y0091632D01*
X-0098465Y0092006D01*
D02*
G37*
G36*
X-0100787D02*
X-0102322D01*
X-0102248Y0091632D01*
X-0101813Y0090981D01*
X-0101162Y0090546D01*
X-0100787Y0090471D01*
Y0092006D01*
D02*
G37*
G36*
X-0043106Y0089229D02*
Y0087694D01*
X-0041571D01*
X-0041646Y0088068D01*
X-0042081Y0088719D01*
X-0042732Y0089154D01*
X-0043106Y0089229D01*
D02*
G37*
G36*
X-0043894D02*
X-0044268Y0089154D01*
X-0044919Y0088719D01*
X-0045354Y0088068D01*
X-0045429Y0087694D01*
X-0043894D01*
Y0089229D01*
D02*
G37*
G36*
X-0041571Y0086906D02*
X-0043106D01*
Y0085371D01*
X-0042732Y0085446D01*
X-0042081Y0085881D01*
X-0041646Y0086532D01*
X-0041571Y0086906D01*
D02*
G37*
G36*
X-0043894D02*
X-0045429D01*
X-0045354Y0086532D01*
X-0044919Y0085881D01*
X-0044268Y0085446D01*
X-0043894Y0085371D01*
Y0086906D01*
D02*
G37*
G36*
X-0076906Y0054029D02*
Y0052494D01*
X-0075371D01*
X-0075446Y0052868D01*
X-0075881Y0053519D01*
X-0076532Y0053954D01*
X-0076906Y0054029D01*
D02*
G37*
G36*
X-0077694D02*
X-0078068Y0053954D01*
X-0078719Y0053519D01*
X-0079154Y0052868D01*
X-0079229Y0052494D01*
X-0077694D01*
Y0054029D01*
D02*
G37*
G36*
X-0155366Y0053222D02*
Y0051687D01*
X-0153831D01*
X-0153905Y0052061D01*
X-0154340Y0052713D01*
X-0154991Y0053148D01*
X-0155366Y0053222D01*
D02*
G37*
G36*
X-0156153D02*
X-0156528Y0053148D01*
X-0157179Y0052713D01*
X-0157614Y0052061D01*
X-0157688Y0051687D01*
X-0156153D01*
Y0053222D01*
D02*
G37*
G36*
X-0075371Y0051706D02*
X-0076906D01*
Y0050171D01*
X-0076532Y0050246D01*
X-0075881Y0050681D01*
X-0075446Y0051332D01*
X-0075371Y0051706D01*
D02*
G37*
G36*
X-0077694D02*
X-0079229D01*
X-0079154Y0051332D01*
X-0078719Y0050681D01*
X-0078068Y0050246D01*
X-0077694Y0050171D01*
Y0051706D01*
D02*
G37*
G36*
X-0153831Y0050900D02*
X-0155366D01*
Y0049365D01*
X-0154991Y0049439D01*
X-0154340Y0049874D01*
X-0153905Y0050525D01*
X-0153831Y0050900D01*
D02*
G37*
G36*
X-0156153D02*
X-0157688D01*
X-0157614Y0050525D01*
X-0157179Y0049874D01*
X-0156528Y0049439D01*
X-0156153Y0049365D01*
Y0050900D01*
D02*
G37*
G36*
X-0026806Y0038629D02*
Y0037094D01*
X-0025271D01*
X-0025346Y0037468D01*
X-0025781Y0038119D01*
X-0026432Y0038554D01*
X-0026806Y0038629D01*
D02*
G37*
G36*
X-0027594D02*
X-0027968Y0038554D01*
X-0028619Y0038119D01*
X-0029054Y0037468D01*
X-0029129Y0037094D01*
X-0027594D01*
Y0038629D01*
D02*
G37*
G36*
X-0025271Y0036306D02*
X-0026806D01*
Y0034771D01*
X-0026432Y0034846D01*
X-0025781Y0035281D01*
X-0025346Y0035932D01*
X-0025271Y0036306D01*
D02*
G37*
G36*
X-0027594D02*
X-0029129D01*
X-0029054Y0035932D01*
X-0028619Y0035281D01*
X-0027968Y0034846D01*
X-0027594Y0034771D01*
Y0036306D01*
D02*
G37*
G36*
X-0061106Y0013029D02*
Y0011494D01*
X-0059571D01*
X-0059646Y0011868D01*
X-0060081Y0012519D01*
X-0060732Y0012954D01*
X-0061106Y0013029D01*
D02*
G37*
G36*
X-0061894D02*
X-0062268Y0012954D01*
X-0062919Y0012519D01*
X-0063354Y0011868D01*
X-0063429Y0011494D01*
X-0061894D01*
Y0013029D01*
D02*
G37*
G36*
X-0004306Y0010829D02*
Y0009294D01*
X-0002771D01*
X-0002846Y0009668D01*
X-0003281Y0010319D01*
X-0003932Y0010754D01*
X-0004306Y0010829D01*
D02*
G37*
G36*
X-0005094D02*
X-0005468Y0010754D01*
X-0006119Y0010319D01*
X-0006554Y0009668D01*
X-0006629Y0009294D01*
X-0005094D01*
Y0010829D01*
D02*
G37*
G36*
X-0059571Y0010706D02*
X-0061106D01*
Y0009171D01*
X-0060732Y0009246D01*
X-0060081Y0009681D01*
X-0059646Y0010332D01*
X-0059571Y0010706D01*
D02*
G37*
G36*
X-0061894D02*
X-0063429D01*
X-0063354Y0010332D01*
X-0062919Y0009681D01*
X-0062268Y0009246D01*
X-0061894Y0009171D01*
Y0010706D01*
D02*
G37*
G36*
X-0002771Y0008506D02*
X-0004306D01*
Y0006971D01*
X-0003932Y0007046D01*
X-0003281Y0007481D01*
X-0002846Y0008132D01*
X-0002771Y0008506D01*
D02*
G37*
G36*
X-0005094D02*
X-0006629D01*
X-0006554Y0008132D01*
X-0006119Y0007481D01*
X-0005468Y0007046D01*
X-0005094Y0006971D01*
Y0008506D01*
D02*
G37*
G36*
X-0196827Y0007229D02*
Y0005694D01*
X-0195292D01*
X-0195367Y0006068D01*
X-0195802Y0006719D01*
X-0196453Y0007154D01*
X-0196827Y0007229D01*
D02*
G37*
G36*
X-0197615D02*
X-0197989Y0007154D01*
X-0198640Y0006719D01*
X-0199075Y0006068D01*
X-0199150Y0005694D01*
X-0197615D01*
Y0007229D01*
D02*
G37*
G36*
X-0128006Y0006629D02*
Y0005094D01*
X-0126471D01*
X-0126546Y0005468D01*
X-0126981Y0006119D01*
X-0127632Y0006554D01*
X-0128006Y0006629D01*
D02*
G37*
G36*
X-0128794D02*
X-0129168Y0006554D01*
X-0129819Y0006119D01*
X-0130254Y0005468D01*
X-0130329Y0005094D01*
X-0128794D01*
Y0006629D01*
D02*
G37*
G36*
X-0195292Y0004906D02*
X-0196827D01*
Y0003371D01*
X-0196453Y0003446D01*
X-0195802Y0003881D01*
X-0195367Y0004532D01*
X-0195292Y0004906D01*
D02*
G37*
G36*
X-0197615D02*
X-0199150D01*
X-0199075Y0004532D01*
X-0198640Y0003881D01*
X-0197989Y0003446D01*
X-0197615Y0003371D01*
Y0004906D01*
D02*
G37*
G36*
X-0126471Y0004306D02*
X-0128006D01*
Y0002771D01*
X-0127632Y0002846D01*
X-0126981Y0003281D01*
X-0126546Y0003932D01*
X-0126471Y0004306D01*
D02*
G37*
G36*
X-0128794D02*
X-0130329D01*
X-0130254Y0003932D01*
X-0129819Y0003281D01*
X-0129168Y0002846D01*
X-0128794Y0002771D01*
Y0004306D01*
D02*
G37*
G36*
X-0059371Y0216702D02*
X-0060906D01*
Y0215166D01*
X-0060532Y0215241D01*
X-0059881Y0215676D01*
X-0059446Y0216327D01*
X-0059371Y0216702D01*
D02*
G37*
G36*
X-0041306Y0214798D02*
Y0213263D01*
X-0039771D01*
X-0039846Y0213637D01*
X-0040281Y0214288D01*
X-0040932Y0214723D01*
X-0041306Y0214798D01*
D02*
G37*
G36*
X-0042094D02*
X-0042468Y0214723D01*
X-0043119Y0214288D01*
X-0043554Y0213637D01*
X-0043629Y0213263D01*
X-0042094D01*
Y0214798D01*
D02*
G37*
G36*
X-0039771Y0212475D02*
X-0041306D01*
Y0210940D01*
X-0040932Y0211015D01*
X-0040281Y0211450D01*
X-0039846Y0212101D01*
X-0039771Y0212475D01*
D02*
G37*
G36*
X-0042094D02*
X-0043629D01*
X-0043554Y0212101D01*
X-0043119Y0211450D01*
X-0042468Y0211015D01*
X-0042094Y0210940D01*
Y0212475D01*
D02*
G37*
G36*
X-0029980Y0212029D02*
Y0210494D01*
X-0028445D01*
X-0028520Y0210868D01*
X-0028955Y0211519D01*
X-0029606Y0211954D01*
X-0029980Y0212029D01*
D02*
G37*
G36*
X-0030768D02*
X-0031142Y0211954D01*
X-0031793Y0211519D01*
X-0032228Y0210868D01*
X-0032303Y0210494D01*
X-0030768D01*
Y0212029D01*
D02*
G37*
G36*
X-0119606Y0225904D02*
Y0224369D01*
X-0118071D01*
X-0118146Y0224743D01*
X-0118581Y0225394D01*
X-0119232Y0225829D01*
X-0119606Y0225904D01*
D02*
G37*
G36*
X-0120394D02*
X-0120768Y0225829D01*
X-0121419Y0225394D01*
X-0121854Y0224743D01*
X-0121929Y0224369D01*
X-0120394D01*
Y0225904D01*
D02*
G37*
G36*
X-0118071Y0223581D02*
X-0119606D01*
Y0222046D01*
X-0119232Y0222121D01*
X-0118581Y0222556D01*
X-0118146Y0223207D01*
X-0118071Y0223581D01*
D02*
G37*
G36*
X-0120394D02*
X-0121929D01*
X-0121854Y0223207D01*
X-0121419Y0222556D01*
X-0120768Y0222121D01*
X-0120394Y0222046D01*
Y0223581D01*
D02*
G37*
G36*
X-0133740Y0212229D02*
Y0210694D01*
X-0132205D01*
X-0132280Y0211068D01*
X-0132715Y0211719D01*
X-0133366Y0212154D01*
X-0133740Y0212229D01*
D02*
G37*
G36*
X-0134528D02*
X-0134902Y0212154D01*
X-0135553Y0211719D01*
X-0135988Y0211068D01*
X-0136063Y0210694D01*
X-0134528D01*
Y0212229D01*
D02*
G37*
G36*
X-0119006Y0210173D02*
Y0208638D01*
X-0117471D01*
X-0117546Y0209012D01*
X-0117981Y0209664D01*
X-0118632Y0210099D01*
X-0119006Y0210173D01*
D02*
G37*
G36*
X-0119794D02*
X-0120168Y0210099D01*
X-0120819Y0209664D01*
X-0121254Y0209012D01*
X-0121329Y0208638D01*
X-0119794D01*
Y0210173D01*
D02*
G37*
G36*
X-0132205Y0209906D02*
X-0133740D01*
Y0208371D01*
X-0133366Y0208446D01*
X-0132715Y0208881D01*
X-0132280Y0209532D01*
X-0132205Y0209906D01*
D02*
G37*
G36*
X-0134528D02*
X-0136063D01*
X-0135988Y0209532D01*
X-0135553Y0208881D01*
X-0134902Y0208446D01*
X-0134528Y0208371D01*
Y0209906D01*
D02*
G37*
G36*
X-0117471Y0207851D02*
X-0119006D01*
Y0206315D01*
X-0118632Y0206390D01*
X-0117981Y0206825D01*
X-0117546Y0207476D01*
X-0117471Y0207851D01*
D02*
G37*
G36*
X-0119794D02*
X-0121329D01*
X-0121254Y0207476D01*
X-0120819Y0206825D01*
X-0120168Y0206390D01*
X-0119794Y0206315D01*
Y0207851D01*
D02*
G37*
G36*
X-0133406Y0201536D02*
Y0200001D01*
X-0131871D01*
X-0131946Y0200375D01*
X-0132381Y0201027D01*
X-0133032Y0201462D01*
X-0133406Y0201536D01*
D02*
G37*
G36*
X-0134194D02*
X-0134568Y0201462D01*
X-0135219Y0201027D01*
X-0135654Y0200375D01*
X-0135729Y0200001D01*
X-0134194D01*
Y0201536D01*
D02*
G37*
G36*
X-0121006Y0201229D02*
Y0199694D01*
X-0119471D01*
X-0119546Y0200068D01*
X-0119981Y0200719D01*
X-0120632Y0201154D01*
X-0121006Y0201229D01*
D02*
G37*
G36*
X-0121794D02*
X-0122168Y0201154D01*
X-0122819Y0200719D01*
X-0123254Y0200068D01*
X-0123329Y0199694D01*
X-0121794D01*
Y0201229D01*
D02*
G37*
G36*
X-0131871Y0199214D02*
X-0133406D01*
Y0197678D01*
X-0133032Y0197753D01*
X-0132381Y0198188D01*
X-0131946Y0198839D01*
X-0131871Y0199214D01*
D02*
G37*
G36*
X-0134194D02*
X-0135729D01*
X-0135654Y0198839D01*
X-0135219Y0198188D01*
X-0134568Y0197753D01*
X-0134194Y0197678D01*
Y0199214D01*
D02*
G37*
G36*
X-0119471Y0198906D02*
X-0121006D01*
Y0197371D01*
X-0120632Y0197446D01*
X-0119981Y0197881D01*
X-0119546Y0198532D01*
X-0119471Y0198906D01*
D02*
G37*
G36*
X-0121794D02*
X-0123329D01*
X-0123254Y0198532D01*
X-0122819Y0197881D01*
X-0122168Y0197446D01*
X-0121794Y0197371D01*
Y0198906D01*
D02*
G37*
G36*
X-0122559Y0195217D02*
X-0124528D01*
Y0194791D01*
X-0125028Y0194524D01*
X-0125216Y0194650D01*
X-0125591Y0194724D01*
Y0192795D01*
Y0190867D01*
X-0125216Y0190941D01*
X-0125028Y0191067D01*
X-0124528Y0190800D01*
Y0190098D01*
X-0122559D01*
Y0192657D01*
Y0195217D01*
D02*
G37*
G36*
X-0126378Y0194724D02*
X-0126752Y0194650D01*
X-0127403Y0194214D01*
X-0127839Y0193563D01*
X-0127913Y0193189D01*
X-0126378D01*
Y0194724D01*
D02*
G37*
G36*
X-0119803Y0195217D02*
X-0121772D01*
Y0193051D01*
X-0119803D01*
Y0195217D01*
D02*
G37*
G36*
X-0135174Y0193596D02*
Y0192061D01*
X-0133639D01*
X-0133713Y0192435D01*
X-0134148Y0193087D01*
X-0134800Y0193522D01*
X-0135174Y0193596D01*
D02*
G37*
G36*
X-0135961D02*
X-0136336Y0193522D01*
X-0136987Y0193087D01*
X-0137422Y0192435D01*
X-0137496Y0192061D01*
X-0135961D01*
Y0193596D01*
D02*
G37*
G36*
X-0126378Y0192402D02*
X-0127913D01*
X-0127839Y0192027D01*
X-0127403Y0191376D01*
X-0126752Y0190941D01*
X-0126378Y0190867D01*
Y0192402D01*
D02*
G37*
G36*
X-0119803Y0192264D02*
X-0121772D01*
Y0190098D01*
X-0119803D01*
Y0192264D01*
D02*
G37*
G36*
X-0133639Y0191274D02*
X-0135174D01*
Y0189739D01*
X-0134800Y0189813D01*
X-0134148Y0190248D01*
X-0133713Y0190899D01*
X-0133639Y0191274D01*
D02*
G37*
G36*
X-0135961D02*
X-0137496D01*
X-0137422Y0190899D01*
X-0136987Y0190248D01*
X-0136336Y0189813D01*
X-0135961Y0189739D01*
Y0191274D01*
D02*
G37*
G36*
X-0128346Y0188998D02*
X-0128937D01*
X-0129359Y0188914D01*
X-0129718Y0188674D01*
X-0129957Y0188316D01*
X-0130041Y0187894D01*
Y0187402D01*
X-0128346D01*
Y0188998D01*
D02*
G37*
G36*
X-0135853Y0186181D02*
Y0184646D01*
X-0134318D01*
X-0134392Y0185020D01*
X-0134827Y0185671D01*
X-0135478Y0186106D01*
X-0135853Y0186181D01*
D02*
G37*
G36*
X-0134318Y0183858D02*
X-0135853D01*
Y0182323D01*
X-0135478Y0182398D01*
X-0134827Y0182833D01*
X-0134392Y0183484D01*
X-0134318Y0183858D01*
D02*
G37*
G36*
X-0136640Y0186181D02*
X-0137015Y0186106D01*
X-0137666Y0185671D01*
X-0138101Y0185020D01*
X-0138170Y0184673D01*
X-0139935D01*
Y0182508D01*
X-0137852D01*
X-0137467Y0182700D01*
X-0137015Y0182398D01*
X-0136640Y0182323D01*
Y0184252D01*
Y0186181D01*
D02*
G37*
G36*
X-0086236Y0179374D02*
X-0087811Y0177799D01*
X-0086236D01*
Y0179374D01*
D02*
G37*
G36*
X-0150079Y0192811D02*
X-0150571D01*
X-0150993Y0192727D01*
X-0151351Y0192487D01*
X-0151591Y0192129D01*
X-0151675Y0191707D01*
Y0191116D01*
X-0150079D01*
Y0192811D01*
D02*
G37*
G36*
X-0077406Y0211229D02*
Y0209694D01*
X-0075871D01*
X-0075946Y0210068D01*
X-0076381Y0210719D01*
X-0077032Y0211154D01*
X-0077406Y0211229D01*
D02*
G37*
G36*
X-0078194D02*
X-0078568Y0211154D01*
X-0079219Y0210719D01*
X-0079654Y0210068D01*
X-0079729Y0209694D01*
X-0078194D01*
Y0211229D01*
D02*
G37*
G36*
X-0075871Y0208906D02*
X-0077406D01*
Y0207371D01*
X-0077032Y0207446D01*
X-0076381Y0207881D01*
X-0075946Y0208532D01*
X-0075871Y0208906D01*
D02*
G37*
G36*
X-0078194D02*
X-0079729D01*
X-0079654Y0208532D01*
X-0079219Y0207881D01*
X-0078568Y0207446D01*
X-0078194Y0207371D01*
Y0208906D01*
D02*
G37*
G36*
X-0037567Y0202629D02*
Y0201094D01*
X-0036032D01*
X-0036106Y0201468D01*
X-0036541Y0202119D01*
X-0037193Y0202554D01*
X-0037567Y0202629D01*
D02*
G37*
G36*
X-0038354D02*
X-0038729Y0202554D01*
X-0039380Y0202119D01*
X-0039815Y0201468D01*
X-0039889Y0201094D01*
X-0038354D01*
Y0202629D01*
D02*
G37*
G36*
X-0020866Y0200494D02*
X-0025000D01*
Y0198996D01*
X-0025500Y0198791D01*
X-0026004Y0199128D01*
X-0026378Y0199202D01*
Y0197273D01*
Y0195345D01*
X-0026004Y0195419D01*
X-0025500Y0195756D01*
X-0025000Y0195551D01*
Y0193801D01*
X-0020866D01*
Y0197147D01*
Y0200494D01*
D02*
G37*
G36*
X-0036032Y0200306D02*
X-0037567D01*
Y0198771D01*
X-0037193Y0198846D01*
X-0036541Y0199281D01*
X-0036106Y0199932D01*
X-0036032Y0200306D01*
D02*
G37*
G36*
X-0038354D02*
X-0039889D01*
X-0039815Y0199932D01*
X-0039380Y0199281D01*
X-0038729Y0198846D01*
X-0038354Y0198771D01*
Y0200306D01*
D02*
G37*
G36*
X-0027165Y0199202D02*
X-0027540Y0199128D01*
X-0028191Y0198693D01*
X-0028626Y0198041D01*
X-0028700Y0197667D01*
X-0027165D01*
Y0199202D01*
D02*
G37*
G36*
Y0196880D02*
X-0028700D01*
X-0028626Y0196505D01*
X-0028191Y0195854D01*
X-0027540Y0195419D01*
X-0027165Y0195345D01*
Y0196880D01*
D02*
G37*
G36*
X-0047539Y0200199D02*
X-0056004D01*
Y0194096D01*
X-0047539D01*
Y0200199D01*
D02*
G37*
G36*
X-0061506Y0193129D02*
Y0191594D01*
X-0059971D01*
X-0060046Y0191968D01*
X-0060481Y0192619D01*
X-0061132Y0193054D01*
X-0061506Y0193129D01*
D02*
G37*
G36*
X-0062294D02*
X-0062668Y0193054D01*
X-0063319Y0192619D01*
X-0063754Y0191968D01*
X-0063829Y0191594D01*
X-0062294D01*
Y0193129D01*
D02*
G37*
G36*
X-0059971Y0190806D02*
X-0061506D01*
Y0189271D01*
X-0061132Y0189346D01*
X-0060481Y0189781D01*
X-0060046Y0190432D01*
X-0059971Y0190806D01*
D02*
G37*
G36*
X-0053306Y0189629D02*
Y0188094D01*
X-0051771D01*
X-0051846Y0188468D01*
X-0052281Y0189119D01*
X-0052932Y0189554D01*
X-0053306Y0189629D01*
D02*
G37*
G36*
X-0054094D02*
X-0054468Y0189554D01*
X-0055119Y0189119D01*
X-0055554Y0188468D01*
X-0055629Y0188094D01*
X-0054094D01*
Y0189629D01*
D02*
G37*
G36*
X-0019875Y0189329D02*
Y0187794D01*
X-0018340D01*
X-0018415Y0188168D01*
X-0018850Y0188819D01*
X-0019501Y0189254D01*
X-0019875Y0189329D01*
D02*
G37*
G36*
X-0020662D02*
X-0021037Y0189254D01*
X-0021688Y0188819D01*
X-0022123Y0188168D01*
X-0022198Y0187794D01*
X-0020662D01*
Y0189329D01*
D02*
G37*
G36*
X-0051771Y0187306D02*
X-0053306D01*
Y0185771D01*
X-0052932Y0185846D01*
X-0052281Y0186281D01*
X-0051846Y0186932D01*
X-0051771Y0187306D01*
D02*
G37*
G36*
X-0054094D02*
X-0055629D01*
X-0055554Y0186932D01*
X-0055119Y0186281D01*
X-0054468Y0185846D01*
X-0054094Y0185771D01*
Y0187306D01*
D02*
G37*
G36*
X-0018340Y0187006D02*
X-0019875D01*
Y0185471D01*
X-0019501Y0185546D01*
X-0018850Y0185981D01*
X-0018415Y0186632D01*
X-0018340Y0187006D01*
D02*
G37*
G36*
X-0020662D02*
X-0022198D01*
X-0022123Y0186632D01*
X-0021688Y0185981D01*
X-0021037Y0185546D01*
X-0020662Y0185471D01*
Y0187006D01*
D02*
G37*
G36*
X-0004044Y0189000D02*
Y0187465D01*
X-0002510D01*
X-0002584Y0187839D01*
X-0003019Y0188490D01*
X-0003670Y0188925D01*
X-0004044Y0189000D01*
D02*
G37*
G36*
X-0004832D02*
X-0005206Y0188925D01*
X-0005857Y0188490D01*
X-0006293Y0187839D01*
X-0006367Y0187465D01*
X-0004832D01*
Y0189000D01*
D02*
G37*
G36*
X-0002510Y0186677D02*
X-0004044D01*
Y0185142D01*
X-0003670Y0185217D01*
X-0003019Y0185652D01*
X-0002584Y0186303D01*
X-0002510Y0186677D01*
D02*
G37*
G36*
X-0004832D02*
X-0006367D01*
X-0006293Y0186303D01*
X-0005857Y0185652D01*
X-0005206Y0185217D01*
X-0004832Y0185142D01*
Y0186677D01*
D02*
G37*
G36*
X-0069965Y0186468D02*
Y0184933D01*
X-0068429D01*
X-0068504Y0185307D01*
X-0068939Y0185958D01*
X-0069590Y0186393D01*
X-0069965Y0186468D01*
D02*
G37*
G36*
X-0070752D02*
X-0071126Y0186393D01*
X-0071777Y0185958D01*
X-0072213Y0185307D01*
X-0072287Y0184933D01*
X-0070752D01*
Y0186468D01*
D02*
G37*
G36*
X-0068429Y0184145D02*
X-0069965D01*
Y0182610D01*
X-0069590Y0182685D01*
X-0068939Y0183120D01*
X-0068504Y0183771D01*
X-0068429Y0184145D01*
D02*
G37*
G36*
X-0070752D02*
X-0072287D01*
X-0072213Y0183771D01*
X-0071777Y0183120D01*
X-0071126Y0182685D01*
X-0070752Y0182610D01*
Y0184145D01*
D02*
G37*
G36*
X-0054106Y0173829D02*
Y0172294D01*
X-0052571D01*
X-0052646Y0172668D01*
X-0053081Y0173319D01*
X-0053732Y0173754D01*
X-0054106Y0173829D01*
D02*
G37*
G36*
X-0054894D02*
X-0055268Y0173754D01*
X-0055919Y0173319D01*
X-0056354Y0172668D01*
X-0056429Y0172294D01*
X-0054894D01*
Y0173829D01*
D02*
G37*
G36*
X-0077906Y0173729D02*
Y0172194D01*
X-0076371D01*
X-0076446Y0172568D01*
X-0076881Y0173219D01*
X-0077532Y0173654D01*
X-0077906Y0173729D01*
D02*
G37*
G36*
X-0078694D02*
X-0079068Y0173654D01*
X-0079719Y0173219D01*
X-0080154Y0172568D01*
X-0080229Y0172194D01*
X-0078694D01*
Y0173729D01*
D02*
G37*
G36*
X-0026906Y0173483D02*
Y0171948D01*
X-0025371D01*
X-0025446Y0172322D01*
X-0025881Y0172973D01*
X-0026532Y0173408D01*
X-0026906Y0173483D01*
D02*
G37*
G36*
X-0027694D02*
X-0028068Y0173408D01*
X-0028719Y0172973D01*
X-0029154Y0172322D01*
X-0029229Y0171948D01*
X-0027694D01*
Y0173483D01*
D02*
G37*
G36*
X-0052571Y0171506D02*
X-0054106D01*
Y0169971D01*
X-0053732Y0170046D01*
X-0053081Y0170481D01*
X-0052646Y0171132D01*
X-0052571Y0171506D01*
D02*
G37*
G36*
X-0054894D02*
X-0056429D01*
X-0056354Y0171132D01*
X-0055919Y0170481D01*
X-0055268Y0170046D01*
X-0054894Y0169971D01*
Y0171506D01*
D02*
G37*
G36*
X-0076371Y0171406D02*
X-0077906D01*
Y0169871D01*
X-0077532Y0169946D01*
X-0076881Y0170381D01*
X-0076446Y0171032D01*
X-0076371Y0171406D01*
D02*
G37*
G36*
X-0078694D02*
X-0080229D01*
X-0080154Y0171032D01*
X-0079719Y0170381D01*
X-0079068Y0169946D01*
X-0078694Y0169871D01*
Y0171406D01*
D02*
G37*
G36*
X-0025371Y0171160D02*
X-0026906D01*
Y0169625D01*
X-0026532Y0169700D01*
X-0025881Y0170135D01*
X-0025446Y0170786D01*
X-0025371Y0171160D01*
D02*
G37*
G36*
X-0027694D02*
X-0029229D01*
X-0029154Y0170786D01*
X-0028719Y0170135D01*
X-0028068Y0169700D01*
X-0027694Y0169625D01*
Y0171160D01*
D02*
G37*
G36*
X-0149763Y0173984D02*
X-0157047D01*
Y0171622D01*
X-0149763D01*
Y0173984D01*
D02*
G37*
G36*
Y0170835D02*
X-0157047D01*
Y0168473D01*
X-0149763D01*
Y0170835D01*
D02*
G37*
%LPD*%
D10*
X-0111780Y0222822D02*
X-0110650Y0221692D01*
Y0216419D02*
Y0221692D01*
X-0133336Y0164469D02*
X-0133268Y0164400D01*
X-0017028Y0180807D02*
X-0015748Y0179527D01*
X-0083123Y0209150D02*
X-0074114Y0200141D01*
X-0090647Y0209150D02*
X-0083123D01*
X-0059082Y0181988D02*
X-0021585D01*
X-0058825Y0179921D02*
X-0022441D01*
X-0078740Y0188555D02*
Y0188654D01*
Y0188457D02*
Y0188555D01*
X-0058469Y0177756D02*
X-0020104D01*
X-0072342Y0191629D02*
X-0058469Y0177756D01*
X-0091339Y0208458D02*
X-0090647Y0209150D01*
X-0091339Y0205708D02*
Y0208458D01*
Y0205708D02*
X-0090173Y0204542D01*
Y0202012D02*
Y0204542D01*
X-0078740Y0188654D02*
X-0076609Y0190785D01*
X-0081512Y0185685D02*
X-0078740Y0188457D01*
X-0075265Y0193011D02*
X-0073553D01*
X-0076609Y0191668D02*
X-0075265Y0193011D01*
X-0076609Y0190785D02*
Y0191668D01*
X-0072342Y0191629D02*
Y0191801D01*
X-0073553Y0193011D02*
X-0072342Y0191801D01*
X-0071063Y0192159D02*
X-0058825Y0179921D01*
X-0071063Y0192159D02*
Y0192331D01*
X-0073023Y0194291D02*
X-0071063Y0192331D01*
X-0069783Y0192689D02*
X-0059082Y0181988D01*
X-0069783Y0192689D02*
Y0192861D01*
X-0072493Y0195571D02*
X-0069783Y0192861D01*
X-0071963Y0196850D02*
X-0068504Y0193391D01*
Y0193219D02*
Y0193391D01*
Y0193219D02*
X-0058990Y0183705D01*
X-0015748Y0202232D02*
X-0015157Y0201642D01*
Y0182484D02*
Y0201642D01*
Y0182484D02*
X-0013681Y0181007D01*
X-0146646Y0162205D02*
Y0162377D01*
Y0162032D02*
Y0162205D01*
X-0147809Y0182114D02*
Y0182311D01*
X-0146646Y0162377D02*
X-0145865Y0163157D01*
X-0144780D01*
X-0147244Y0162205D02*
X-0146646D01*
X-0144780Y0163157D02*
X-0143992Y0163945D01*
X-0164765Y0202362D02*
Y0202655D01*
X-0165750Y0203639D02*
X-0164765Y0202655D01*
X-0074114Y0198829D02*
Y0200141D01*
X-0076840Y0195571D02*
X-0072493D01*
X-0077370Y0194291D02*
X-0073023D01*
X-0072135Y0196850D02*
X-0071963D01*
X-0074114Y0198829D02*
X-0072135Y0196850D01*
X-0058990Y0183705D02*
X-0020053D01*
X-0017156Y0180807D01*
X-0017028D01*
X-0021585Y0181988D02*
X-0019912Y0180315D01*
X-0013681Y0179562D02*
Y0181007D01*
X-0016535Y0178740D02*
X-0015748Y0179527D01*
X-0010000Y0156634D02*
Y0157411D01*
X-0079528Y0167717D02*
X-0020306D01*
X-0016142Y0152776D02*
Y0160630D01*
X-0020306Y0167717D02*
X-0010000Y0157411D01*
X-0020965Y0137598D02*
Y0165059D01*
X-0021260Y0165354D02*
X-0020965Y0165059D01*
X-0084342Y0172531D02*
X-0079528Y0167717D01*
X-0020453Y0214803D02*
X-0016142Y0210492D01*
Y0209449D02*
Y0210492D01*
X-0019912Y0180315D02*
X-0019587D01*
X-0083480Y0195713D02*
X-0081620D01*
X-0078847Y0195768D02*
X-0077370Y0194291D01*
X-0081565Y0200098D02*
X-0079852D01*
X-0078543Y0197273D02*
Y0198789D01*
X-0018983Y0176634D02*
X-0010000D01*
X-0020104Y0177756D02*
X-0018983Y0176634D01*
X-0078543Y0197273D02*
X-0076840Y0195571D01*
X-0083677Y0195516D02*
X-0083480Y0195713D01*
X-0083480Y0199650D02*
X-0082013D01*
X-0020965Y0137598D02*
X-0010000Y0126634D01*
X-0021654Y0174015D02*
X-0020866D01*
X-0013484Y0166634D01*
X-0010000D01*
X-0016142Y0152776D02*
X-0010000Y0146634D01*
X-0105204Y0165748D02*
X-0104724D01*
X-0091704Y0172468D02*
X-0084405D01*
X-0084342Y0172531D01*
X-0102279Y0174059D02*
Y0174945D01*
X-0106638Y0169701D02*
X-0102279Y0174059D01*
X-0107594Y0169532D02*
X-0107452Y0169674D01*
X-0113146Y0195516D02*
X-0110449D01*
X-0115866Y0192795D02*
X-0113146Y0195516D01*
X-0143992Y0163945D02*
Y0164043D01*
Y0167980D02*
Y0174163D01*
X-0102279Y0174945D02*
X-0101984Y0175240D01*
X-0111965Y0191579D02*
X-0110449D01*
X-0081565Y0195768D02*
X-0078847D01*
X-0082013Y0199650D02*
X-0081565Y0200098D01*
X-0083677Y0199453D02*
X-0083480Y0199650D01*
X-0079852Y0200098D02*
X-0078543Y0198789D01*
X-0081620Y0195713D02*
X-0081565Y0195768D01*
X-0155142Y0186575D02*
Y0186575D01*
X-0148990Y0183492D02*
X-0147809Y0182311D01*
X-0152059Y0183492D02*
X-0148990D01*
X-0155142Y0186575D02*
X-0152059Y0183492D01*
X-0166042Y0203639D02*
X-0165750D01*
X-0115866Y0192657D02*
Y0192795D01*
X-0083665Y0185685D02*
X-0081512D01*
X-0083677Y0185673D02*
X-0083665Y0185685D01*
X-0000000Y0236221D02*
G03*
X-0007874Y0244094I-0007874J0000000D01*
G01*
X-0007874Y0000000D02*
G03*
X0000000Y0007874I0000000J0007874D01*
G01*
X-0195276Y0244094D02*
G03*
X-0203150Y0236221I0000000J-0007874D01*
G01*
Y0007874D02*
G03*
X-0195276Y0000000I0007874J0000000D01*
G01*
Y0244094D02*
X-0007874D01*
X-0195276Y0000000D02*
X-0007874D01*
X0000000Y0007874D02*
Y0236221D01*
X-0203150Y0007874D02*
Y0236221D01*
X-0000000D02*
X0000000D01*
X-0009843Y0244094D02*
X-0007874Y0244094D01*
X-0177165D02*
X-0177165Y0244094D01*
D13*
X-0020472Y0214864D02*
D03*
Y0197147D02*
D03*
X-0051771Y0214864D02*
D03*
Y0197147D02*
D03*
D26*
X-0057083Y0237766D02*
X-0056718Y0237402D01*
X-0026585Y0197087D02*
X-0020453D01*
X-0110034Y0213098D02*
X-0106713Y0216419D01*
X-0098921Y0167811D02*
X-0098890D01*
X-0099555Y0166535D02*
Y0167177D01*
Y0161512D02*
Y0166535D01*
X-0110100Y0213098D02*
X-0110034D01*
X-0161262Y0196457D02*
Y0204797D01*
X-0158661Y0187091D02*
X-0155029Y0190723D01*
X-0111129Y0241535D02*
X-0074900D01*
X-0053404Y0222638D02*
X-0043374D01*
X-0055693Y0224926D02*
X-0053404Y0222638D01*
X-0119208Y0233456D02*
X-0111129Y0241535D01*
X-0119208Y0233105D02*
Y0233456D01*
X-0062176Y0237982D02*
Y0238083D01*
X-0064957Y0238553D02*
X-0064486Y0238083D01*
X-0062176D01*
X-0056856Y0237992D02*
X-0049821D01*
X-0135425Y0175000D02*
X-0107890D01*
X-0010000Y0216634D02*
Y0217848D01*
X-0010364Y0206270D02*
X-0010000Y0205906D01*
X-0065209Y0219174D02*
Y0224600D01*
X-0155841Y0236897D02*
X-0151155Y0241582D01*
X-0155841Y0213071D02*
Y0236897D01*
X-0090945Y0235600D02*
X-0081400D01*
X-0087795Y0229740D02*
Y0232118D01*
X-0092869Y0232737D02*
X-0087177D01*
X-0071707Y0240724D02*
X-0069739Y0238756D01*
X-0074900Y0240724D02*
X-0071707D01*
X-0010728Y0206634D02*
X-0010364Y0206270D01*
X-0086624Y0220400D02*
X-0085945Y0221079D01*
X-0084040Y0219174D02*
X-0065743D01*
X-0085338Y0220473D02*
X-0084040Y0219174D01*
X-0065535Y0224926D02*
X-0065209Y0224600D01*
Y0216445D02*
Y0219174D01*
Y0216445D02*
X-0055397Y0206634D01*
X-0087500Y0216800D02*
X-0067930D01*
X-0056090Y0204961D01*
X-0055397Y0206634D02*
X-0010728D01*
X-0056090Y0204961D02*
X-0015275D01*
X-0076033Y0199135D02*
X-0075590Y0198692D01*
X-0147421Y0205045D02*
Y0206136D01*
X-0149322Y0186786D02*
X-0147741Y0188367D01*
X-0149685Y0186786D02*
X-0149322D01*
X-0147421Y0188367D02*
X-0144095Y0185040D01*
X-0147421Y0188367D02*
Y0205045D01*
X-0119645Y0230302D02*
X-0111780D01*
X-0143766Y0206181D02*
X-0119645Y0230302D01*
X-0147376Y0206181D02*
X-0143766D01*
X-0147421Y0206136D02*
X-0147376Y0206181D01*
X-0096457Y0216417D02*
Y0221507D01*
Y0211264D02*
Y0216417D01*
X-0093554Y0224409D02*
X-0092662D01*
X-0096457Y0221507D02*
X-0093554Y0224409D01*
X-0100395Y0216419D02*
X-0100394Y0216417D01*
X-0106713Y0216419D02*
X-0100395D01*
X-0110630Y0210476D02*
Y0212568D01*
X-0110100Y0213098D01*
X-0079190Y0231825D02*
Y0233390D01*
X-0081400Y0235600D02*
X-0079190Y0233390D01*
Y0231825D02*
X-0078640Y0231276D01*
X-0071160Y0232350D02*
X-0064957Y0238553D01*
X-0071160Y0231276D02*
Y0232350D01*
X-0089595Y0227476D02*
X-0073576D01*
X-0071160Y0229893D02*
Y0231276D01*
X-0073576Y0227476D02*
X-0071160Y0229893D01*
X-0123425Y0160236D02*
X-0123327Y0160334D01*
X-0105361D01*
X-0104035Y0161660D01*
Y0165059D01*
X-0104724Y0165748D02*
X-0104035Y0165059D01*
X-0106539Y0167083D02*
X-0105204Y0165748D01*
X-0106539Y0167083D02*
Y0169264D01*
X-0129700Y0170700D02*
X-0127110Y0168110D01*
X-0129700Y0170472D02*
Y0170700D01*
Y0170472D02*
X-0128728Y0169500D01*
X-0127110Y0168110D02*
X-0123425D01*
X-0133268Y0164400D02*
Y0168110D01*
Y0160236D02*
Y0164400D01*
X-0141240Y0164469D02*
Y0169370D01*
Y0162977D02*
Y0164469D01*
X-0133336D01*
X-0127953Y0190827D02*
X-0125984Y0192795D01*
X-0127953Y0187008D02*
Y0190827D01*
Y0180709D02*
X-0125213Y0183449D01*
Y0183563D01*
X-0135622Y0174803D02*
X-0135425Y0175000D01*
X-0135807Y0174803D02*
X-0135622D01*
X-0141240Y0169370D02*
X-0135807Y0174803D01*
X-0040520Y0237992D02*
X-0031465D01*
X-0049821D02*
X-0040520D01*
X-0031465D02*
X-0022163D01*
X-0045600Y0216900D02*
X-0045535Y0216835D01*
X-0026331D01*
X-0043374Y0222638D02*
X-0041110Y0224902D01*
X-0026331Y0216835D02*
X-0024661Y0218506D01*
X-0016284D01*
X-0014412Y0216634D01*
X-0010000D01*
X-0026150Y0220701D02*
Y0225197D01*
X-0027217Y0219634D02*
X-0026150Y0220701D01*
X-0030315Y0219634D02*
X-0027217D01*
X-0030874Y0220193D02*
X-0030315Y0219634D01*
X-0030874Y0220193D02*
Y0225197D01*
X-0041110Y0224902D02*
Y0225197D01*
X-0058643Y0234449D02*
X-0056368D01*
X-0062176Y0237982D02*
X-0058643Y0234449D01*
X-0086555Y0163866D02*
X-0079696D01*
X-0087055Y0164366D02*
X-0086555Y0163866D01*
X-0151673Y0205974D02*
X-0149793Y0207854D01*
X-0151673Y0200122D02*
Y0205974D01*
X-0144459Y0207854D02*
X-0119208Y0233105D01*
X-0055693Y0224926D02*
X-0054469Y0226150D01*
Y0232549D01*
X-0056368Y0234449D02*
X-0054469Y0232549D01*
X-0092662Y0224409D02*
X-0089595Y0227476D01*
X-0092720Y0226717D02*
Y0232589D01*
X-0094980Y0226083D02*
X-0093355D01*
X-0090100Y0220400D02*
X-0086624D01*
X-0093355Y0226083D02*
X-0092720Y0226717D01*
X-0097902Y0223161D02*
X-0094980Y0226083D01*
X-0101176Y0229980D02*
X-0098419Y0232737D01*
X-0095644D01*
X-0092869D01*
X-0095575Y0232806D02*
Y0235039D01*
X-0095644Y0232737D02*
X-0095575Y0232806D01*
X-0101937Y0230302D02*
X-0101616Y0229980D01*
X-0101176D01*
X-0092869Y0232737D02*
X-0092720Y0232589D01*
X-0087795Y0232118D02*
X-0087177Y0232737D01*
X-0101597Y0223161D02*
X-0097902D01*
X-0101937Y0222822D02*
X-0101597Y0223161D01*
X-0074409Y0180259D02*
Y0190945D01*
X-0136425Y0184252D02*
X-0136247D01*
X-0115126Y0226956D02*
X-0111780Y0230302D01*
X-0149793Y0207854D02*
X-0144459D01*
X-0147967Y0205591D02*
X-0147421Y0205045D01*
X-0105921Y0233201D02*
X-0102929Y0236193D01*
X-0105921Y0227673D02*
Y0233201D01*
X-0018504Y0145138D02*
Y0162598D01*
Y0145138D02*
X-0010000Y0136634D01*
X-0013484Y0200118D02*
X-0010000Y0196634D01*
X-0013484Y0200118D02*
Y0203170D01*
X-0015275Y0204961D02*
X-0013484Y0203170D01*
X-0138563Y0182114D02*
X-0136425Y0184252D01*
X-0140329Y0182114D02*
X-0138563D01*
X-0180315Y0203639D02*
X-0166042D01*
X-0183027D02*
X-0180315D01*
X-0196946Y0187008D02*
X-0180315Y0203639D01*
X-0198819Y0187008D02*
X-0196946D01*
X-0200140Y0209770D02*
Y0213717D01*
X-0156419Y0213650D02*
X-0155841Y0213071D01*
X-0167086Y0162611D02*
X-0164417Y0159941D01*
X-0144276D02*
X-0141240Y0162977D01*
X-0200140Y0213717D02*
X-0200008Y0213849D01*
X-0200140Y0209770D02*
X-0200008Y0209638D01*
Y0209496D02*
X-0197590Y0207079D01*
X-0200008Y0209496D02*
Y0209638D01*
X-0068891Y0176618D02*
X-0068552Y0176279D01*
X-0192525Y0229225D02*
X-0187800Y0224500D01*
X-0196203Y0229225D02*
X-0192525D01*
X-0152866Y0196705D02*
Y0199067D01*
X-0100449Y0166535D02*
X-0099555D01*
X-0100787D02*
X-0100449D01*
X-0161417Y0196457D02*
X-0161262D01*
Y0204797D02*
X-0160671Y0205387D01*
X-0161180Y0205896D02*
X-0160671Y0205387D01*
X-0163624Y0205896D02*
X-0161180D01*
X-0163827Y0206100D02*
X-0163624Y0205896D01*
X-0184739Y0209791D02*
X-0183612Y0210917D01*
X-0172091D01*
X-0167273Y0206100D02*
X-0163827D01*
X-0165659Y0209487D02*
X-0160834D01*
X-0160671Y0209324D01*
X-0165822D02*
X-0165659Y0209487D01*
X-0167086Y0162611D02*
Y0184851D01*
X-0104810Y0226562D02*
X-0101937D01*
X-0106509D02*
X-0104810D01*
X-0107087Y0225984D02*
X-0106509Y0226562D01*
X-0026772Y0197273D02*
X-0026585Y0197087D01*
X-0125984Y0192795D02*
X-0125846Y0192657D01*
X-0122165D01*
X-0153937Y0203012D02*
Y0204474D01*
X-0155841Y0206378D02*
X-0153937Y0204474D01*
X-0172091Y0210917D02*
X-0167273Y0206100D01*
X-0195677Y0209791D02*
X-0184739D01*
X-0167947Y0196457D02*
X-0161417D01*
X-0168643Y0195760D02*
X-0167947Y0196457D01*
X-0149685Y0190723D02*
Y0196457D01*
X-0155029Y0190723D02*
X-0149685D01*
X-0158661Y0177559D02*
Y0187091D01*
Y0177559D02*
X-0157441Y0176338D01*
Y0171228D02*
Y0176338D01*
X-0075197Y0179471D02*
X-0074409Y0180259D01*
X-0075197Y0176618D02*
Y0179471D01*
X-0076378Y0198031D02*
X-0076251D01*
X-0075590Y0198692D01*
X-0075197Y0176618D02*
X-0068891D01*
X-0078740D02*
X-0075197D01*
X-0076033Y0199135D02*
Y0199137D01*
X-0082284Y0205387D02*
X-0076033Y0199137D01*
X-0068552Y0176279D02*
X-0020716D01*
X-0017549Y0174241D02*
X-0017323Y0174015D01*
X-0020716Y0176279D02*
X-0018678Y0174241D01*
X-0017549D01*
X-0085236Y0207083D02*
X-0083541Y0205387D01*
X-0082284D01*
X-0109606Y0169532D02*
X-0107594D01*
X-0115126Y0208829D02*
Y0226956D01*
X-0110106Y0235315D02*
X-0109228Y0236193D01*
X-0110106Y0230893D02*
Y0235315D01*
X-0099555Y0167177D02*
X-0098921Y0167811D01*
X-0099555Y0161512D02*
X-0095717Y0157673D01*
X-0098890Y0167811D02*
Y0169531D01*
X-0087055Y0164366D02*
Y0169429D01*
X-0156037Y0213071D02*
X-0155841D01*
X-0113146Y0206634D02*
Y0206849D01*
X-0115126Y0208829D02*
X-0113146Y0206849D01*
X-0144095Y0184721D02*
Y0185040D01*
X-0097753Y0226562D02*
X-0095575Y0228740D01*
X-0101937Y0226562D02*
X-0097753D01*
X-0111417Y0230664D02*
X-0110335D01*
X-0110106Y0230893D01*
X-0105921Y0227673D02*
X-0104810Y0226562D01*
X-0107890Y0175000D02*
Y0175240D01*
X-0165413Y0184158D02*
X-0152866Y0196705D01*
X-0165413Y0166406D02*
Y0184158D01*
X-0158407Y0193530D02*
Y0210701D01*
X-0152866Y0199067D02*
X-0152275Y0199658D01*
X-0164417Y0159941D02*
X-0144276D01*
X-0167086Y0184851D02*
X-0158407Y0193530D01*
Y0210701D02*
X-0156037Y0213071D01*
X-0152275Y0199658D02*
X-0152138D01*
X-0165413Y0166406D02*
X-0162362Y0163354D01*
X-0152138Y0199658D02*
X-0151673Y0200122D01*
X-0162362Y0163354D02*
X-0157441D01*
X-0122165Y0192657D02*
Y0193280D01*
X-0118359Y0197087D01*
X-0078740Y0180555D02*
Y0184618D01*
X-0161078Y0214228D02*
X-0160500Y0213650D01*
X-0156419D01*
X-0166042Y0213201D02*
X-0165015Y0214228D01*
X-0166042Y0209544D02*
Y0213201D01*
X-0197590Y0207079D02*
X-0186467D01*
X-0183027Y0203639D01*
X-0118359Y0197087D02*
X-0115849D01*
X-0115732Y0197204D01*
X-0078740Y0180555D02*
X-0078740Y0180555D01*
X-0102969Y0169532D02*
X-0098890D01*
D27*
X-0089173Y0206197D02*
X-0089093D01*
X-0096307Y0193913D02*
X-0094041Y0191648D01*
X-0097063Y0183283D02*
Y0188626D01*
X-0010000Y0205906D02*
Y0206634D01*
X-0147539Y0223455D02*
X-0143844Y0219760D01*
X-0086236Y0175240D02*
Y0175831D01*
X-0067887Y0231982D02*
X-0065153Y0234715D01*
X-0089852Y0223600D02*
X-0070511D01*
X-0069068Y0232471D02*
X-0065642Y0235896D01*
X-0035992Y0222972D02*
Y0227461D01*
X-0036519Y0222446D02*
X-0035992Y0222972D01*
X-0036519Y0220364D02*
Y0222446D01*
X-0037211Y0219672D02*
X-0036519Y0220364D01*
X-0062000Y0231800D02*
Y0233727D01*
X-0062727Y0231073D02*
X-0062000Y0231800D01*
X-0043474Y0219672D02*
X-0037211D01*
X-0061481Y0220895D02*
Y0227597D01*
X-0044785Y0218868D02*
X-0044767Y0218850D01*
X-0044295D02*
X-0043474Y0219672D01*
X-0046433Y0218850D02*
X-0046415Y0218868D01*
X-0044767Y0218850D02*
X-0044295D01*
X-0046415Y0218868D02*
X-0044785D01*
X-0060259Y0219672D02*
X-0047726D01*
X-0061481Y0220895D02*
X-0060259Y0219672D01*
X-0046905Y0218850D02*
X-0046433D01*
X-0047726Y0219672D02*
X-0046905Y0218850D01*
X-0065153Y0234715D02*
X-0062988D01*
X-0062000Y0233727D01*
X-0064957Y0231073D02*
X-0062727D01*
X-0064957D02*
X-0061481Y0227597D01*
X-0091602Y0221850D02*
X-0089852Y0223600D01*
X-0092350Y0221850D02*
X-0091602D01*
X-0092536Y0203685D02*
Y0221665D01*
X-0092350Y0221850D01*
X-0092142Y0201913D02*
Y0203291D01*
X-0092536Y0203685D02*
X-0092142Y0203291D01*
X-0038551Y0223251D02*
X-0037700Y0222400D01*
X-0038551Y0223251D02*
Y0227461D01*
X-0060092Y0231073D02*
X-0057083D01*
X-0060819Y0231800D02*
Y0234216D01*
X-0060300Y0221384D02*
Y0227855D01*
X-0057083Y0231073D01*
X-0037700Y0220853D02*
Y0222400D01*
X-0043963Y0220853D02*
X-0037700D01*
X-0044767Y0220050D02*
X-0043963Y0220853D01*
X-0046433Y0220050D02*
X-0044767D01*
X-0059769Y0220853D02*
X-0047237D01*
X-0060300Y0221384D02*
X-0059769Y0220853D01*
X-0047237D02*
X-0046433Y0220050D01*
X-0065642Y0235896D02*
X-0062499D01*
X-0060819Y0231800D02*
X-0060092Y0231073D01*
X-0062499Y0235896D02*
X-0060819Y0234216D01*
X-0092091Y0223031D02*
X-0090341Y0224781D01*
X-0092839Y0223031D02*
X-0092091D01*
X-0093717Y0222154D02*
X-0092839Y0223031D01*
X-0093717Y0203685D02*
Y0222154D01*
X-0094110Y0203291D02*
X-0093717Y0203685D01*
X-0094110Y0201913D02*
Y0203291D01*
X-0069068Y0226933D02*
Y0232471D01*
X-0069078Y0226923D02*
X-0069068Y0226933D01*
X-0069078Y0226703D02*
Y0226923D01*
X-0071000Y0224781D02*
X-0069078Y0226703D01*
X-0067887Y0226444D02*
Y0231982D01*
X-0067897Y0226433D02*
X-0067887Y0226444D01*
X-0067897Y0226213D02*
Y0226433D01*
X-0070511Y0223600D02*
X-0067897Y0226213D01*
X-0090341Y0224781D02*
X-0071000D01*
X-0135843Y0172819D02*
X-0109448D01*
X-0138976Y0169685D02*
X-0135843Y0172819D01*
X-0125984Y0178740D02*
X-0124016Y0180709D01*
X-0132141Y0178740D02*
X-0125984D01*
X-0132590Y0177657D02*
X-0125536D01*
X-0124721Y0178472D02*
X-0112221D01*
X-0125536Y0177657D02*
X-0124721Y0178472D01*
X-0133038Y0176575D02*
X-0112067D01*
X-0133082Y0178149D02*
X-0132590Y0177657D01*
X-0133306Y0176842D02*
X-0133038Y0176575D01*
X-0112067D02*
X-0110843Y0177799D01*
X-0126520Y0185039D02*
X-0124551Y0187008D01*
X-0126520Y0185039D02*
X-0126520D01*
X-0127959Y0183600D02*
X-0126520Y0185039D01*
X-0128600Y0183600D02*
X-0127959D01*
X-0116090Y0186956D02*
X-0113656D01*
X-0112373Y0185673D01*
X-0110350D01*
X-0113115Y0181736D02*
X-0110350D01*
X-0114142Y0180709D02*
X-0113115Y0181736D01*
X-0116142Y0180709D02*
X-0114142D01*
X-0124016D02*
X-0120079D01*
X-0124016Y0187008D02*
X-0120079D01*
X-0133519Y0180118D02*
X-0132141Y0178740D01*
X-0139141Y0178800D02*
X-0137823Y0180118D01*
X-0133519D01*
X-0143800Y0178800D02*
X-0139141D01*
X-0144583Y0176799D02*
X-0139751D01*
X-0139132Y0176181D01*
X-0147809Y0180025D02*
Y0182114D01*
Y0180025D02*
X-0144583Y0176799D01*
X-0135531Y0176842D02*
X-0133306D01*
X-0137008Y0178149D02*
X-0133082D01*
X-0136193Y0176181D02*
X-0135531Y0176842D01*
X-0111477Y0179177D02*
X-0110689Y0179965D01*
X-0111759Y0179177D02*
X-0111477D01*
X-0112221Y0178716D02*
X-0111759Y0179177D01*
X-0112221Y0178472D02*
Y0178716D01*
X-0110689Y0179965D02*
X-0110547D01*
X-0137598Y0200764D02*
X-0134824Y0203539D01*
X-0142900Y0189900D02*
X-0137598Y0195201D01*
X-0142900Y0188642D02*
Y0189900D01*
X-0137598Y0195201D02*
Y0200764D01*
X-0134824Y0203539D02*
X-0113812D01*
X-0137008Y0204808D02*
X-0136821Y0204621D01*
X-0114261D01*
X-0143844Y0212474D02*
Y0219760D01*
X-0136916Y0204900D02*
X-0136568D01*
X-0137008Y0204808D02*
X-0136916Y0204900D01*
X-0113812Y0203539D02*
X-0113807Y0203543D01*
X-0114261Y0204621D02*
X-0114256Y0204626D01*
X-0104726D01*
X-0103953Y0203853D01*
X-0109421Y0203543D02*
X-0107890Y0202012D01*
X-0113807Y0203543D02*
X-0109421D01*
X-0103953Y0201913D02*
Y0203853D01*
X-0147424Y0227507D02*
Y0232594D01*
X-0106693Y0210476D02*
X-0100787D01*
X-0098047Y0202012D02*
Y0207736D01*
X-0100787Y0210476D02*
X-0098047Y0207736D01*
X-0096079Y0201913D02*
Y0204621D01*
X-0095900Y0204800D01*
X-0089173Y0206197D02*
Y0207083D01*
X-0089093Y0206197D02*
X-0088205Y0205308D01*
Y0202012D02*
Y0205308D01*
X-0085236Y0203012D02*
Y0207083D01*
X-0139132Y0176181D02*
X-0136193D01*
X-0110547Y0179965D02*
X-0110350Y0179768D01*
X-0110843Y0177799D02*
X-0110350D01*
X-0088205Y0179768D02*
X-0083776D01*
X-0094041Y0191648D02*
X-0091339Y0194351D01*
X-0097063Y0188626D02*
X-0094041Y0191648D01*
X-0091370Y0188976D01*
X-0091339Y0194351D02*
Y0197273D01*
X-0100016Y0175339D02*
Y0185673D01*
X-0110350Y0197484D02*
X-0105921D01*
X-0088205Y0197484D02*
Y0201913D01*
X-0079232Y0176126D02*
X-0078740Y0176618D01*
X-0105921Y0173679D02*
Y0175240D01*
X-0106131Y0173468D02*
X-0105921Y0173679D01*
X-0108799Y0173468D02*
X-0106131D01*
X-0104248Y0173821D02*
Y0175043D01*
X-0106022Y0172047D02*
X-0104248Y0173821D01*
X-0108296Y0172047D02*
X-0106022D01*
X-0111575Y0167424D02*
X-0106749Y0162598D01*
X-0106299D01*
X-0086236Y0202012D02*
X-0085236Y0203012D01*
X-0108842Y0171500D02*
X-0108296Y0172047D01*
X-0110422Y0171500D02*
X-0108842D01*
X-0111575Y0170347D02*
X-0110422Y0171500D01*
X-0111575Y0167424D02*
Y0170347D01*
X-0109448Y0172819D02*
X-0108799Y0173468D01*
X-0112137Y0201141D02*
X-0111138Y0200142D01*
Y0199748D02*
Y0200142D01*
Y0199748D02*
X-0110843Y0199453D01*
X-0115298Y0201575D02*
X-0113426D01*
X-0094110Y0172090D02*
Y0175339D01*
Y0172090D02*
X-0091552Y0169531D01*
X-0090890D01*
X-0095193Y0169772D02*
Y0173355D01*
X-0096079Y0174241D02*
X-0095193Y0173355D01*
Y0169772D02*
X-0094953Y0169531D01*
X-0090647Y0161265D02*
X-0087055Y0157673D01*
X-0090647Y0161265D02*
Y0169288D01*
X-0090890Y0169531D02*
X-0090647Y0169288D01*
X-0096079Y0174241D02*
Y0175240D01*
X-0097369Y0172386D02*
Y0172865D01*
X-0100016Y0172248D02*
Y0175240D01*
Y0172248D02*
X-0098890Y0171123D01*
Y0169531D02*
Y0171123D01*
X-0086236Y0175831D02*
X-0085941Y0176126D01*
X-0079232D01*
X-0095717Y0164366D02*
Y0168768D01*
X-0115732Y0201141D02*
X-0115298Y0201575D01*
X-0113386Y0197484D02*
X-0110449D01*
X-0113666Y0197204D02*
X-0113386Y0197484D01*
X-0115732Y0197204D02*
X-0113666D01*
X-0138976Y0167980D02*
Y0169685D01*
X-0104248Y0175043D02*
X-0103953Y0175339D01*
X-0082627Y0191732D02*
X-0078740D01*
X-0082677Y0191683D02*
X-0082627Y0191732D01*
X-0113386Y0190157D02*
X-0111965Y0191579D01*
X-0113386Y0189370D02*
Y0190157D01*
X-0110504Y0183858D02*
X-0110350Y0183705D01*
X-0114173Y0183858D02*
X-0110504D01*
X-0083776Y0197484D02*
X-0081255D01*
X-0080708Y0198031D01*
X-0083776Y0193547D02*
X-0083622Y0193701D01*
X-0080709D01*
X-0097874Y0173370D02*
Y0175067D01*
X-0079528Y0179768D02*
X-0078740Y0180555D01*
X-0083677Y0179768D02*
X-0079528D01*
X-0097874Y0173370D02*
X-0097369Y0172865D01*
X-0098047Y0175240D02*
X-0097874Y0175067D01*
X-0110843Y0199453D02*
X-0110449D01*
X-0083677Y0177799D02*
X-0079921D01*
D28*
X-0010000Y0236634D02*
D03*
Y0206634D02*
D03*
Y0216634D02*
D03*
Y0226634D02*
D03*
Y0166634D02*
D03*
Y0156634D02*
D03*
Y0146634D02*
D03*
Y0136634D02*
D03*
Y0126634D02*
D03*
Y0176634D02*
D03*
D29*
Y0196634D02*
D03*
Y0116634D02*
D03*
D30*
X-0045539Y0226181D02*
D03*
X-0026445D02*
D03*
D31*
X-0049821Y0237992D02*
D03*
X-0022163D02*
D03*
D32*
X-0182226Y0235130D02*
D03*
Y0207571D02*
D03*
D33*
X-0172926Y0222552D02*
D03*
Y0142040D02*
D03*
D34*
X-0096821Y0108434D02*
D03*
X-0112373Y0148200D02*
D03*
X-0062176Y0238083D02*
D03*
X-0056856Y0237992D02*
D03*
X-0151155Y0241582D02*
D03*
X-0090945Y0235600D02*
D03*
X-0087795Y0229740D02*
D03*
X-0069739Y0238756D02*
D03*
X-0074891Y0235083D02*
D03*
X-0061300Y0217095D02*
D03*
X-0053700Y0187700D02*
D03*
X-0061900Y0191200D02*
D03*
X-0135828Y0236576D02*
D03*
X-0126800Y0230400D02*
D03*
X-0137500Y0219974D02*
D03*
X-0110100Y0213500D02*
D03*
X-0129700Y0170700D02*
D03*
X-0125213Y0183563D02*
D03*
X-0143800Y0178800D02*
D03*
X-0137008Y0178149D02*
D03*
X-0128600Y0183600D02*
D03*
X-0045600Y0222018D02*
D03*
Y0216900D02*
D03*
X-0160484Y0125700D02*
D03*
X-0111857Y0108434D02*
D03*
X-0061500Y0011100D02*
D03*
X-0128400Y0004700D02*
D03*
X-0155760Y0051293D02*
D03*
X-0197221Y0005300D02*
D03*
X-0192900Y0096900D02*
D03*
X-0143916Y0101200D02*
D03*
X-0100394Y0092400D02*
D03*
X-0077300Y0052100D02*
D03*
X-0027200Y0036700D02*
D03*
X-0004700Y0008900D02*
D03*
X-0043500Y0087300D02*
D03*
X-0006600Y0097500D02*
D03*
X-0019000Y0117600D02*
D03*
X-0026300Y0138600D02*
D03*
Y0162900D02*
D03*
X-0079696Y0163866D02*
D03*
X-0053200Y0164200D02*
D03*
X-0198038Y0150700D02*
D03*
X-0198900Y0178149D02*
D03*
X-0188100Y0187400D02*
D03*
X-0178600Y0198900D02*
D03*
X-0197300Y0238866D02*
D03*
X-0160707Y0229980D02*
D03*
X-0141500Y0231293D02*
D03*
X-0030374Y0210100D02*
D03*
X-0041700Y0212869D02*
D03*
X-0018342Y0223281D02*
D03*
X-0004438Y0187071D02*
D03*
X-0027300Y0171554D02*
D03*
X-0054500Y0171900D02*
D03*
X-0078300Y0171800D02*
D03*
X-0020269Y0187400D02*
D03*
X-0037961Y0200700D02*
D03*
X-0077800Y0209300D02*
D03*
X-0175175Y0240258D02*
D03*
X-0121877Y0236756D02*
D03*
X-0121400Y0199300D02*
D03*
X-0135568Y0191667D02*
D03*
X-0133800Y0199607D02*
D03*
X-0119400Y0208244D02*
D03*
X-0096311Y0148200D02*
D03*
X-0099161Y0237192D02*
D03*
X-0070358Y0184539D02*
D03*
X-0120000Y0223975D02*
D03*
X-0134134Y0210300D02*
D03*
X-0142900Y0188642D02*
D03*
X-0143844Y0212474D02*
D03*
X-0136568Y0204900D02*
D03*
X-0090100Y0220400D02*
D03*
X-0087500Y0216800D02*
D03*
X-0095900Y0204800D02*
D03*
X-0074409Y0190945D02*
D03*
X-0078690Y0191683D02*
D03*
X-0136247Y0184252D02*
D03*
X-0165059Y0198721D02*
D03*
Y0192815D02*
D03*
X-0199311Y0214469D02*
D03*
Y0220374D02*
D03*
Y0198819D02*
D03*
Y0204429D02*
D03*
X-0199409Y0226181D02*
D03*
X-0199311Y0232185D02*
D03*
X-0175591Y0153937D02*
D03*
X-0184646D02*
D03*
X-0175591Y0180666D02*
D03*
X-0184646D02*
D03*
X-0097063Y0181890D02*
D03*
X-0090945Y0188583D02*
D03*
X-0103543D02*
D03*
X-0097244D02*
D03*
X-0097063Y0196457D02*
D03*
X-0147244Y0162205D02*
D03*
X-0187800Y0224500D02*
D03*
X-0013681Y0179562D02*
D03*
X-0016142Y0160630D02*
D03*
X-0018504Y0162598D02*
D03*
X-0021260Y0165354D02*
D03*
X-0100449Y0166535D02*
D03*
X-0161417Y0196457D02*
D03*
X-0107087Y0225984D02*
D03*
X-0016142Y0209449D02*
D03*
X-0015748Y0202232D02*
D03*
X-0026772Y0197273D02*
D03*
X-0125984Y0192795D02*
D03*
X-0153937Y0203012D02*
D03*
X-0149685Y0196457D02*
D03*
X-0076378Y0198031D02*
D03*
X-0019587Y0180315D02*
D03*
X-0016535Y0178740D02*
D03*
X-0021654Y0174015D02*
D03*
X-0017323D02*
D03*
X-0022441Y0179921D02*
D03*
X-0082284Y0205387D02*
D03*
X-0106299Y0162598D02*
D03*
X-0104724Y0165748D02*
D03*
X-0109606Y0169532D02*
D03*
X-0091704Y0172468D02*
D03*
X-0097369Y0172386D02*
D03*
X-0112992Y0201575D02*
D03*
X-0113146Y0206634D02*
D03*
X-0144095Y0184721D02*
D03*
X-0138976Y0167980D02*
D03*
X-0113386Y0189370D02*
D03*
X-0114173Y0183858D02*
D03*
X-0080708Y0198031D02*
D03*
X-0080709Y0193701D02*
D03*
D35*
X-0003500Y0236634D02*
G03*
X-0003500Y0236634I-0001500J0000000D01*
G01*
Y0226634D02*
G03*
X-0003500Y0226634I-0001500J0000000D01*
G01*
Y0216634D02*
G03*
X-0003500Y0216634I-0001500J0000000D01*
G01*
Y0206634D02*
G03*
X-0003500Y0206634I-0001500J0000000D01*
G01*
Y0176634D02*
G03*
X-0003500Y0176634I-0001500J0000000D01*
G01*
Y0166634D02*
G03*
X-0003500Y0166634I-0001500J0000000D01*
G01*
Y0146634D02*
G03*
X-0003500Y0146634I-0001500J0000000D01*
G01*
Y0136634D02*
G03*
X-0003500Y0136634I-0001500J0000000D01*
G01*
Y0126634D02*
G03*
X-0003500Y0126634I-0001500J0000000D01*
G01*
Y0156634D02*
G03*
X-0003500Y0156634I-0001500J0000000D01*
G01*
D36*
X-0030874Y0227461D02*
D03*
X-0033433D02*
D03*
X-0035992D02*
D03*
X-0038551D02*
D03*
X-0041110D02*
D03*
D37*
X-0031465Y0237992D02*
D03*
X-0040520D02*
D03*
D38*
X-0074900Y0240724D02*
D03*
X-0078640Y0231276D02*
D03*
X-0071160D02*
D03*
D39*
X-0123425Y0168110D02*
D03*
X-0133268D02*
D03*
Y0160236D02*
D03*
X-0123425D02*
D03*
X-0055693Y0224926D02*
D03*
X-0065535D02*
D03*
X-0166042Y0209348D02*
D03*
Y0203836D02*
D03*
D40*
X-0096457Y0216417D02*
D03*
X-0100394D02*
D03*
X-0127953Y0180709D02*
D03*
X-0124016D02*
D03*
X-0116142D02*
D03*
X-0120079D02*
D03*
X-0127953Y0187008D02*
D03*
X-0124016D02*
D03*
X-0116142D02*
D03*
X-0120079D02*
D03*
X-0106713Y0216419D02*
D03*
X-0110650D02*
D03*
X-0102969Y0169532D02*
D03*
X-0106905D02*
D03*
X-0086953Y0169531D02*
D03*
X-0090890D02*
D03*
X-0098890Y0169531D02*
D03*
X-0094953D02*
D03*
X-0196464Y0209791D02*
D03*
X-0200401D02*
D03*
X-0161078Y0214228D02*
D03*
X-0165015D02*
D03*
X-0089173Y0207083D02*
D03*
X-0085236D02*
D03*
X-0100394Y0210476D02*
D03*
X-0096457D02*
D03*
X-0110630D02*
D03*
X-0106693D02*
D03*
D41*
X-0198819Y0187008D02*
D03*
D42*
X-0083776Y0177799D02*
D03*
Y0179768D02*
D03*
Y0181736D02*
D03*
Y0183705D02*
D03*
Y0185673D02*
D03*
Y0187642D02*
D03*
Y0189610D02*
D03*
Y0191579D02*
D03*
Y0193547D02*
D03*
Y0195516D02*
D03*
Y0197484D02*
D03*
Y0199453D02*
D03*
X-0110350D02*
D03*
Y0197484D02*
D03*
Y0195516D02*
D03*
Y0193547D02*
D03*
Y0191579D02*
D03*
Y0189610D02*
D03*
Y0187642D02*
D03*
Y0185673D02*
D03*
Y0183705D02*
D03*
Y0181736D02*
D03*
Y0179768D02*
D03*
Y0177799D02*
D03*
D43*
X-0086236Y0201913D02*
D03*
X-0088205D02*
D03*
X-0090173D02*
D03*
X-0092142D02*
D03*
X-0094110D02*
D03*
X-0096079D02*
D03*
X-0098047D02*
D03*
X-0100016D02*
D03*
X-0101984D02*
D03*
X-0103953D02*
D03*
X-0105921D02*
D03*
X-0107890D02*
D03*
Y0175339D02*
D03*
X-0105921D02*
D03*
X-0103953D02*
D03*
X-0101984D02*
D03*
X-0100016D02*
D03*
X-0098047D02*
D03*
X-0096079D02*
D03*
X-0094110D02*
D03*
X-0092142D02*
D03*
X-0090173D02*
D03*
X-0088205D02*
D03*
X-0086236D02*
D03*
D44*
X-0097063Y0188626D02*
D03*
D45*
X-0064957Y0231073D02*
D03*
Y0238553D02*
D03*
X-0057083Y0231073D02*
D03*
X-0155841Y0213071D02*
D03*
X-0147967D02*
D03*
Y0205591D02*
D03*
D46*
X-0057083Y0237766D02*
D03*
X-0155841Y0206378D02*
D03*
D47*
X-0111780Y0222822D02*
D03*
Y0230302D02*
D03*
X-0101937Y0222822D02*
D03*
Y0230302D02*
D03*
Y0226562D02*
D03*
D48*
X-0087055Y0164366D02*
D03*
Y0157673D02*
D03*
X-0095717Y0164366D02*
D03*
Y0157673D02*
D03*
D49*
X-0085338Y0232283D02*
D03*
Y0220473D02*
D03*
D50*
X-0144069Y0174240D02*
D03*
X-0147809Y0182114D02*
D03*
X-0140329D02*
D03*
X-0122165Y0192657D02*
D03*
X-0115866D02*
D03*
X-0102929Y0236193D02*
D03*
X-0109228D02*
D03*
D51*
X-0095575Y0228740D02*
D03*
Y0235039D02*
D03*
D52*
X-0168644Y0195760D02*
D03*
X-0195809Y0201665D02*
D03*
D53*
X-0196203Y0217414D02*
D03*
Y0229225D02*
D03*
D54*
X-0157441Y0171228D02*
D03*
Y0163354D02*
D03*
D55*
X-0180078Y0180480D02*
D03*
Y0154102D02*
D03*
D56*
X-0147424Y0239090D02*
D03*
Y0232594D02*
D03*
D57*
X-0147539Y0223455D02*
D03*
Y0227392D02*
D03*
X-0155142Y0186673D02*
D03*
Y0190610D02*
D03*
X-0149685Y0190723D02*
D03*
Y0186786D02*
D03*
X-0115732Y0197204D02*
D03*
Y0201141D02*
D03*
X-0143992Y0164043D02*
D03*
Y0167980D02*
D03*
X-0160671Y0209324D02*
D03*
Y0205387D02*
D03*
X-0078740Y0188555D02*
D03*
Y0184618D02*
D03*
X-0078740Y0180555D02*
D03*
Y0176618D02*
D03*
D58*
X-0007500Y0236634D02*
D03*
Y0226634D02*
D03*
Y0216634D02*
D03*
Y0206634D02*
D03*
Y0176634D02*
D03*
Y0166634D02*
D03*
Y0156634D02*
D03*
Y0146634D02*
D03*
Y0136634D02*
D03*
Y0126634D02*
D03*
D59*
X-0006000Y0196634D02*
D03*
Y0116634D02*
D03*
M02*
