M48
;Layer_Color=9474304
;FILE_FORMAT=2:5
INCH
;TYPE=PLATED
T1F00S00C0.01181
T2F00S00C0.03150
T3F00S00C0.04000
T4F00S00C0.04724
;TYPE=NON_PLATED
T5F00S00C0.01969
T6F00S00C0.04528
%
T01
X-0197221Y0005300
X-0128400Y0004700
X-0061500Y0011100
X-0004700Y0008900
X-0027200Y0036700
X-0043500Y0087300
X-0006600Y0097500
X-0019000Y0117600
X-0026300Y0138600
Y0162900
X-0021260Y0165354
X-0018504Y0162598
X-0016142Y0160630
X-0017323Y0174015
X-0021654
X-0027300Y0171554
X-0016535Y0178740
X-0013681Y0179562
X-0054500Y0171900
X-0053200Y0164200
X-0079696Y0163866
X-0078300Y0171800
X-0091704Y0172468
X-0097369Y0172386
X-0100449Y0166535
X-0104724Y0165748
X-0106299Y0162598
X-0109606Y0169532
X-0129700Y0170700
X-0138976Y0167980
X-0137008Y0178149
X-0143800Y0178800
X-0147244Y0162205
X-0175591Y0153937
X-0184646
X-0198038Y0150700
X-0198900Y0178149
X-0192900Y0096900
X-0143916Y0101200
X-0111857Y0108434
X-0096821
X-0100394Y0092400
X-0096311Y0148200
X-0112373
X-0160484Y0125700
X-0155760Y0051293
X-0077300Y0052100
X-0070358Y0184539
X-0074409Y0190945
X-0078690Y0191683
X-0080709Y0193701
X-0080708Y0198031
X-0076378
X-0077800Y0209300
X-0082284Y0205387
X-0095900Y0204800
X-0097063Y0196457
X-0097244Y0188583
X-0092025Y0188555
X-0103543Y0188583
X-0113386Y0189370
X-0114173Y0183858
X-0125213Y0183563
X-0128600Y0183600
X-0136247Y0184252
X-0135568Y0191667
X-0133800Y0199607
X-0136568Y0204900
X-0134134Y0210300
X-0143844Y0212474
X-0137500Y0219974
X-0141500Y0231293
X-0135828Y0236576
X-0121877Y0236756
X-0126800Y0230400
X-0120000Y0223975
X-0107087Y0225984
X-0110100Y0213500
X-0113146Y0206634
X-0112992Y0201575
X-0121400Y0199300
X-0119400Y0208244
X-0125984Y0192795
X-0142900Y0188642
X-0144095Y0184721
X-0149685Y0196457
X-0153937Y0203012
X-0161417Y0196457
X-0165059Y0198721
Y0192815
X-0178600Y0198900
X-0199311Y0198819
Y0204429
Y0214469
Y0220374
X-0199409Y0226181
X-0199311Y0232185
X-0197300Y0238866
X-0175175Y0240258
X-0160707Y0229980
X-0151155Y0241582
X-0187800Y0224500
X-0188100Y0187400
X-0184646Y0180666
X-0175591
X-0097063Y0181890
X-0061900Y0191200
X-0061300Y0217095
X-0062176Y0238083
X-0056856Y0237992
X-0069739Y0238756
X-0074891Y0235083
X-0090945Y0235600
X-0087795Y0229740
X-0090100Y0220400
X-0087500Y0216800
X-0099161Y0237192
X-0045600Y0222018
Y0216900
X-0041700Y0212869
X-0030374Y0210100
X-0016142Y0209449
X-0015748Y0202232
X-0026772Y0197273
X-0037961Y0200700
X-0053700Y0187700
X-0020269Y0187400
X-0019587Y0180315
X-0022441Y0179921
X-0004438Y0187071
X-0018342Y0223281
T02
X-0045539Y0226181
X-0026445
T03
X-0010000Y0116634
Y0126634
Y0136634
Y0146634
Y0156634
Y0166634
Y0176634
Y0196634
Y0206634
Y0216634
Y0226634
Y0236634
T04
X-0049821Y0237992
X-0022163
T05
X-0172926Y0142040
Y0222552
T06
X-0182226Y0207571
Y0235130
M30
